<svg width="16" height="17" viewBox="0 0 16 17" fill="none" xmlns="http://www.w3.org/2000/svg">
<mask id="mask0_93_11308" style="mask-type:alpha" maskUnits="userSpaceOnUse" x="0" y="0" width="16" height="17">
<rect y="0.5" width="16" height="16" fill="#D9D9D9"/>
</mask>
<g mask="url(#mask0_93_11308)">
<path d="M8.00016 15.1673C7.07794 15.1673 6.21127 14.9922 5.40016 14.642C4.58905 14.2922 3.8835 13.8173 3.2835 13.2173C2.6835 12.6173 2.20861 11.9118 1.85883 11.1007C1.50861 10.2895 1.3335 9.42287 1.3335 8.50065C1.3335 7.57843 1.50861 6.71176 1.85883 5.90065C2.20861 5.08954 2.6835 4.38398 3.2835 3.78398C3.8835 3.18398 4.58905 2.70887 5.40016 2.35865C6.21127 2.00887 7.07794 1.83398 8.00016 1.83398C8.92239 1.83398 9.78905 2.00887 10.6002 2.35865C11.4113 2.70887 12.1168 3.18398 12.7168 3.78398C13.3168 4.38398 13.7917 5.08954 14.1415 5.90065C14.4917 6.71176 14.6668 7.57843 14.6668 8.50065C14.6668 9.42287 14.4917 10.2895 14.1415 11.1007C13.7917 11.9118 13.3168 12.6173 12.7168 13.2173C12.1168 13.8173 11.4113 14.2922 10.6002 14.642C9.78905 14.9922 8.92239 15.1673 8.00016 15.1673ZM8.00016 13.834C9.48905 13.834 10.7502 13.3173 11.7835 12.284C12.8168 11.2507 13.3335 9.98954 13.3335 8.50065C13.3335 7.90065 13.2362 7.32287 13.0415 6.76732C12.8473 6.21176 12.5668 5.70065 12.2002 5.23398L4.7335 12.7007C5.20016 13.0673 5.71127 13.3478 6.26683 13.542C6.82238 13.7367 7.40016 13.834 8.00016 13.834ZM3.80016 11.7673L11.2668 4.30065C10.8002 3.93398 10.2891 3.65354 9.7335 3.45932C9.17794 3.26465 8.60016 3.16732 8.00016 3.16732C6.51127 3.16732 5.25016 3.68398 4.21683 4.71732C3.1835 5.75065 2.66683 7.01176 2.66683 8.50065C2.66683 9.10065 2.76416 9.67843 2.95883 10.234C3.15305 10.7895 3.4335 11.3007 3.80016 11.7673Z" fill="#1C1B1F"/>
</g>
</svg>
