<svg
  width="12"
  height="14"
  viewBox="0 0 12 14"
  fill="none"
  xmlns="http://www.w3.org/2000/svg"
>
<path
    d="M1.66634 13.6673C1.29967 13.6673 0.985674 13.5369 0.724341 13.276C0.463452 13.0147 0.333008 12.7007 0.333008 12.334V3.00065H1.66634V12.334H8.99967V13.6673H1.66634ZM4.33301 11.0007C3.96634 11.0007 3.65256 10.8702 3.39167 10.6093C3.13034 10.348 2.99967 10.034 2.99967 9.66732V1.66732C2.99967 1.30065 3.13034 0.986651 3.39167 0.725318C3.65256 0.464429 3.96634 0.333984 4.33301 0.333984H10.333C10.6997 0.333984 11.0137 0.464429 11.275 0.725318C11.5359 0.986651 11.6663 1.30065 11.6663 1.66732V9.66732C11.6663 10.034 11.5359 10.348 11.275 10.6093C11.0137 10.8702 10.6997 11.0007 10.333 11.0007H4.33301ZM4.33301 9.66732H10.333V1.66732H4.33301V9.66732Z"
    fill="black"
    fillopacity="0.28"
  />
</svg>
