<svg width="16" height="17" viewBox="0 0 16 17" fill="none" xmlns="http://www.w3.org/2000/svg">
<mask id="mask0_93_11300" style="mask-type:alpha" maskUnits="userSpaceOnUse" x="0" y="0" width="16" height="17">
<rect y="0.5" width="16" height="16" fill="#D9D9D9"/>
</mask>
<g mask="url(#mask0_93_11300)">
<path d="M11 13.834H11.6667V11.1673H11V13.834ZM11.3333 10.5007C11.4222 10.5007 11.5 10.4673 11.5667 10.4007C11.6333 10.334 11.6667 10.2562 11.6667 10.1673C11.6667 10.0784 11.6333 10.0007 11.5667 9.93398C11.5 9.86732 11.4222 9.83398 11.3333 9.83398C11.2444 9.83398 11.1667 9.86732 11.1 9.93398C11.0333 10.0007 11 10.0784 11 10.1673C11 10.2562 11.0333 10.334 11.1 10.4007C11.1667 10.4673 11.2444 10.5007 11.3333 10.5007ZM4.66667 9.83398H7.11667C7.23889 9.57843 7.38044 9.33954 7.54133 9.11732C7.70267 8.8951 7.88333 8.68954 8.08333 8.50065H4.66667V9.83398ZM4.66667 12.5007H6.71667C6.68333 12.2784 6.66667 12.0562 6.66667 11.834C6.66667 11.6118 6.68333 11.3895 6.71667 11.1673H4.66667V12.5007ZM3.33333 15.1673C2.96667 15.1673 2.65267 15.0369 2.39133 14.776C2.13044 14.5147 2 14.2007 2 13.834V3.16732C2 2.80065 2.13044 2.48665 2.39133 2.22532C2.65267 1.96443 2.96667 1.83398 3.33333 1.83398H8.66667L12.6667 5.83398V7.36732C12.4556 7.30065 12.2389 7.25065 12.0167 7.21732C11.7944 7.18398 11.5667 7.16732 11.3333 7.16732V6.50065H8V3.16732H3.33333V13.834H7.11667C7.23889 14.0895 7.38044 14.3284 7.54133 14.5507C7.70267 14.7729 7.88333 14.9784 8.08333 15.1673H3.33333ZM11.3333 8.50065C12.2556 8.50065 13.0418 8.82554 13.692 9.47532C14.3418 10.1255 14.6667 10.9118 14.6667 11.834C14.6667 12.7562 14.3418 13.5424 13.692 14.1927C13.0418 14.8424 12.2556 15.1673 11.3333 15.1673C10.4111 15.1673 9.62511 14.8424 8.97533 14.1927C8.32511 13.5424 8 12.7562 8 11.834C8 10.9118 8.32511 10.1255 8.97533 9.47532C9.62511 8.82554 10.4111 8.50065 11.3333 8.50065Z" fill="#101014"/>
</g>
</svg>
