<svg width="18" height="12" viewBox="0 0 18 12" fill="none" xmlns="http://www.w3.org/2000/svg">
<path d="M9 9.70508C9.9375 9.70508 10.7345 9.37708 11.391 8.72108C12.047 8.06458 12.375 7.26758 12.375 6.33008C12.375 5.39258 12.047 4.59558 11.391 3.93908C10.7345 3.28308 9.9375 2.95508 9 2.95508C8.0625 2.95508 7.2655 3.28308 6.609 3.93908C5.953 4.59558 5.625 5.39258 5.625 6.33008C5.625 7.26758 5.953 8.06458 6.609 8.72108C7.2655 9.37708 8.0625 9.70508 9 9.70508ZM9 8.35508C8.4375 8.35508 7.9595 8.15808 7.566 7.76408C7.172 7.37058 6.975 6.89258 6.975 6.33008C6.975 5.76758 7.172 5.28933 7.566 4.89533C7.9595 4.50183 8.4375 4.30508 9 4.30508C9.5625 4.30508 10.0408 4.50183 10.4347 4.89533C10.8282 5.28933 11.025 5.76758 11.025 6.33008C11.025 6.89258 10.8282 7.37058 10.4347 7.76408C10.0408 8.15808 9.5625 8.35508 9 8.35508ZM9 11.9551C7.175 11.9551 5.5125 11.4456 4.0125 10.4266C2.5125 9.40808 1.425 8.04258 0.75 6.33008C1.425 4.61758 2.5125 3.25183 4.0125 2.23283C5.5125 1.21433 7.175 0.705078 9 0.705078C10.825 0.705078 12.4875 1.21433 13.9875 2.23283C15.4875 3.25183 16.575 4.61758 17.25 6.33008C16.575 8.04258 15.4875 9.40808 13.9875 10.4266C12.4875 11.4456 10.825 11.9551 9 11.9551ZM9 10.4551C10.4125 10.4551 11.7095 10.0831 12.891 9.33908C14.072 8.59558 14.975 7.59258 15.6 6.33008C14.975 5.06758 14.072 4.06433 12.891 3.32033C11.7095 2.57683 10.4125 2.20508 9 2.20508C7.5875 2.20508 6.2905 2.57683 5.109 3.32033C3.928 4.06433 3.025 5.06758 2.4 6.33008C3.025 7.59258 3.928 8.59558 5.109 9.33908C6.2905 10.0831 7.5875 10.4551 9 10.4551Z" fill="#101014"/>
</svg>
