<svg width="16" height="17" viewBox="0 0 16 17" fill="none" xmlns="http://www.w3.org/2000/svg">
<mask id="mask0_93_11304" style="mask-type:alpha" maskUnits="userSpaceOnUse" x="0" y="0" width="16" height="17">
<rect y="0.5" width="16" height="16" fill="#D9D9D9"/>
</mask>
<g mask="url(#mask0_93_11304)">
<path d="M2.66683 13.8327C2.30016 13.8327 1.98639 13.7022 1.7255 13.4413C1.46416 13.18 1.3335 12.866 1.3335 12.4993V4.49935C1.3335 4.13268 1.46416 3.8189 1.7255 3.55802C1.98639 3.29668 2.30016 3.16602 2.66683 3.16602H13.3335C13.7002 3.16602 14.0142 3.29668 14.2755 3.55802C14.5364 3.8189 14.6668 4.13268 14.6668 4.49935V12.4993C14.6668 12.866 14.5364 13.18 14.2755 13.4413C14.0142 13.7022 13.7002 13.8327 13.3335 13.8327H2.66683ZM8.00016 9.16602L2.66683 5.83268V12.4993H13.3335V5.83268L8.00016 9.16602ZM8.00016 7.83268L13.3335 4.49935H2.66683L8.00016 7.83268ZM2.66683 5.83268V4.49935V12.4993V5.83268Z" fill="#1C1B1F"/>
</g>
</svg>
