<svg width="4" height="15" viewBox="0 0 4 15" fill="none" xmlns="http://www.w3.org/2000/svg">
<path d="M2 14.55C1.58333 14.55 1.22933 14.404 0.938 14.112C0.646 13.8207 0.5 13.4667 0.5 13.05C0.5 12.6333 0.646 12.279 0.938 11.987C1.22933 11.6957 1.58333 11.55 2 11.55C2.41667 11.55 2.77067 11.6957 3.062 11.987C3.354 12.279 3.5 12.6333 3.5 13.05C3.5 13.4667 3.354 13.8207 3.062 14.112C2.77067 14.404 2.41667 14.55 2 14.55ZM2 8.775C1.58333 8.775 1.22933 8.629 0.938 8.337C0.646 8.04567 0.5 7.69167 0.5 7.275C0.5 6.85833 0.646 6.50433 0.938 6.213C1.22933 5.921 1.58333 5.775 2 5.775C2.41667 5.775 2.77067 5.921 3.062 6.213C3.354 6.50433 3.5 6.85833 3.5 7.275C3.5 7.69167 3.354 8.04567 3.062 8.337C2.77067 8.629 2.41667 8.775 2 8.775ZM2 3C1.58333 3 1.22933 2.854 0.938 2.562C0.646 2.27067 0.5 1.91667 0.5 1.5C0.5 1.08333 0.646 0.729 0.938 0.437C1.22933 0.145667 1.58333 0 2 0C2.41667 0 2.77067 0.145667 3.062 0.437C3.354 0.729 3.5 1.08333 3.5 1.5C3.5 1.91667 3.354 2.27067 3.062 2.562C2.77067 2.854 2.41667 3 2 3Z" fill="#101014"/>
</svg>
