<svg width="24" height="25" viewBox="0 0 24 25" fill="none" xmlns="http://www.w3.org/2000/svg">
<mask id="mask0_2657_7500" style="mask-type:alpha" maskUnits="userSpaceOnUse" x="0" y="0" width="24" height="25">
<rect y="0.705078" width="24" height="24" fill="#D9D9D9"/>
</mask>
<g mask="url(#mask0_2657_7500)">
<path d="M3 19.7051C2.45 19.7051 1.97933 19.5094 1.588 19.1181C1.196 18.7261 1 18.2551 1 17.7051V7.70508C1 7.15508 1.196 6.68441 1.588 6.29308C1.97933 5.90108 2.45 5.70508 3 5.70508H13C13.55 5.70508 14.021 5.90108 14.413 6.29308C14.8043 6.68441 15 7.15508 15 7.70508V17.7051C15 18.2551 14.8043 18.7261 14.413 19.1181C14.021 19.5094 13.55 19.7051 13 19.7051H3ZM3 17.7051H13V7.70508H3V17.7051ZM17 19.7051V5.70508H19V19.7051H17ZM21 19.7051V5.70508H23V19.7051H21Z" fill="#FEF9EA"/>
</g>
</svg>
