<svg width="12" height="13" viewBox="0 0 12 13" fill="none" xmlns="http://www.w3.org/2000/svg">
<path d="M6 6.70508C5.175 6.70508 4.46875 6.41133 3.88125 5.82383C3.29375 5.23633 3 4.53008 3 3.70508C3 2.88008 3.29375 2.17383 3.88125 1.58633C4.46875 0.998828 5.175 0.705078 6 0.705078C6.825 0.705078 7.53125 0.998828 8.11875 1.58633C8.70625 2.17383 9 2.88008 9 3.70508C9 4.53008 8.70625 5.23633 8.11875 5.82383C7.53125 6.41133 6.825 6.70508 6 6.70508ZM0 12.7051V10.6051C0 10.1801 0.1095 9.78933 0.3285 9.43283C0.547 9.07683 0.8375 8.80508 1.2 8.61758C1.975 8.23008 2.7625 7.93933 3.5625 7.74533C4.3625 7.55183 5.175 7.45508 6 7.45508C6.825 7.45508 7.6375 7.55183 8.4375 7.74533C9.2375 7.93933 10.025 8.23008 10.8 8.61758C11.1625 8.80508 11.453 9.07683 11.6715 9.43283C11.8905 9.78933 12 10.1801 12 10.6051V12.7051H0ZM1.5 11.2051H10.5V10.6051C10.5 10.4676 10.4658 10.3426 10.3973 10.2301C10.3283 10.1176 10.2375 10.0301 10.125 9.96758C9.45 9.63008 8.76875 9.37683 8.08125 9.20783C7.39375 9.03933 6.7 8.95508 6 8.95508C5.3 8.95508 4.60625 9.03933 3.91875 9.20783C3.23125 9.37683 2.55 9.63008 1.875 9.96758C1.7625 10.0301 1.672 10.1176 1.6035 10.2301C1.5345 10.3426 1.5 10.4676 1.5 10.6051V11.2051ZM6 5.20508C6.4125 5.20508 6.76575 5.05808 7.05975 4.76408C7.35325 4.47058 7.5 4.11758 7.5 3.70508C7.5 3.29258 7.35325 2.93958 7.05975 2.64608C6.76575 2.35208 6.4125 2.20508 6 2.20508C5.5875 2.20508 5.2345 2.35208 4.941 2.64608C4.647 2.93958 4.5 3.29258 4.5 3.70508C4.5 4.11758 4.647 4.47058 4.941 4.76408C5.2345 5.05808 5.5875 5.20508 6 5.20508Z" fill="#101014"/>
</svg>
