<svg width="19" height="22" viewBox="0 0 19 22" fill="none" xmlns="http://www.w3.org/2000/svg">
<path d="M9.30389 0L17.729 1.826C18.1976 1.928 18.5319 2.333 18.5319 2.802V12.789C18.5319 14.795 17.5034 16.669 15.7922 17.781L9.30389 22L2.81561 17.781C1.10331 16.668 0.0759277 14.795 0.0759277 12.79V2.802C0.0759277 2.333 0.410185 1.928 0.87876 1.826L9.30389 0ZM9.30389 2.049L2.12659 3.604V12.789C2.12659 14.126 2.81151 15.375 3.9527 16.117L9.30389 19.597L14.6551 16.117C15.7963 15.375 16.4812 14.127 16.4812 12.79V3.604L9.30389 2.05V2.049ZM13.8687 7.222L15.3195 8.636L8.7943 15L4.44383 10.757L5.89364 9.343L8.79328 12.171L13.8687 7.221V7.222Z" fill="#09121F"/>
</svg>
