<svg width="24" height="25" viewBox="0 0 24 25" fill="none" xmlns="http://www.w3.org/2000/svg">
<mask id="mask0_2652_10966" style="mask-type:alpha" maskUnits="userSpaceOnUse" x="0" y="0" width="24" height="25">
<rect y="0.0585938" width="24" height="24" fill="#D9D9D9"/>
</mask>
<g mask="url(#mask0_2652_10966)">
<path d="M8.5 20.5586V19.0586H10.5V17.0586H4.3C3.8 17.0586 3.375 16.8836 3.025 16.5336C2.675 16.1836 2.5 15.7586 2.5 15.2586V5.35859C2.5 4.85859 2.675 4.43359 3.025 4.08359C3.375 3.73359 3.8 3.55859 4.3 3.55859H19.7C20.2 3.55859 20.625 3.73359 20.975 4.08359C21.325 4.43359 21.5 4.85859 21.5 5.35859V15.2586C21.5 15.7586 21.325 16.1836 20.975 16.5336C20.625 16.8836 20.2 17.0586 19.7 17.0586H13.5V19.0586H15.5V20.5586H8.5ZM4.3 15.5586H19.7C19.7667 15.5586 19.8333 15.5253 19.9 15.4586C19.9667 15.3919 20 15.3253 20 15.2586V5.35859C20 5.29193 19.9667 5.22526 19.9 5.15859C19.8333 5.09193 19.7667 5.05859 19.7 5.05859H4.3C4.23333 5.05859 4.16667 5.09193 4.1 5.15859C4.03333 5.22526 4 5.29193 4 5.35859V15.2586C4 15.3253 4.03333 15.3919 4.1 15.4586C4.16667 15.5253 4.23333 15.5586 4.3 15.5586Z" fill="#101014"/>
</g>
</svg>
