<svg width="16" height="17" viewBox="0 0 16 17" fill="none" xmlns="http://www.w3.org/2000/svg">
<mask id="mask0_93_11296" style="mask-type:alpha" maskUnits="userSpaceOnUse" x="0" y="0" width="16" height="17">
<rect y="0.5" width="16" height="16" fill="#D9D9D9"/>
</mask>
<g mask="url(#mask0_93_11296)">
<path d="M7.99984 15.834L3.19984 12.234C3.03317 12.1118 2.90273 11.9562 2.8085 11.7673C2.71384 11.5784 2.6665 11.3784 2.6665 11.1673V3.16732C2.6665 2.80065 2.79717 2.48665 3.0585 2.22532C3.31939 1.96443 3.63317 1.83398 3.99984 1.83398H11.9998C12.3665 1.83398 12.6805 1.96443 12.9418 2.22532C13.2027 2.48665 13.3332 2.80065 13.3332 3.16732V11.1673C13.3332 11.3784 13.2861 11.5784 13.1918 11.7673C13.0972 11.9562 12.9665 12.1118 12.7998 12.234L7.99984 15.834ZM7.99984 14.1673L11.9998 11.1673V3.16732H3.99984V11.1673L7.99984 14.1673ZM7.29984 10.5007L11.0665 6.73398L10.1332 5.76732L7.29984 8.60065L5.89984 7.20065L4.93317 8.13398L7.29984 10.5007Z" fill="#1C1B1F"/>
</g>
</svg>
