<svg width="11" height="12" viewBox="0 0 11 12" fill="none" xmlns="http://www.w3.org/2000/svg">
<path d="M4.62449 8.73L8.44721 4.485L7.82585 3.81L4.62449 7.365L3.00355 5.565L2.39569 6.24L4.62449 8.73ZM5.42145 12C4.68302 12 3.98512 11.8425 3.32773 11.5275C2.67035 11.2125 2.09627 10.7825 1.60548 10.2375C1.1147 9.6925 0.727473 9.055 0.443808 8.325C0.160143 7.595 0.0183105 6.82 0.0183105 6C0.0183105 5.17 0.160143 4.39 0.443808 3.66C0.727473 2.93 1.1147 2.295 1.60548 1.755C2.09627 1.215 2.67035 0.7875 3.32773 0.4725C3.98512 0.1575 4.68302 0 5.42145 0C6.16889 0 6.87129 0.1575 7.52868 0.4725C8.18606 0.7875 8.75789 1.215 9.24417 1.755C9.73046 2.295 10.1154 2.93 10.3991 3.66C10.6828 4.39 10.8246 5.17 10.8246 6C10.8246 6.82 10.6828 7.595 10.3991 8.325C10.1154 9.055 9.73046 9.6925 9.24417 10.2375C8.75789 10.7825 8.18606 11.2125 7.52868 11.5275C6.87129 11.8425 6.16889 12 5.42145 12ZM5.42145 11.1C6.7002 11.1 7.78533 10.6025 8.67684 9.6075C9.56836 8.6125 10.0141 7.41 10.0141 6C10.0141 4.58 9.56836 3.375 8.67684 2.385C7.78533 1.395 6.7002 0.9 5.42145 0.9C4.15171 0.9 3.06883 1.395 2.17281 2.385C1.27679 3.375 0.828782 4.58 0.828782 6C0.828782 7.41 1.27679 8.6125 2.17281 9.6075C3.06883 10.6025 4.15171 11.1 5.42145 11.1Z" fill="#FEF9EA"/>
</svg>
