<svg width="46" height="43" viewBox="0 0 46 43" fill="none" xmlns="http://www.w3.org/2000/svg">
<path d="M32.7629 25.8634C33.5911 25.8611 34.4 25.6145 35.0875 25.1547C35.7749 24.6949 36.31 24.0426 36.6252 23.2802C36.9404 22.5178 37.0215 21.6795 36.8583 20.8712C36.6951 20.063 36.2949 19.321 35.7083 18.739C35.3229 18.3533 34.8636 18.0487 34.3576 17.8432C33.8516 17.6377 33.3093 17.5355 32.7629 17.5428C32.2057 17.5311 31.6518 17.6309 31.1341 17.8364C30.6164 18.0419 30.1455 18.3488 29.7493 18.739C29.3585 19.1253 29.0484 19.5846 28.8367 20.0907C28.6251 20.5968 28.5162 21.1395 28.5162 21.6877C28.5162 22.2359 28.6251 22.7786 28.8367 23.2847C29.0484 23.7908 29.3585 24.2501 29.7493 24.6364C30.1408 25.035 30.6101 25.3495 31.1285 25.5606C31.6468 25.7716 32.203 25.8747 32.7629 25.8634ZM4.13423 42.7037C3.64596 42.7133 3.16077 42.6246 2.70776 42.443C2.25475 42.2614 1.84325 41.9906 1.49792 41.6468C1.1526 41.3031 0.880562 40.8934 0.698132 40.4425C0.515702 39.9915 0.426633 39.5085 0.436265 39.0225V4.38756C0.426544 3.9014 0.515569 3.41829 0.697999 2.96722C0.880429 2.51614 1.15251 2.1064 1.49791 1.76256C1.84331 1.41873 2.25492 1.14788 2.70805 0.966279C3.16118 0.784676 3.64649 0.696055 4.13486 0.705732H38.9275C39.4158 0.696055 39.9011 0.784676 40.3543 0.966279C40.8074 1.14788 41.219 1.41873 41.5644 1.76256C41.9098 2.1064 42.1819 2.51614 42.3643 2.96722C42.5468 3.41829 42.6358 3.9014 42.6261 4.38756V13.4536H41.1189V4.38756C41.1304 4.09802 41.0816 3.80924 40.9755 3.5394C40.8694 3.26955 40.7084 3.02447 40.5026 2.81957C40.2968 2.61467 40.0506 2.45439 39.7795 2.3488C39.5084 2.24322 39.2183 2.19461 38.9275 2.20604H4.13486C3.844 2.19461 3.55391 2.24322 3.28283 2.3488C3.01176 2.45439 2.76556 2.61467 2.55973 2.81957C2.3539 3.02447 2.19289 3.26955 2.08682 3.5394C1.98075 3.80924 1.93192 4.09802 1.9434 4.38756V39.0225C1.93192 39.312 1.98075 39.6008 2.08682 39.8706C2.19289 40.1405 2.3539 40.3856 2.55973 40.5905C2.76556 40.7954 3.01176 40.9556 3.28283 41.0612C3.55391 41.1668 3.844 41.2154 4.13486 41.204H38.9275C39.2183 41.2154 39.5084 41.1668 39.7795 41.0612C40.0506 40.9556 40.2968 40.7954 40.5026 40.5905C40.7084 40.3856 40.8694 40.1405 40.9755 39.8706C41.0816 39.6008 41.1304 39.312 41.1189 39.0225V29.9564H42.6254V39.0225C42.6352 39.5086 42.5461 39.9917 42.3637 40.4428C42.1813 40.8939 41.9092 41.3036 41.5638 41.6475C41.2184 41.9913 40.8068 42.2622 40.3536 42.4438C39.9005 42.6254 39.4152 42.714 38.9268 42.7043L4.13423 42.7037ZM26.8039 31.5222C26.2814 31.5381 25.7609 31.4498 25.2731 31.2626C24.7853 31.0753 24.3401 30.7928 23.9636 30.4317C23.5855 30.059 23.2897 29.6118 23.0951 29.1187C22.9005 28.6257 22.8114 28.0976 22.8334 27.5684V15.8417C22.8113 15.3123 22.9004 14.7841 23.095 14.291C23.2896 13.7978 23.5854 13.3505 23.9636 12.9777C24.3403 12.6163 24.7858 12.3335 25.2739 12.1461C25.7621 11.9588 26.2829 11.8705 26.8058 11.8866H41.3928C41.9263 11.8663 42.4585 11.9524 42.9581 12.1398C43.4577 12.3271 43.9146 12.612 44.3021 12.9777C44.6801 13.3504 44.9759 13.7976 45.1705 14.2907C45.3652 14.7837 45.4543 15.3118 45.4323 15.841V27.5684C45.4543 28.0976 45.3652 28.6257 45.1705 29.1187C44.9759 29.6118 44.6801 30.059 44.3021 30.4317C43.9146 30.7974 43.4577 31.0823 42.9581 31.2696C42.4585 31.457 41.9263 31.5431 41.3928 31.5228L26.8039 31.5222ZM41.7356 30.0225C42.0204 30.0261 42.3032 29.9738 42.5676 29.8684C42.8321 29.7631 43.0731 29.6069 43.2769 29.4087C43.4905 29.2081 43.659 28.9646 43.7711 28.6943C43.8832 28.4241 43.9363 28.1332 43.927 27.841V15.5684C43.919 14.9923 43.6856 14.4421 43.2763 14.0347C42.8671 13.6273 42.3143 13.3949 41.7356 13.3869H26.5307C25.952 13.3949 25.3992 13.6273 24.99 14.0347C24.5807 14.4421 24.3473 14.9923 24.3393 15.5684V27.841C24.33 28.1334 24.3832 28.4244 24.4954 28.6947C24.6076 28.9651 24.7762 29.2087 24.9901 29.4093C25.1938 29.6075 25.4348 29.7637 25.6993 29.8691C25.9638 29.9744 26.2465 30.0268 26.5314 30.0231L41.7356 30.0225Z" fill="#18363B"/>
</svg>
