<svg width="13" height="13" viewBox="0 0 13 13" fill="none" xmlns="http://www.w3.org/2000/svg">
<path d="M8.15 10.4837L9.31667 9.31699L10.4833 10.4837L10.9833 9.98366L9.83333 8.83366L11 7.66699L10.5 7.16699L9.33333 8.33366L8.16667 7.16699L7.66667 7.66699L8.83333 8.83366L7.66667 10.0003L8.15 10.4837ZM0 10.8337V0.166992L9.53333 4.16699H9.33333C8.94444 4.16699 8.57778 4.21144 8.23333 4.30033C7.88889 4.38921 7.55556 4.51144 7.23333 4.66699L1.33333 2.16699V4.50033L5.33333 5.50033L1.33333 6.50033V8.83366L4.93333 7.30033C4.84444 7.55588 4.77778 7.80855 4.73333 8.05833C4.68889 8.30855 4.66667 8.56699 4.66667 8.83366V8.86699L0 10.8337ZM9.33333 12.167C8.41111 12.167 7.62511 11.8421 6.97533 11.1923C6.32511 10.5421 6 9.75588 6 8.83366C6 7.91144 6.32511 7.12521 6.97533 6.47499C7.62511 5.82521 8.41111 5.50033 9.33333 5.50033C10.2556 5.50033 11.0418 5.82521 11.692 6.47499C12.3418 7.12521 12.6667 7.91144 12.6667 8.83366C12.6667 9.75588 12.3418 10.5421 11.692 11.1923C11.0418 11.8421 10.2556 12.167 9.33333 12.167Z" fill="#101014"/>
</svg>
