<svg width="24" height="25" viewBox="0 0 24 25" fill="none" xmlns="http://www.w3.org/2000/svg">
<path d="M11.2662 20.267V16.5749L8.40161 19.4395C8.14424 19.6968 7.7278 19.6991 7.46775 19.4448L7.45748 19.435C7.19296 19.1763 7.19028 18.7518 7.45212 18.49L11.2662 14.6759V12.6652H9.25548L5.50889 16.4118C5.25599 16.6647 4.84805 16.6719 4.58621 16.4279L4.57593 16.4185C4.30069 16.162 4.2931 15.7286 4.55896 15.4628L7.3565 12.6652H3.66442C3.29758 12.6652 3 12.3676 3 12.0008V11.9892C3 11.6219 3.29758 11.3248 3.66442 11.3248H7.3565L4.47495 8.44322C4.2158 8.18407 4.2158 7.76316 4.47495 7.50356L4.49506 7.4839C4.75511 7.22385 5.17646 7.2243 5.43562 7.48524L9.25548 11.3248H11.2662V9.29173L7.52495 5.55051C7.26981 5.29538 7.2649 4.88296 7.51422 4.62202L7.53344 4.60191C7.79125 4.33158 8.22154 4.32756 8.48516 4.59253L11.2662 7.39275V3.72302C11.2662 3.35573 11.5638 3.05859 11.9306 3.05859H11.9422C12.309 3.05859 12.6066 3.35573 12.6066 3.72302V7.39275L15.4824 4.51701C15.7442 4.25518 16.1691 4.25786 16.4274 4.52238L16.4372 4.53265C16.6915 4.7927 16.6892 5.20914 16.4319 5.46651L12.6066 9.29173V11.3248H14.6397L18.3979 7.56656C18.6552 7.30919 19.0717 7.30696 19.3317 7.5612L19.342 7.57103C19.6065 7.82929 19.6092 8.25422 19.3474 8.51605L16.5386 11.3248H20.2084C20.5752 11.3248 20.8728 11.6219 20.8728 11.9892V12.0008C20.8728 12.3676 20.5752 12.6652 20.2084 12.6652H16.5386L19.3894 15.5352C19.6432 15.7907 19.6472 16.2014 19.3992 16.4619L19.3987 16.4623C19.1414 16.7322 18.712 16.7375 18.4479 16.4735L14.6397 12.6652H12.6066V14.6759L16.4399 18.5288C16.6937 18.7844 16.6982 19.1955 16.4497 19.456C16.1924 19.7259 15.763 19.7312 15.4989 19.4672L12.6066 16.5749V20.267C12.6066 20.6338 12.309 20.9314 11.9422 20.9314H11.9306C11.5638 20.9314 11.2662 20.6338 11.2662 20.267Z" fill="#101014"/>
</svg>
