<svg width="31" height="23" viewBox="0 0 31 23" fill="none" xmlns="http://www.w3.org/2000/svg">
<path d="M26.1561 1.92624C24.2328 1.02637 22.1763 0.372385 20.0263 0C19.7623 0.477384 19.4538 1.11948 19.2411 1.63026C16.9556 1.28655 14.6911 1.28655 12.4476 1.63026C12.235 1.11948 11.9195 0.477384 11.6531 0C9.50076 0.372385 7.44191 1.02877 5.51861 1.931C1.63929 7.79316 0.587666 13.5097 1.11348 19.1451C3.68645 21.0665 6.17996 22.2337 8.6314 22.9975C9.23668 22.1645 9.7765 21.279 10.2415 20.3457C9.35585 20.0092 8.50754 19.5939 7.706 19.1117C7.91864 18.9542 8.12665 18.7895 8.3276 18.62C13.2165 20.9066 18.5283 20.9066 23.3588 18.62C23.5621 18.7895 23.7701 18.9542 23.9804 19.1117C23.1765 19.5962 22.3259 20.0115 21.4402 20.3481C21.9052 21.279 22.4427 22.1669 23.0503 22.9999C25.5041 22.2361 27.9999 21.0689 30.5729 19.1451C31.1899 12.6123 29.519 6.9482 26.1561 1.92624ZM10.9076 15.6794C9.43999 15.6794 8.23645 14.3093 8.23645 12.6409C8.23645 10.9725 9.41429 9.60002 10.9076 9.60002C12.4009 9.60002 13.6044 10.9701 13.5787 12.6409C13.581 14.3093 12.4009 15.6794 10.9076 15.6794ZM20.7788 15.6794C19.3112 15.6794 18.1077 14.3093 18.1077 12.6409C18.1077 10.9725 19.2855 9.60002 20.7788 9.60002C22.2721 9.60002 23.4756 10.9701 23.4499 12.6409C23.4499 14.3093 22.2721 15.6794 20.7788 15.6794Z" fill="#18363B"/>
</svg>
