<svg width="9" height="9" viewBox="0 0 9 9" fill="none" xmlns="http://www.w3.org/2000/svg">
<path d="M4.07291 8.8575C3.88784 8.8575 3.73294 8.79514 3.60821 8.67041C3.48348 8.54569 3.42112 8.39078 3.42112 8.20571V5.3692L0.572549 1.72399C0.419659 1.53087 0.397531 1.32568 0.506162 1.10841C0.614795 0.891149 0.789813 0.782516 1.03122 0.782516H8.08023C8.32163 0.782516 8.49665 0.891149 8.60529 1.10841C8.71392 1.32568 8.69179 1.53087 8.5389 1.72399L5.70239 5.3692V8.26606C5.70239 8.43504 5.64406 8.57586 5.52738 8.68852C5.4107 8.80117 5.26787 8.8575 5.09888 8.8575H4.07291ZM4.55572 5.26057L7.31981 1.74813H1.79164L4.55572 5.26057Z" fill="black"/>
</svg>
