<svg width="31" height="37" viewBox="0 0 31 37" fill="none" xmlns="http://www.w3.org/2000/svg">
<path d="M8.004 33.824H22.9963V28.0191C22.9963 25.886 22.2725 24.0501 20.8251 22.5112C19.3777 20.9724 17.6027 20.203 15.5001 20.203C13.3975 20.203 11.6226 20.9724 10.1751 22.5112C8.72771 24.0501 8.004 25.886 8.004 28.0191V33.824ZM0.873535 36.5665V33.824H5.26151V28.0191C5.26151 25.886 5.81763 23.9282 6.92986 22.1456C8.04209 20.363 9.58854 19.0755 11.5692 18.2832C9.58854 17.491 8.04209 16.1959 6.92986 14.398C5.81763 12.6002 5.26151 10.6347 5.26151 8.5017V2.74249H0.873535V0H30.1267V2.74249H25.7387V8.5017C25.7387 10.6347 25.1826 12.6002 24.0704 14.398C22.9582 16.1959 21.4117 17.491 19.431 18.2832C21.4117 19.0755 22.9582 20.3629 24.0704 22.1456C25.1826 23.9282 25.7387 25.886 25.7387 28.0191V33.824H30.1267V36.5665H0.873535Z" fill="black"/>
</svg>
