<svg width="24" height="25" viewBox="0 0 24 25" fill="none" xmlns="http://www.w3.org/2000/svg">
<mask id="mask0_2657_7508" style="mask-type:alpha" maskUnits="userSpaceOnUse" x="0" y="0" width="24" height="25">
<rect y="0.705078" width="24" height="24" fill="#D9D9D9"/>
</mask>
<g mask="url(#mask0_2657_7508)">
<path d="M13 18.2051L16.5 14.7051C16.6833 14.5217 16.8293 14.3051 16.938 14.0551C17.046 13.8051 17.1 13.5384 17.1 13.2551C17.1 12.6884 16.9 12.2051 16.5 11.8051C16.1 11.4051 15.6167 11.2051 15.05 11.2051C14.7333 11.2051 14.421 11.2967 14.113 11.4801C13.8043 11.6634 13.4333 11.9717 13 12.4051C12.5 11.9384 12.1083 11.6217 11.825 11.4551C11.5417 11.2884 11.25 11.2051 10.95 11.2051C10.3833 11.2051 9.9 11.4051 9.5 11.8051C9.1 12.2051 8.9 12.6884 8.9 13.2551C8.9 13.5384 8.954 13.8051 9.062 14.0551C9.17067 14.3051 9.31667 14.5217 9.5 14.7051L13 18.2051ZM14.25 22.1051C13.8667 22.4884 13.3917 22.6801 12.825 22.6801C12.2583 22.6801 11.7833 22.4884 11.4 22.1051L2.6 13.3051C2.41667 13.1217 2.271 12.9051 2.163 12.6551C2.05433 12.4051 2 12.1384 2 11.8551V4.70508C2 4.15508 2.196 3.68408 2.588 3.29208C2.97933 2.90074 3.45 2.70508 4 2.70508H11.15C11.4333 2.70508 11.7 2.75908 11.95 2.86708C12.2 2.97574 12.4167 3.12174 12.6 3.30508L21.4 12.1301C21.7833 12.5134 21.975 12.9841 21.975 13.5421C21.975 14.1007 21.7833 14.5717 21.4 14.9551L14.25 22.1051ZM12.825 20.7051L19.975 13.5551L11.15 4.70508H4V11.8551L12.825 20.7051ZM6.5 8.70508C6.91667 8.70508 7.27067 8.55908 7.562 8.26708C7.854 7.97574 8 7.62174 8 7.20508C8 6.78841 7.854 6.43441 7.562 6.14308C7.27067 5.85108 6.91667 5.70508 6.5 5.70508C6.08333 5.70508 5.72933 5.85108 5.438 6.14308C5.146 6.43441 5 6.78841 5 7.20508C5 7.62174 5.146 7.97574 5.438 8.26708C5.72933 8.55908 6.08333 8.70508 6.5 8.70508Z" fill="#FEF9EA"/>
</g>
</svg>
