<svg width="24" height="25" viewBox="0 0 24 25" fill="none" xmlns="http://www.w3.org/2000/svg">
<mask id="mask0_2657_4492" style="mask-type:alpha" maskUnits="userSpaceOnUse" x="0" y="0" width="24" height="25">
<rect y="0.705078" width="24" height="24" fill="#D9D9D9"/>
</mask>
<g mask="url(#mask0_2657_4492)">
<path d="M3 10.7051V4.70508H5V7.05508C5.85 5.98841 6.88767 5.16341 8.113 4.58008C9.33767 3.99674 10.6333 3.70508 12 3.70508C14.5 3.70508 16.625 4.58008 18.375 6.33008C20.125 8.08008 21 10.2051 21 12.7051H19C19 10.7551 18.3207 9.10074 16.962 7.74208C15.604 6.38408 13.95 5.70508 12 5.70508C10.85 5.70508 9.775 5.97174 8.775 6.50508C7.775 7.03841 6.93333 7.77174 6.25 8.70508H9V10.7051H3ZM3.05 13.7051H5.1C5.3 15.2551 5.93767 16.5677 7.013 17.6431C8.08767 18.7177 9.375 19.3717 10.875 19.6051L12.075 21.7051C9.775 21.7051 7.75833 20.9424 6.025 19.4171C4.29167 17.8924 3.3 15.9884 3.05 13.7051ZM13.35 15.4551L11 13.1051V7.70508H13V12.3051L14.4 13.7051L13.35 15.4551ZM17.975 24.7051L17.675 23.2051C17.475 23.1217 17.2877 23.0344 17.113 22.9431C16.9377 22.8511 16.7583 22.7384 16.575 22.6051L15.125 23.0551L14.125 21.3551L15.275 20.3551C15.2417 20.1384 15.225 19.9217 15.225 19.7051C15.225 19.4884 15.2417 19.2717 15.275 19.0551L14.125 18.0551L15.125 16.3551L16.575 16.8051C16.7583 16.6717 16.9377 16.5591 17.113 16.4671C17.2877 16.3757 17.475 16.2884 17.675 16.2051L17.975 14.7051H19.975L20.275 16.2051C20.475 16.2884 20.6667 16.3841 20.85 16.4921C21.0333 16.6007 21.2083 16.7217 21.375 16.8551L22.825 16.3551L23.825 18.1051L22.675 19.1051C22.7083 19.3217 22.725 19.5301 22.725 19.7301C22.725 19.9301 22.7083 20.1384 22.675 20.3551L23.825 21.3551L22.825 23.0551L21.375 22.6051C21.1917 22.7384 21.0127 22.8511 20.838 22.9431C20.6627 23.0344 20.475 23.1217 20.275 23.2051L19.975 24.7051H17.975ZM18.975 21.7051C19.525 21.7051 19.996 21.5094 20.388 21.1181C20.7793 20.7261 20.975 20.2551 20.975 19.7051C20.975 19.1551 20.7793 18.6841 20.388 18.2921C19.996 17.9007 19.525 17.7051 18.975 17.7051C18.425 17.7051 17.954 17.9007 17.562 18.2921C17.1707 18.6841 16.975 19.1551 16.975 19.7051C16.975 20.2551 17.1707 20.7261 17.562 21.1181C17.954 21.5094 18.425 21.7051 18.975 21.7051Z" fill="#FEF9EA"/>
</g>
</svg>
