<svg width="24" height="25" viewBox="0 0 24 25" fill="none" xmlns="http://www.w3.org/2000/svg">
<mask id="mask0_2657_2521" style="mask-type:alpha" maskUnits="userSpaceOnUse" x="0" y="0" width="24" height="25">
<rect y="0.705078" width="24" height="24" fill="#D9D9D9"/>
</mask>
<g mask="url(#mask0_2657_2521)">
<path d="M2 19.7051V17.7051H12V19.7051H2ZM2 14.7051V12.7051H7V14.7051H2ZM2 9.70508V7.70508H7V9.70508H2ZM20.6 19.7051L16.75 15.8551C16.35 16.1384 15.9127 16.3507 15.438 16.4921C14.9627 16.6341 14.4833 16.7051 14 16.7051C12.6167 16.7051 11.4377 16.2174 10.463 15.2421C9.48767 14.2674 9 13.0884 9 11.7051C9 10.3217 9.48767 9.14241 10.463 8.16708C11.4377 7.19241 12.6167 6.70508 14 6.70508C15.3833 6.70508 16.5627 7.19241 17.538 8.16708C18.5127 9.14241 19 10.3217 19 11.7051C19 12.1884 18.9293 12.6677 18.788 13.1431C18.646 13.6177 18.4333 14.0551 18.15 14.4551L22 18.3051L20.6 19.7051ZM14 14.7051C14.8333 14.7051 15.5417 14.4134 16.125 13.8301C16.7083 13.2467 17 12.5384 17 11.7051C17 10.8717 16.7083 10.1634 16.125 9.58008C15.5417 8.99674 14.8333 8.70508 14 8.70508C13.1667 8.70508 12.4583 8.99674 11.875 9.58008C11.2917 10.1634 11 10.8717 11 11.7051C11 12.5384 11.2917 13.2467 11.875 13.8301C12.4583 14.4134 13.1667 14.7051 14 14.7051Z" fill="white"/>
</g>
</svg>
