<svg width="19" height="19" viewBox="0 0 19 19" fill="none" xmlns="http://www.w3.org/2000/svg">
<g id="nights">
<path id="sleep_FILL1_wght400_GRAD0_opsz48" d="M9.55899 16.57C8.61517 16.57 7.73034 16.39 6.90449 16.03C6.07865 15.67 5.35955 15.1834 4.74719 14.5703C4.13483 13.9572 3.64888 13.2372 3.28933 12.4103C2.92977 11.5834 2.75 10.6975 2.75 9.75251C2.75 8.11001 3.27247 6.66157 4.31742 5.40719C5.36236 4.15282 6.69382 3.37376 8.3118 3.07001C8.10955 4.17251 8.17135 5.25532 8.49719 6.31844C8.82303 7.38157 9.38483 8.31251 10.1826 9.11126C10.9803 9.91001 11.9101 10.4753 12.9719 10.8072C14.0337 11.1391 15.1208 11.2038 16.2331 11.0013C15.941 12.6213 15.1657 13.9544 13.9073 15.0006C12.6489 16.0469 11.1994 16.57 9.55899 16.57ZM13.9579 7.66001L13.25 6.07376L11.6657 5.36501L13.25 4.65626L13.9579 3.07001L14.6657 4.65626L16.25 5.36501L14.6657 6.07376L13.9579 7.66001Z" fill="black"/>
</g>
</svg>
