<svg width="38" height="23" viewBox="0 0 38 23" fill="none" xmlns="http://www.w3.org/2000/svg">
<path d="M35.4765 1.7374H32.4848C32.4908 1.67954 32.4878 1.64417 32.4986 1.61364C32.6685 1.13191 32.8423 0.651557 33.0099 0.169047C33.047 0.0624081 33.0938 0.00212676 33.221 0.00247271C34.7617 0.00610516 36.3023 0.00480785 37.8429 0.00575921C37.8771 0.00575921 37.9112 0.0166566 37.9675 0.0262566C37.9237 0.159706 37.8871 0.282258 37.8436 0.402302C36.7725 3.35894 35.7007 6.31532 34.6288 9.27171C33.5669 12.2002 32.5045 15.1287 31.4429 18.0574C30.8961 19.5655 30.3506 21.074 29.8041 22.5822C29.7376 22.7657 29.7365 22.7663 29.4986 22.7663C26.8204 22.7669 24.1424 22.767 21.4642 22.7672C14.4305 22.7676 7.39676 22.768 0.363039 22.7684H0.0322266C0.0625835 22.6683 0.0808322 22.5946 0.106951 22.5238C1.27945 19.3439 2.45291 16.1642 3.62567 12.9843C4.69361 10.0886 5.76069 7.19265 6.82828 4.29681C7.33337 2.92677 7.84061 1.55751 8.34076 0.185652C8.39145 0.046581 8.46185 -0.016295 8.60749 0.00359704C8.64987 0.00939166 8.69372 0.0044619 8.73696 0.0044619H27.9374H28.2291C28.2206 0.0605054 28.2206 0.0956191 28.2097 0.126841C28.0402 0.608746 27.8658 1.08892 27.7014 1.57247C27.6596 1.69528 27.5964 1.75115 27.4668 1.73662C27.4029 1.72944 27.3374 1.7355 27.2727 1.7355C21.5204 1.7355 15.7682 1.7355 10.0159 1.73558C9.95115 1.73558 9.88577 1.74112 9.82168 1.73455C9.69325 1.7214 9.63054 1.77692 9.58618 1.89844C9.18228 3.00677 8.77234 4.11294 8.36403 5.21971C7.53229 7.47399 6.70045 9.72819 5.86854 11.9825C5.06386 14.1629 4.25893 16.3433 3.45408 18.5238C3.17006 19.2934 2.88586 20.063 2.60262 20.8328C2.581 20.8917 2.56586 20.9529 2.53818 21.0447H2.79583C11.2766 21.0452 19.7574 21.0457 28.2381 21.046C28.4991 21.0461 28.4973 21.0448 28.586 20.8004C29.5103 18.251 30.4363 15.702 31.3599 13.1523C32.1147 11.0686 32.8668 8.98396 33.6205 6.89989C34.2151 5.25543 34.8103 3.61123 35.4048 1.96668C35.4286 1.90086 35.4467 1.83305 35.4765 1.7374Z" fill="#18363B"/>
<path d="M20.149 8.93073C20.8094 8.9245 21.3041 8.64238 21.6505 8.0944C21.9304 7.65159 22.1143 7.17081 22.1892 6.65094C22.2504 6.22602 22.0493 5.93569 21.6331 5.84306C21.577 5.83052 21.5204 5.81807 21.4634 5.81219C20.7296 5.73711 20.1103 5.91969 19.6989 6.58573C19.4738 6.95009 19.308 7.33885 19.2062 7.75278C19.1672 7.91131 19.154 8.07953 19.1536 8.24342C19.1531 8.53168 19.3033 8.73856 19.5816 8.82115C19.7654 8.87572 19.9595 8.89544 20.149 8.93073Z" fill="#18363B"/>
<path d="M17.3039 17.0019C17.9696 17.0032 18.4694 16.7212 18.8197 16.1641C19.067 15.7705 19.2313 15.3436 19.3254 14.8894C19.3442 14.7983 19.36 14.705 19.3623 14.6124C19.3702 14.2742 19.2162 14.0369 18.8893 13.9541C18.663 13.8967 18.4205 13.8668 18.1879 13.8781C17.6763 13.9027 17.2445 14.1013 16.9414 14.5392C16.6847 14.91 16.5011 15.313 16.3884 15.7472C16.3437 15.9195 16.311 16.0994 16.3064 16.2767C16.2976 16.6172 16.4648 16.8334 16.796 16.9203C16.961 16.9636 17.1343 16.9756 17.3039 17.0019Z" fill="#18363B"/>
<path d="M16.7659 4.12576C16.5493 4.71967 16.3384 5.29749 16.1204 5.89503C15.9753 5.84418 15.8574 5.79401 15.7347 5.7614C15.0772 5.58644 14.4137 5.46363 13.731 5.58601C13.5843 5.6123 13.4349 5.65209 13.3018 5.7166C13.1928 5.76945 13.1044 5.87366 13.1201 6.01179C13.1345 6.13728 13.2433 6.18398 13.3474 6.21616C13.6015 6.29451 13.8601 6.35851 14.1125 6.44171C14.3986 6.53598 14.6941 6.61676 14.9603 6.75281C15.6661 7.11363 15.738 7.52132 15.628 8.15675C15.442 9.231 14.7791 9.93907 13.8155 10.3904C13.2406 10.6596 12.6269 10.759 11.9983 10.8124C11.4133 10.8622 10.8345 10.8336 10.2556 10.7604C9.81763 10.7052 9.40215 10.5757 8.97559 10.3583C9.19225 9.76878 9.40378 9.19294 9.62183 8.59948C9.77335 8.66408 9.90515 8.71744 10.0347 8.77591C10.5397 9.00389 11.0746 9.12376 11.6223 9.14659C11.9414 9.15991 12.2658 9.09911 12.5841 9.04808C12.6882 9.03139 12.7989 8.95805 12.8744 8.8796C13.0522 8.69504 13.0016 8.47692 12.7642 8.3836C12.4966 8.27852 12.2211 8.1935 11.9523 8.09119C11.6703 7.98386 11.3836 7.88379 11.1143 7.74982C10.5052 7.44677 10.365 7.01677 10.494 6.40945C10.7599 5.1579 11.5643 4.41143 12.7695 4.06358C13.2555 3.92339 13.7523 3.85921 14.2585 3.83828C14.9893 3.8081 15.7072 3.90064 16.4242 4.01878C16.4948 4.03037 16.5644 4.05035 16.6335 4.06989C16.6674 4.07949 16.699 4.09714 16.7659 4.12576Z" fill="#18363B"/>
<path d="M14.2741 12.3271C14.0002 12.6927 13.7394 13.0354 13.4853 13.383C13.3921 13.5104 13.3137 13.6488 13.2301 13.7832C13.1085 13.9785 13.1088 13.9651 12.8836 13.9333C12.4718 13.8751 12.0569 13.7948 11.6437 13.7972C10.3417 13.8048 9.52717 14.5433 9.18702 15.6817C8.98395 16.3614 9.32626 16.8345 10.039 16.8907C10.871 16.9562 11.6798 16.89 12.4155 16.4403C12.4561 16.4155 12.5047 16.404 12.5793 16.3747C12.5793 16.5319 12.5821 16.6651 12.5789 16.7982C12.568 17.2438 12.5537 17.6894 12.5435 18.1351C12.5386 18.3514 12.5419 18.3527 12.3373 18.4219C11.7075 18.6347 11.0637 18.7682 10.3972 18.8061C9.71908 18.8446 9.04527 18.819 8.37846 18.7023C8.11233 18.6557 7.8476 18.5639 7.60077 18.4517C6.87462 18.1218 6.49746 17.4503 6.59129 16.6204C6.68107 15.8271 6.8959 15.0636 7.33638 14.3874C8.17711 13.0966 9.34685 12.291 10.8842 12.0581C11.9804 11.892 13.0643 11.9479 14.1289 12.2742C14.1762 12.2887 14.222 12.308 14.2741 12.3271Z" fill="#18363B"/>
<path d="M21.7637 18.5264C21.7904 18.4356 21.8054 18.3733 21.8269 18.3136C22.5541 16.2974 23.2819 14.2814 24.0094 12.2654C24.0802 12.0692 24.1514 11.8731 24.2186 11.6757C24.2498 11.584 24.2982 11.5345 24.4046 11.5352C25.0379 11.5392 25.6712 11.5378 26.3044 11.5395C26.3318 11.5396 26.3593 11.5515 26.421 11.5659C25.8174 13.2498 25.2169 14.9244 24.6138 16.6068C24.7897 16.7014 24.9624 16.6591 25.1307 16.6599C25.9145 16.6636 26.6983 16.6678 27.4821 16.673C27.5021 16.6731 27.5219 16.687 27.5524 16.6984C27.5432 16.7466 27.5401 16.796 27.5244 16.841C27.351 17.3366 27.1767 17.8319 27.0005 18.3265C26.9257 18.5365 26.9233 18.538 26.7113 18.5381C25.1281 18.539 23.5449 18.539 21.9617 18.5386C21.9053 18.5386 21.8488 18.5319 21.7637 18.5264Z" fill="#18363B"/>
<path d="M30.9647 6.4969C30.9389 6.57785 30.9199 6.64454 30.8965 6.70966C30.7394 7.14988 30.5764 7.58802 30.4267 8.03074C30.3797 8.16964 30.3101 8.21764 30.1625 8.21713C28.6947 8.21185 27.2271 8.21409 25.7593 8.2134C25.696 8.2134 25.6327 8.20528 25.5459 8.1994C25.5653 8.12216 25.5756 8.0605 25.5964 8.00264C25.7571 7.5561 25.9236 7.11157 26.0796 6.66348C26.1233 6.53797 26.1827 6.48004 26.3245 6.48047C27.821 6.48496 29.3176 6.48315 30.8141 6.48367C30.856 6.48376 30.8978 6.49085 30.9647 6.4969Z" fill="#18363B"/>
</svg>
