<svg width="19" height="19" viewBox="0 0 19 19" fill="none" xmlns="http://www.w3.org/2000/svg">
<path d="M17.2035 18.2051L10.9035 11.9051C10.4035 12.3051 9.82852 12.6218 9.17852 12.8551C8.52852 13.0884 7.83685 13.2051 7.10352 13.2051C5.28685 13.2051 3.74952 12.5761 2.49152 11.3181C1.23285 10.0594 0.603516 8.52178 0.603516 6.70511C0.603516 4.88844 1.23285 3.35078 2.49152 2.09211C3.74952 0.834109 5.28685 0.205109 7.10352 0.205109C8.92018 0.205109 10.4578 0.834109 11.7165 2.09211C12.9745 3.35078 13.6035 4.88844 13.6035 6.70511C13.6035 7.43844 13.4868 8.13011 13.2535 8.78011C13.0202 9.43011 12.7035 10.0051 12.3035 10.5051L18.6035 16.8051L17.2035 18.2051ZM7.10352 11.2051C8.35352 11.2051 9.41618 10.7678 10.2915 9.89311C11.1662 9.01777 11.6035 7.95511 11.6035 6.70511C11.6035 5.45511 11.1662 4.39244 10.2915 3.51711C9.41618 2.64244 8.35352 2.20511 7.10352 2.20511C5.85352 2.20511 4.79085 2.64244 3.91552 3.51711C3.04085 4.39244 2.60352 5.45511 2.60352 6.70511C2.60352 7.95511 3.04085 9.01777 3.91552 9.89311C4.79085 10.7678 5.85352 11.2051 7.10352 11.2051Z" fill="#FEF9EA"/>
</svg>
