<svg width="9" height="9" viewBox="0 0 9 9" fill="none" xmlns="http://www.w3.org/2000/svg">
<path d="M5.42393 7.79416C5.25932 7.95877 5.06091 8.04107 4.82869 8.04107C4.59647 8.04107 4.39806 7.95877 4.23345 7.79416L0.926572 4.48728C0.838388 4.3991 0.77666 4.30503 0.741387 4.20509C0.706113 4.10515 0.688477 3.99933 0.688477 3.88763V1.20685C0.688477 0.971697 0.767842 0.773284 0.926572 0.611615C1.0853 0.449945 1.28225 0.36911 1.5174 0.36911H4.19818C4.30988 0.36911 4.41864 0.388217 4.52446 0.426429C4.63028 0.464642 4.72728 0.52784 4.81546 0.616024L8.10471 3.89645C8.2752 4.06694 8.36044 4.26976 8.36044 4.50492C8.36044 4.74007 8.2752 4.94289 8.10471 5.11338L5.42393 7.79416ZM2.44333 2.58252C2.56679 2.58252 2.67407 2.53695 2.7652 2.44583C2.85632 2.35471 2.90188 2.24742 2.90188 2.12396C2.90188 2.0005 2.85632 1.89321 2.7652 1.80209C2.67407 1.71097 2.56679 1.66541 2.44333 1.66541C2.31987 1.66541 2.21258 1.71097 2.12146 1.80209C2.03034 1.89321 1.98477 2.0005 1.98477 2.12396C1.98477 2.24742 2.03034 2.35471 2.12146 2.44583C2.21258 2.53695 2.31987 2.58252 2.44333 2.58252Z" fill="#868686"/>
</svg>
