<svg width="28" height="28" viewBox="0 0 28 28" fill="none" xmlns="http://www.w3.org/2000/svg">
<path d="M5.39984 21.4998C6.79984 20.5221 8.18873 19.7721 9.5665 19.2498C10.9443 18.7276 12.4221 18.4665 13.9998 18.4665C15.5776 18.4665 17.0609 18.7276 18.4498 19.2498C19.8387 19.7721 21.2332 20.5221 22.6332 21.4998C23.611 20.2998 24.3054 19.0887 24.7165 17.8665C25.1276 16.6443 25.3332 15.3554 25.3332 13.9998C25.3332 10.7776 24.2498 8.08317 22.0832 5.9165C19.9165 3.74984 17.2221 2.6665 13.9998 2.6665C10.7776 2.6665 8.08317 3.74984 5.9165 5.9165C3.74984 8.08317 2.6665 10.7776 2.6665 13.9998C2.6665 15.3554 2.87762 16.6443 3.29984 17.8665C3.72206 19.0887 4.42206 20.2998 5.39984 21.4998ZM13.9998 14.9998C12.7109 14.9998 11.6276 14.5609 10.7498 13.6832C9.87206 12.8054 9.43317 11.7221 9.43317 10.4332C9.43317 9.14428 9.87206 8.06095 10.7498 7.18317C11.6276 6.30539 12.7109 5.8665 13.9998 5.8665C15.2887 5.8665 16.3721 6.30539 17.2498 7.18317C18.1276 8.06095 18.5665 9.14428 18.5665 10.4332C18.5665 11.7221 18.1276 12.8054 17.2498 13.6832C16.3721 14.5609 15.2887 14.9998 13.9998 14.9998ZM13.9998 27.3332C12.1776 27.3332 10.4554 26.9832 8.83317 26.2832C7.21095 25.5832 5.79428 24.6276 4.58317 23.4165C3.37206 22.2054 2.4165 20.7887 1.7165 19.1665C1.0165 17.5443 0.666504 15.8221 0.666504 13.9998C0.666504 12.1554 1.0165 10.4276 1.7165 8.8165C2.4165 7.20539 3.37206 5.79428 4.58317 4.58317C5.79428 3.37206 7.21095 2.4165 8.83317 1.7165C10.4554 1.0165 12.1776 0.666504 13.9998 0.666504C15.8443 0.666504 17.5721 1.0165 19.1832 1.7165C20.7943 2.4165 22.2054 3.37206 23.4165 4.58317C24.6276 5.79428 25.5832 7.20539 26.2832 8.8165C26.9832 10.4276 27.3332 12.1554 27.3332 13.9998C27.3332 15.8221 26.9832 17.5443 26.2832 19.1665C25.5832 20.7887 24.6276 22.2054 23.4165 23.4165C22.2054 24.6276 20.7943 25.5832 19.1832 26.2832C17.5721 26.9832 15.8443 27.3332 13.9998 27.3332ZM13.9998 25.3332C15.2221 25.3332 16.4165 25.1554 17.5832 24.7998C18.7498 24.4443 19.8998 23.8221 21.0332 22.9332C19.8998 22.1332 18.7443 21.5221 17.5665 21.0998C16.3887 20.6776 15.1998 20.4665 13.9998 20.4665C12.7998 20.4665 11.6109 20.6776 10.4332 21.0998C9.25539 21.5221 8.09983 22.1332 6.9665 22.9332C8.09983 23.8221 9.24984 24.4443 10.4165 24.7998C11.5832 25.1554 12.7776 25.3332 13.9998 25.3332ZM13.9998 12.9998C14.7554 12.9998 15.3721 12.7609 15.8498 12.2832C16.3276 11.8054 16.5665 11.1887 16.5665 10.4332C16.5665 9.67761 16.3276 9.06095 15.8498 8.58317C15.3721 8.10539 14.7554 7.8665 13.9998 7.8665C13.2443 7.8665 12.6276 8.10539 12.1498 8.58317C11.6721 9.06095 11.4332 9.67761 11.4332 10.4332C11.4332 11.1887 11.6721 11.8054 12.1498 12.2832C12.6276 12.7609 13.2443 12.9998 13.9998 12.9998Z" fill="#101014"/>
</svg>
