<svg width="16" height="17" viewBox="0 0 16 17" fill="none" xmlns="http://www.w3.org/2000/svg">
<path d="M8 8.70508C6.9 8.70508 5.95833 8.31341 5.175 7.53008C4.39167 6.74674 4 5.80508 4 4.70508C4 3.60508 4.39167 2.66341 5.175 1.88008C5.95833 1.09674 6.9 0.705078 8 0.705078C9.1 0.705078 10.0417 1.09674 10.825 1.88008C11.6083 2.66341 12 3.60508 12 4.70508C12 5.80508 11.6083 6.74674 10.825 7.53008C10.0417 8.31341 9.1 8.70508 8 8.70508ZM0 16.7051V13.9051C0 13.3384 0.146 12.8174 0.438 12.3421C0.729334 11.8674 1.11667 11.5051 1.6 11.2551C2.63333 10.7384 3.68333 10.3507 4.75 10.0921C5.81667 9.83408 6.9 9.70508 8 9.70508C9.1 9.70508 10.1833 9.83408 11.25 10.0921C12.3167 10.3507 13.3667 10.7384 14.4 11.2551C14.8833 11.5051 15.2707 11.8674 15.562 12.3421C15.854 12.8174 16 13.3384 16 13.9051V16.7051H0ZM2 14.7051H14V13.9051C14 13.7217 13.9543 13.5551 13.863 13.4051C13.771 13.2551 13.65 13.1384 13.5 13.0551C12.6 12.6051 11.6917 12.2674 10.775 12.0421C9.85833 11.8174 8.93333 11.7051 8 11.7051C7.06667 11.7051 6.14167 11.8174 5.225 12.0421C4.30833 12.2674 3.4 12.6051 2.5 13.0551C2.35 13.1384 2.22933 13.2551 2.138 13.4051C2.046 13.5551 2 13.7217 2 13.9051V14.7051ZM8 6.70508C8.55 6.70508 9.021 6.50908 9.413 6.11708C9.80433 5.72574 10 5.25508 10 4.70508C10 4.15508 9.80433 3.68441 9.413 3.29308C9.021 2.90108 8.55 2.70508 8 2.70508C7.45 2.70508 6.97933 2.90108 6.588 3.29308C6.196 3.68441 6 4.15508 6 4.70508C6 5.25508 6.196 5.72574 6.588 6.11708C6.97933 6.50908 7.45 6.70508 8 6.70508Z" fill="white"/>
</svg>
