<svg width="66" height="45" viewBox="0 0 66 45" fill="none" xmlns="http://www.w3.org/2000/svg">
<path d="M4.52814 44.3501C3.9879 44.3609 3.45105 44.2624 2.94978 44.0607C2.44852 43.8589 1.99318 43.5579 1.61106 43.1759C1.22894 42.7938 0.927928 42.3385 0.726069 41.8373C0.524209 41.3361 0.425664 40.7992 0.436344 40.259V4.79761C0.425575 4.25731 0.524054 3.7204 0.725873 3.2191C0.927693 2.71779 1.22869 2.26242 1.61082 1.88029C1.99295 1.49816 2.44832 1.19716 2.94963 0.995343C3.45094 0.793523 3.98784 0.695045 4.52814 0.705814H61.2055C61.7458 0.695045 62.2827 0.793523 62.784 0.995343C63.2853 1.19716 63.7407 1.49816 64.1228 1.88029C64.505 2.26242 64.806 2.71779 65.0078 3.2191C65.2096 3.7204 65.3081 4.25731 65.2973 4.79761V40.259C65.3081 40.7993 65.2096 41.3362 65.0078 41.8375C64.806 42.3388 64.505 42.7942 64.1228 43.1763C63.7407 43.5584 63.2853 43.8594 62.784 44.0613C62.2827 44.2631 61.7458 44.3616 61.2055 44.3508L4.52814 44.3501ZM39.3071 42.6837H61.2055C61.8345 42.641 62.4268 42.3719 62.8726 41.9261C63.3184 41.4803 63.5875 40.888 63.6302 40.259V4.79761C63.6238 4.48285 63.5533 4.17269 63.4231 3.88607C63.2928 3.59945 63.1055 3.34237 62.8726 3.13053C62.6608 2.89763 62.4037 2.71033 62.1171 2.58007C61.8304 2.44981 61.5203 2.37932 61.2055 2.37289H4.52814C4.21338 2.37932 3.90322 2.44981 3.6166 2.58007C3.32998 2.71033 3.0729 2.89763 2.86107 3.13053C2.62816 3.34237 2.44086 3.59945 2.3106 3.88607C2.18034 4.17269 2.10985 4.48285 2.10342 4.79761V40.259C2.11002 40.5735 2.1806 40.8835 2.31086 41.1698C2.44111 41.4562 2.62832 41.7131 2.86107 41.9248C3.07279 42.1579 3.32981 42.3455 3.61644 42.4759C3.90306 42.6064 4.21328 42.6771 4.52814 42.6837H6.87697C9.00429 40.3949 11.486 38.4632 14.227 36.9628C16.9448 35.4957 19.9849 34.7275 23.0734 34.7275C26.1619 34.7275 29.202 35.4957 31.9198 36.9628C34.6765 38.456 37.1716 40.3883 39.3071 42.6837ZM23.0924 29.4989C24.028 29.4999 24.9546 29.3164 25.8192 28.9588C26.6838 28.6013 27.4694 28.0767 28.131 27.4151C28.7925 26.7535 29.3171 25.9679 29.6747 25.1034C30.0323 24.2388 30.2158 23.3121 30.2148 22.3765C30.2158 21.4409 30.0323 20.5143 29.6747 19.6497C29.3171 18.7851 28.7925 17.9995 28.131 17.3379C27.4694 16.6764 26.6838 16.1518 25.8192 15.7942C24.9546 15.4366 24.028 15.2531 23.0924 15.2541C22.1481 15.2315 21.2094 15.405 20.3356 15.7637C19.4618 16.1224 18.6719 16.6584 18.0159 17.338C16.7046 18.6872 15.9711 20.4944 15.9711 22.3759C15.9711 24.2573 16.7046 26.0646 18.0159 27.4137C18.6719 28.0933 19.4618 28.6293 20.3356 28.988C21.2094 29.3467 22.1481 29.5202 23.0924 29.4976V29.4989ZM9.37759 42.6837H36.7313C34.9945 40.7373 32.8797 39.1648 30.5157 38.062C28.1807 36.9641 25.6323 36.3949 23.0521 36.3949C20.472 36.3949 17.9235 36.9641 15.5886 38.062C13.2262 39.1653 11.113 40.7378 9.37759 42.6837ZM23.0924 27.8318C22.3804 27.8372 21.6747 27.6991 21.0173 27.4257C20.3599 27.1523 19.7644 26.7493 19.2662 26.2406C18.7413 25.7449 18.3253 25.1453 18.0449 24.4801C17.7644 23.8148 17.6255 23.0984 17.6371 22.3765C17.6338 21.6592 17.7726 20.9483 18.0456 20.285C18.3186 19.6216 18.7203 19.0189 19.2276 18.5117C19.7348 18.0045 20.3375 17.6028 21.0008 17.3298C21.6642 17.0568 22.3751 16.9179 23.0924 16.9212C24.1692 16.9178 25.2228 17.2342 26.1197 17.8303C27.0165 18.4264 27.7162 19.2753 28.1301 20.2694C28.5439 21.2636 28.6533 22.3582 28.4444 23.4146C28.2355 24.471 27.7176 25.4416 26.9565 26.2033C26.4608 26.7283 25.8612 27.1442 25.1959 27.4247C24.5307 27.7052 23.8143 27.8434 23.0924 27.8318Z" fill="#18363B"/>
<path d="M58.7049 7.34535V12.9721C58.7052 13.1629 58.6296 13.346 58.4949 13.4811L56.9633 15.0239C56.9604 15.0277 56.9571 15.0312 56.9535 15.0343L56.9384 15.0487C56.8982 15.0859 56.8508 15.1144 56.7991 15.1325C56.7474 15.1506 56.6925 15.1578 56.6379 15.1538C56.5832 15.1497 56.53 15.1345 56.4816 15.109C56.4331 15.0835 56.3904 15.0483 56.3561 15.0055C56.3013 14.9336 56.2725 14.8453 56.2743 14.7549L56.2665 12.6927V12.6888C56.2667 12.6095 56.2391 12.5326 56.1886 12.4715C56.1817 12.461 56.1738 12.4512 56.1651 12.4421L53.5068 9.76876C53.4746 9.73652 53.4363 9.71094 53.3942 9.69348C53.3521 9.67603 53.307 9.66705 53.2614 9.66705C53.2158 9.66705 53.1707 9.67603 53.1286 9.69348C53.0865 9.71094 53.0483 9.73652 53.0161 9.76876C52.2846 10.5035 51.7455 11.0433 51.103 11.6884C51.0555 11.7366 50.9947 11.7697 50.9284 11.7833C50.8621 11.797 50.7932 11.7906 50.7305 11.765C50.6678 11.7394 50.6141 11.6957 50.5763 11.6396C50.5385 11.5834 50.5182 11.5173 50.5181 11.4496V9.52341C50.5181 9.45461 50.5317 9.38649 50.5581 9.32295C50.5845 9.2594 50.6231 9.20169 50.6718 9.1531L52.6706 7.1543C52.7192 7.10559 52.7769 7.06694 52.8405 7.04056C52.904 7.01418 52.9721 7.00058 53.0409 7.00055H58.3608C58.4061 7.00046 58.451 7.00932 58.4928 7.02662C58.5347 7.04392 58.5728 7.06931 58.6048 7.10135C58.6368 7.13338 58.6622 7.17143 58.6795 7.2133C58.6968 7.25517 58.7057 7.30005 58.7056 7.34535" fill="#18363B"/>
</svg>
