<svg width="12" height="12" viewBox="0 0 12 12" fill="none" xmlns="http://www.w3.org/2000/svg">
<path d="M8.31173 7.25877C8.56691 7.25877 8.79402 7.15899 8.99306 6.95943C9.19209 6.75987 9.29161 6.52705 9.29161 6.26096C9.29161 6.00512 9.19209 5.77997 8.99306 5.58553C8.79402 5.39108 8.56691 5.29386 8.31173 5.29386C8.05656 5.29386 7.82945 5.39108 7.63041 5.58553C7.43138 5.77997 7.33186 6.00512 7.33186 6.26096C7.33186 6.52705 7.43138 6.75987 7.63041 6.95943C7.82945 7.15899 8.05656 7.25877 8.31173 7.25877ZM1.08514 10.068V10.8816V1.67105V10.068ZM1.08514 11.8026C0.850376 11.8026 0.63858 11.7105 0.44975 11.5263C0.260919 11.3421 0.166504 11.1272 0.166504 10.8816V1.67105C0.166504 1.43567 0.260919 1.22332 0.44975 1.03399C0.63858 0.844664 0.850376 0.75 1.08514 0.75H10.2715C10.5165 0.75 10.7308 0.844664 10.9145 1.03399C11.0983 1.22332 11.1901 1.43567 11.1901 1.67105V3.72807H10.2715V1.67105H1.08514V10.8816H10.2715V8.83991H11.1901V10.8816C11.1901 11.1272 11.0983 11.3421 10.9145 11.5263C10.7308 11.7105 10.5165 11.8026 10.2715 11.8026H1.08514ZM6.56633 9.14693C6.21929 9.14693 5.9437 9.04459 5.73956 8.83991C5.53541 8.63523 5.43334 8.36404 5.43334 8.02632V4.54167C5.43334 4.19371 5.53541 3.91996 5.73956 3.72039C5.9437 3.52083 6.21929 3.42105 6.56633 3.42105H10.7002C11.0472 3.42105 11.3228 3.52083 11.527 3.72039C11.7311 3.91996 11.8332 4.19371 11.8332 4.54167V8.02632C11.8332 8.36404 11.7311 8.63523 11.527 8.83991C11.3228 9.04459 11.0472 9.14693 10.7002 9.14693L6.56633 9.14693ZM10.9145 8.22588V4.34211H6.35198V8.22588H10.9145Z" fill="#0E0E0B"/>
</svg>
