<svg width="24" height="25" viewBox="0 0 24 25" fill="none" xmlns="http://www.w3.org/2000/svg">
<path d="M3.46908 20.9098V20.9099C3.46906 20.9254 3.46951 20.9428 3.46998 20.9615C3.47161 21.0256 3.47362 21.1049 3.45907 21.1766L3.45906 21.1767C3.43431 21.2984 3.38138 21.4052 3.29441 21.481C3.20642 21.5576 3.09269 21.5946 2.96239 21.5918C2.83309 21.589 2.72096 21.5483 2.63583 21.4687C2.55149 21.3899 2.50239 21.2812 2.48264 21.1576L2.48263 21.1576C2.47178 21.0894 2.47385 21.0146 2.47557 20.9522C2.47615 20.9313 2.47669 20.9118 2.47669 20.8945L2.47655 11.7031V11.476C2.41302 11.4761 2.34996 11.4762 2.28728 11.4763C2.03828 11.4768 1.79525 11.4772 1.55259 11.4744C1.55258 11.4744 1.55258 11.4744 1.55257 11.4744L1.55374 11.3744C1.4558 11.3733 1.35263 11.3706 1.26151 11.34C1.07522 11.2774 0.981978 11.1299 1.00289 10.9375L3.46908 20.9098ZM3.46908 20.9098C3.4693 19.1543 3.46929 17.3988 3.46928 15.6432L3.46927 14.5922V14.3915M3.46908 20.9098L3.46927 14.3915M22.6931 11.4749C22.8614 11.4731 23.0093 11.427 23.1165 11.3375C23.2256 11.2463 23.2847 11.1163 23.2815 10.9666C23.2815 10.9666 23.2815 10.9666 23.2815 10.9666L23.1816 10.9687L22.692 11.3749M22.6931 11.4749L22.692 11.3749M22.6931 11.4749C22.6931 11.4749 22.6931 11.4749 22.6931 11.4749L22.692 11.3749M22.6931 11.4749C22.4473 11.4776 22.2011 11.477 21.9458 11.4764C21.8656 11.4762 21.7845 11.476 21.7023 11.4759M22.692 11.3749C22.4469 11.3776 22.2018 11.377 21.9468 11.3764C21.8664 11.3762 21.785 11.376 21.7023 11.3759V11.4759M21.7023 11.4759C21.6691 11.4759 21.6358 11.4759 21.6023 11.4759V11.3759L20.7183 21.1704C20.7411 21.2924 20.7922 21.3999 20.8779 21.477C20.9646 21.5549 21.0777 21.5934 21.208 21.5929H21.2081C21.3382 21.5924 21.4509 21.5532 21.5372 21.4748C21.6224 21.3972 21.6728 21.2893 21.6946 21.1668C21.707 21.0973 21.7049 21.0205 21.7032 20.9576C21.7026 20.9375 21.7021 20.9187 21.7021 20.9021V20.902C21.7023 18.4479 21.7023 15.9938 21.7023 13.5396L21.7023 11.6858V11.4759ZM3.46927 14.3915H20.7095V14.6121L20.7095 15.6457C20.7095 17.3987 20.7095 19.1518 20.7097 20.9048C20.7097 20.9209 20.7093 20.9389 20.7088 20.9583C20.7071 21.0218 20.705 21.0997 20.7183 21.1704L3.46927 14.3915ZM8.45677 9.12178C8.45254 9.11779 8.44582 9.11247 8.43675 9.10683C8.42627 9.10031 8.41503 9.09486 8.40496 9.09121C8.39423 9.08731 8.389 9.08696 8.38936 9.08697M8.45677 9.12178L8.38938 9.08697C8.38937 9.08697 8.38937 9.08697 8.38936 9.08697M8.45677 9.12178C8.53296 9.49367 8.60111 9.86718 8.67215 10.2566C8.6852 10.3281 8.69835 10.4002 8.71167 10.4729H6.95953L7.21977 9.08218C7.29573 9.0821 7.371 9.08193 7.44571 9.08177C7.76704 9.08105 8.07809 9.08036 8.38936 9.08697M8.45677 9.12178L8.38936 9.08697M1.02887 10.6354C0.955728 10.7136 0.915612 10.815 0.903475 10.9267L3.59116 8.14927C3.59487 8.65902 3.92985 8.97217 4.4445 8.97971L4.44302 9.0797C4.44303 9.0797 4.44303 9.0797 4.44304 9.0797C4.81217 9.08516 5.18195 9.08394 5.55067 9.08273C5.71056 9.0822 5.87025 9.08168 6.0296 9.0817C6.02962 9.0817 6.02965 9.0817 6.02967 9.0817H6.20595L5.94512 10.4831H5.71859C5.44467 10.4831 5.17076 10.4831 4.89684 10.4831C3.80017 10.4831 2.70345 10.483 1.60678 10.4834H1.60674C1.59192 10.4834 1.57663 10.4833 1.56096 10.4832C1.48611 10.4827 1.40264 10.4822 1.32163 10.493L1.32162 10.493C1.20267 10.5088 1.10244 10.5568 1.02887 10.6354ZM0.903475 10.9267C0.890956 11.0419 0.91214 11.1505 0.970262 11.2413C1.02839 11.3322 1.11841 11.3974 1.22963 11.4348L0.903475 10.9267ZM11.1716 3.96808V8.06786H4.50552V3.96808H11.1716ZM11.5804 11.4904V13.3663H3.48086V11.4904H11.5804ZM12.598 13.3719V11.4946H20.6974V13.3719H12.598ZM16.9087 10.4707V6.34717H17.9451V10.4707H16.9087ZM18.9541 7.22572V6.34175H20.0075V10.482C19.93 10.482 19.853 10.482 19.7763 10.4821C19.5109 10.4822 19.2497 10.4823 18.9885 10.4817C18.9685 10.4817 18.9577 10.4792 18.9528 10.4776C18.9509 10.4691 18.9502 10.455 18.9515 10.4303C18.9518 10.425 18.9523 10.4184 18.9528 10.411C18.9542 10.3918 18.956 10.3673 18.9559 10.3474C18.9538 9.53833 18.9539 8.72928 18.9541 7.92009C18.9541 7.68864 18.9541 7.45718 18.9541 7.22572Z" fill="#101014" stroke="#101014" stroke-width="0.2"/>
<path d="M7.52896 12.8339C7.30316 12.8331 7.12859 12.6518 7.13289 12.4227C7.13699 12.2035 7.30442 12.0327 7.52022 12.0275C7.74641 12.022 7.92674 12.1979 7.92906 12.4263C7.93144 12.6554 7.75541 12.8347 7.52896 12.8339Z" fill="#101014" stroke="#101014" stroke-width="0.2"/>
<path d="M17.0455 12.4339C17.0438 12.6626 16.8642 12.8387 16.6378 12.8338C16.413 12.8289 16.2411 12.6435 16.2493 12.4148C16.2571 12.1967 16.4285 12.0287 16.6446 12.0274C16.871 12.026 17.0472 12.2046 17.0455 12.4339Z" fill="#101014" stroke="#101014" stroke-width="0.2"/>
</svg>
