<svg width="19" height="20" viewBox="0 0 19 20" fill="none" xmlns="http://www.w3.org/2000/svg">
<path d="M18.736 10.0831V11.1048C18.712 11.1337 18.6726 11.1598 18.6667 11.1922C18.6468 11.298 18.6466 11.4077 18.6249 11.513C18.5551 11.8522 18.4792 12.1901 18.4056 12.5285C18.3509 12.5267 18.2963 12.5236 18.2417 12.5236C12.3436 12.5233 6.4456 12.5233 0.547619 12.5236C0.492972 12.5236 0.438374 12.5269 0.383727 12.5285C0.375683 12.5195 0.362034 12.5116 0.360425 12.5016C0.26946 11.9312 0.18064 11.3609 0.0871409 10.7914C0.0708756 10.7462 0.0470205 10.7041 0.0166017 10.6669L0.0166016 10.1196C0.0294387 10.1059 0.0422758 10.0923 0.0551129 10.0787C0.091528 10.0802 0.127943 10.0828 0.164358 10.0829C3.19866 10.0831 6.23298 10.0831 9.26731 10.0829C9.30972 10.0829 9.35213 10.0791 9.39459 10.0771C9.45514 10.0792 9.51568 10.0829 9.57628 10.0829C12.6295 10.0832 15.6828 10.0832 18.7361 10.0829" fill="white"/>
<path d="M18.7361 10.0828C15.6828 10.0828 12.6295 10.0828 9.57622 10.0828C9.51562 10.0828 9.45508 10.079 9.39453 10.077C9.39655 9.26552 9.39857 8.45404 9.40062 7.64258H18.4057C18.4789 7.97852 18.5576 8.31342 18.6241 8.6507C18.67 8.88318 18.6992 9.11899 18.7362 9.35326L18.7361 10.0828Z" fill="#D70228"/>
<path d="M15.1846 17.3867C14.9738 17.5486 14.7719 17.7241 14.5509 17.8704C13.2519 18.7379 11.7535 19.2607 10.1967 19.3894C10.1708 19.3968 10.1464 19.4086 10.1245 19.4243H8.62841C8.41114 19.388 8.19421 19.3495 7.97655 19.3156C6.40849 19.0776 4.92785 18.4407 3.67664 17.4661C3.65025 17.4418 3.62611 17.4153 3.60449 17.3867C5.10595 17.3878 6.6074 17.3888 8.10885 17.3897C10.4675 17.3897 12.8261 17.3888 15.1846 17.3869" fill="#D70228"/>
<path d="M9.9778 0.705224C10.0131 0.729598 10.0476 0.773472 10.084 0.774935C11.1115 0.822854 12.088 1.08692 13.0333 1.4756C13.788 1.78583 14.4774 2.21155 15.1261 2.70391C15.1432 2.71693 15.1489 2.74501 15.1599 2.76607C15.0995 2.76933 15.0391 2.77552 14.9787 2.77552C13.1191 2.77595 11.2596 2.77603 9.40009 2.77577C9.39664 2.09836 9.39316 1.42097 9.38965 0.743589L9.43045 0.705078L9.9778 0.705224Z" fill="white"/>
<path d="M6.5046 5.65769L5.58272 5.4489L5.99064 6.30342L5.25527 6.8922L6.18398 7.10567V8.04427L6.91628 7.45963L7.65389 8.04871V7.10606L8.57792 6.8922L7.84031 6.30025C7.97549 6.01848 8.10482 5.74895 8.2475 5.45173L7.32679 5.65789L6.91535 4.80874L6.50489 5.6577" fill="#003472"/>
<path d="M18.4056 12.5284C18.1891 13.3532 17.8552 14.1426 17.4142 14.8724C17.385 14.9093 17.3509 14.9421 17.313 14.9699C17.2467 14.9658 17.1803 14.9582 17.114 14.9582C11.9677 14.9576 6.82153 14.9576 1.67538 14.9582C1.60908 14.9582 1.54274 14.9658 1.47644 14.9699C1.43847 14.9421 1.40442 14.9093 1.37519 14.8724C0.933506 14.1429 0.599588 13.3535 0.383789 12.5285C0.438387 12.5267 0.493034 12.5236 0.547681 12.5236C6.44566 12.5234 12.3437 12.5234 18.2417 12.5236C18.2963 12.5236 18.351 12.5268 18.4056 12.5285" fill="#D70228"/>
<path d="M9.40039 7.64244C9.40039 6.83139 9.40039 6.02033 9.40039 5.20926C11.972 5.20906 14.5436 5.20863 17.1152 5.20798C17.1936 5.20798 17.2719 5.19853 17.3503 5.19336C17.825 5.95096 18.1809 6.77681 18.4056 7.6422H9.40044" fill="white"/>
<path d="M17.3502 5.19408C17.2719 5.19895 17.1935 5.2087 17.1152 5.2087C14.5435 5.20968 11.9719 5.21012 9.40039 5.21002C9.40039 4.39875 9.40039 3.58751 9.40039 2.7763C11.2599 2.7763 13.1194 2.77622 14.9789 2.77605C15.0394 2.77605 15.0998 2.76991 15.1602 2.7666C15.2088 2.78962 15.2555 2.81667 15.2996 2.84747C16.1113 3.50771 16.8048 4.30128 17.3502 5.19423" fill="#D70228"/>
<path d="M1.47578 14.9701C1.54213 14.966 1.60843 14.9584 1.67472 14.9584C6.821 14.9579 11.9672 14.9579 17.1134 14.9584C17.1797 14.9584 17.246 14.966 17.3123 14.9701C17.232 15.1167 17.1623 15.2704 17.0695 15.4088C16.6512 16.0328 16.1249 16.5623 15.5856 17.0788C15.4644 17.1948 15.3185 17.2851 15.184 17.3873C12.8254 17.3883 10.4668 17.3892 8.10821 17.3901C6.60675 17.3901 5.1053 17.3891 3.60385 17.3871C3.17247 16.9804 2.72277 16.5911 2.31596 16.1612C2.03488 15.8641 1.81083 15.5128 1.56689 15.1813C1.52845 15.1146 1.49781 15.0438 1.47559 14.9701" fill="white"/>
<path d="M7.18631 4.30508C6.06909 3.85421 4.98857 4.27554 4.4114 5.05132C3.82032 5.84704 3.80313 6.93126 4.36869 7.74531C4.95445 8.57242 5.97403 8.92858 6.9274 8.63941C7.00419 8.61158 7.08609 8.6007 7.16748 8.60753C7.14637 8.63766 7.12194 8.66535 7.09465 8.69005C6.22352 9.32076 5.27541 9.45955 4.28538 9.04728C3.31728 8.64413 2.72177 7.89759 2.5726 6.85434C2.31146 5.02758 3.70201 3.51053 5.54553 3.59306C6.165 3.61184 6.75687 3.8536 7.21233 4.27388L7.18631 4.30494" fill="#FBC345"/>
<path d="M6.50519 5.65755L6.91565 4.80859L7.32709 5.65775L8.2478 5.45158C8.10511 5.74895 7.97578 6.01834 7.84061 6.3001L8.57831 6.89206L7.65428 7.10591V8.04857L6.91667 7.45949L6.18457 8.04413V7.10548L5.25586 6.89201L5.99123 6.30322L5.5833 5.44876L6.50539 5.65759" fill="#FBC345"/>
<path d="M7.21275 4.27344C7.21864 4.28558 7.2245 4.29781 7.23039 4.30991C7.21577 4.30804 7.20116 4.3062 7.18652 4.30444L7.21255 4.27344" fill="#FBD845"/>
</svg>
