<svg width="117" height="35" viewBox="0 0 117 35" fill="none" xmlns="http://www.w3.org/2000/svg">
<path d="M34.845 1.467V25.425C34.8441 26.2378 34.5203 27.0169 33.945 27.591L27.426 34.148C27.4139 34.1641 27.4002 34.1788 27.385 34.192L27.321 34.253C27.1498 34.411 26.9479 34.5322 26.7279 34.609C26.5079 34.6857 26.2744 34.7164 26.042 34.6992C25.8097 34.6819 25.5833 34.6171 25.3771 34.5087C25.1708 34.4003 24.989 34.2506 24.843 34.069C24.6109 33.7618 24.49 33.3849 24.5 33L24.465 24.222V24.207C24.4656 23.8697 24.3481 23.5428 24.133 23.283C24.1035 23.2384 24.07 23.1966 24.033 23.158C19.654 18.758 16.946 16.033 12.718 11.779C12.581 11.6419 12.4184 11.5331 12.2393 11.4589C12.0603 11.3847 11.8683 11.3465 11.6745 11.3465C11.4807 11.3465 11.2888 11.3847 11.1097 11.4589C10.9307 11.5331 10.768 11.6419 10.631 11.779C7.52301 14.907 5.22301 17.205 2.48801 19.951C2.28505 20.1563 2.02556 20.2965 1.74262 20.3538C1.45967 20.4111 1.16607 20.3829 0.899222 20.2728C0.632372 20.1626 0.404352 19.9755 0.244211 19.7353C0.084071 19.4951 -0.000940244 19.2127 7.84451e-06 18.924V10.737C0.000146793 10.1456 0.235006 9.57839 0.653008 9.16L9.16001 0.653C9.57852 0.235185 10.1456 0.000358343 10.737 3.41328e-07H33.378C33.5707 -0.00013114 33.7615 0.0377242 33.9396 0.111401C34.1176 0.185078 34.2794 0.293132 34.4156 0.429381C34.5519 0.565631 34.6599 0.727404 34.7336 0.905448C34.8073 1.08349 34.8451 1.27431 34.845 1.467Z" fill="white"/>
<path d="M60.693 14.4017V11.9527H57.933V8.88867H54.973V11.9527H52.626V14.4017H54.973V19.6907C54.9302 20.0342 54.966 20.3829 55.0778 20.7105C55.1895 21.0381 55.3743 21.336 55.6181 21.5817C55.8619 21.8274 56.1583 22.0145 56.485 22.1288C56.8117 22.2432 57.1602 22.2818 57.504 22.2417H60.693V19.7317H58.512C58.4322 19.7418 58.3512 19.7333 58.2753 19.7067C58.1994 19.6801 58.1307 19.6362 58.0747 19.5784C58.0187 19.5207 57.977 19.4507 57.9527 19.374C57.9284 19.2974 57.9224 19.2161 57.935 19.1367V14.4017H60.693Z" fill="white"/>
<path d="M80.776 11.9532L78.327 18.2532L75.837 11.9532H72.668L76.846 21.7692L74.91 26.1512H78.018L83.945 11.9512L80.776 11.9532Z" fill="white"/>
<path d="M68.9967 11.97V13.405H68.8747C68.7228 13.1823 68.5456 12.978 68.3467 12.796C68.0338 12.5061 67.6754 12.2696 67.2857 12.096C66.7457 11.8654 66.1615 11.7568 65.5747 11.778C64.8486 11.7611 64.1288 11.917 63.4747 12.233C62.8906 12.524 62.3783 12.9411 61.9747 13.454C61.572 13.9652 61.267 14.5462 61.0747 15.168C60.6821 16.4295 60.6821 17.7805 61.0747 19.042C61.267 19.6637 61.572 20.2448 61.9747 20.756C62.3784 21.2688 62.8907 21.6858 63.4747 21.977C64.1288 22.293 64.8486 22.4489 65.5747 22.432C66.1605 22.4513 66.7437 22.3459 67.2857 22.123C67.6777 21.9536 68.0368 21.7167 68.3467 21.423C68.5448 21.2369 68.7219 21.0297 68.8747 20.805H68.9967V22.239H71.7077V11.97H68.9967ZM68.4277 18.521C68.2488 18.9626 67.9563 19.349 67.5797 19.641C67.1724 19.9447 66.6735 20.1 66.1657 20.081C65.6553 20.0992 65.1538 19.9441 64.7427 19.641C64.3604 19.3526 64.0641 18.9654 63.8857 18.521C63.699 18.0724 63.6028 17.5914 63.6028 17.1055C63.6028 16.6196 63.699 16.1385 63.8857 15.69C64.065 15.2455 64.3611 14.8579 64.7427 14.568C65.1548 14.2671 65.6559 14.1132 66.1657 14.131C66.673 14.1123 67.1715 14.2664 67.5797 14.568C67.9556 14.8615 68.2479 15.2483 68.4277 15.69C68.6145 16.1385 68.7106 16.6196 68.7106 17.1055C68.7106 17.5914 68.6145 18.0724 68.4277 18.521Z" fill="white"/>
<path d="M48.4276 15.988L47.4596 15.801C46.5736 15.617 46.2436 15.288 46.2436 14.813C46.2436 14.218 46.7436 13.702 47.6836 13.702C48.1248 13.6843 48.5554 13.8405 48.8826 14.1372C49.2097 14.4339 49.4072 14.8471 49.4326 15.288L52.1496 14.874C51.9016 12.755 50.1116 11.623 47.6836 11.623C45.1126 11.623 43.3426 13.023 43.3426 15.06C43.3426 16.768 44.6606 17.736 46.7596 18.168L47.7276 18.368C48.7776 18.575 49.1676 18.925 49.1676 19.438C49.1676 20.038 48.6516 20.488 47.6836 20.488C47.2067 20.53 46.7306 20.3994 46.3417 20.1201C45.9529 19.8408 45.6772 19.4314 45.5646 18.966L42.8096 19.377C43.2416 21.765 45.4016 22.566 47.7276 22.566C50.1766 22.566 52.1506 21.312 52.1506 19.356C52.1506 17.464 50.8766 16.476 48.4276 15.983" fill="white"/>
<path d="M91.0074 11.6406C90.3404 11.6557 89.6912 11.8585 89.1342 12.2257C88.5773 12.5929 88.1351 13.1096 87.8584 13.7166L87.9023 11.9556H84.9023V22.4336H87.9023V16.7336C87.9023 15.2236 88.5674 14.1766 89.8584 14.1766C91.0074 14.1766 91.6714 14.9516 91.6714 16.4596V22.4336H94.6714V16.1246C94.6714 13.2766 93.5223 11.6406 91.0033 11.6406" fill="white"/>
<path d="M105.989 16.7956C106.013 16.119 105.899 15.4446 105.654 14.8133C105.41 14.182 105.039 13.607 104.566 13.1231C104.092 12.6392 103.525 12.2565 102.9 11.9983C102.274 11.74 101.602 11.6115 100.925 11.6206C100.205 11.6277 99.4943 11.7794 98.8343 12.0667C98.1742 12.3539 97.5787 12.7709 97.0829 13.2927C96.5872 13.8146 96.2013 14.4308 95.9483 15.1047C95.6953 15.7785 95.5803 16.4964 95.6101 17.2156C95.6101 20.4226 97.589 22.7696 100.904 22.7696C103.84 22.7696 105.404 21.1576 105.863 19.3766L103.07 18.8516C102.937 19.3259 102.65 19.7423 102.253 20.0344C101.856 20.3265 101.373 20.4776 100.881 20.4636C100.223 20.4307 99.6031 20.1438 99.1522 19.6631C98.7014 19.1824 98.4547 18.5455 98.4641 17.8866H105.884C105.96 17.5284 105.993 17.1626 105.984 16.7966M98.564 16.0856C98.5896 15.4882 98.8448 14.9238 99.2766 14.5101C99.7083 14.0965 100.283 13.8655 100.881 13.8656C101.173 13.8581 101.464 13.9107 101.735 14.0201C102.006 14.1296 102.252 14.2935 102.457 14.5018C102.663 14.7101 102.823 14.9584 102.928 15.2311C103.034 15.5039 103.082 15.7954 103.07 16.0876L98.564 16.0856Z" fill="white"/>
<path d="M116.615 11.9561H113.3L111.154 14.9731L109.049 11.9561H105.696L109.53 17.2361L105.696 22.4361H109.028L111.153 19.4361L113.299 22.4361H116.614L112.78 17.2361L116.615 11.9561Z" fill="white"/>
</svg>
