<svg width="12" height="14" viewBox="0 0 12 14" fill="none" xmlns="http://www.w3.org/2000/svg">
<path d="M0.983002 13.3567C0.720868 13.3567 0.491501 13.2584 0.294901 13.0618C0.0983005 12.8652 0 12.6358 0 12.3737V2.216C0 1.95387 0.0983005 1.7245 0.294901 1.5279C0.491501 1.3313 0.720868 1.233 0.983002 1.233H2.04792V0.25H3.11284V1.233H8.68318V0.25H9.7481V1.233H10.813C11.0752 1.233 11.3045 1.3313 11.5011 1.5279C11.6977 1.7245 11.796 1.95387 11.796 2.216V12.3737C11.796 12.6358 11.6977 12.8652 11.5011 13.0618C11.3045 13.2584 11.0752 13.3567 10.813 13.3567H0.983002ZM0.983002 12.3737H10.813V5.32884H0.983002V12.3737ZM0.983002 4.34584H10.813V2.216H0.983002V4.34584ZM0.983002 2.216V4.34584V2.216ZM5.89801 8.11401C5.71233 8.11401 5.55669 8.05121 5.43108 7.9256C5.30548 7.8 5.24268 7.64436 5.24268 7.45868C5.24268 7.273 5.30548 7.11736 5.43108 6.99175C5.55669 6.86615 5.71233 6.80334 5.89801 6.80334C6.08369 6.80334 6.23933 6.86615 6.36494 6.99175C6.49054 7.11736 6.55334 7.273 6.55334 7.45868C6.55334 7.64436 6.49054 7.8 6.36494 7.9256C6.23933 8.05121 6.08369 8.11401 5.89801 8.11401ZM3.27667 8.11401C3.09099 8.11401 2.93535 8.05121 2.80975 7.9256C2.68414 7.8 2.62134 7.64436 2.62134 7.45868C2.62134 7.273 2.68414 7.11736 2.80975 6.99175C2.93535 6.86615 3.09099 6.80334 3.27667 6.80334C3.46235 6.80334 3.61799 6.86615 3.7436 6.99175C3.8692 7.11736 3.93201 7.273 3.93201 7.45868C3.93201 7.64436 3.8692 7.8 3.7436 7.9256C3.61799 8.05121 3.46235 8.11401 3.27667 8.11401ZM8.51935 8.11401C8.33367 8.11401 8.17803 8.05121 8.05242 7.9256C7.92682 7.8 7.86401 7.64436 7.86401 7.45868C7.86401 7.273 7.92682 7.11736 8.05242 6.99175C8.17803 6.86615 8.33367 6.80334 8.51935 6.80334C8.70503 6.80334 8.86067 6.86615 8.98627 6.99175C9.11188 7.11736 9.17468 7.273 9.17468 7.45868C9.17468 7.64436 9.11188 7.8 8.98627 7.9256C8.86067 8.05121 8.70503 8.11401 8.51935 8.11401ZM5.89801 10.7354C5.71233 10.7354 5.55669 10.6725 5.43108 10.5469C5.30548 10.4213 5.24268 10.2657 5.24268 10.08C5.24268 9.89434 5.30548 9.7387 5.43108 9.61309C5.55669 9.48748 5.71233 9.42468 5.89801 9.42468C6.08369 9.42468 6.23933 9.48748 6.36494 9.61309C6.49054 9.7387 6.55334 9.89434 6.55334 10.08C6.55334 10.2657 6.49054 10.4213 6.36494 10.5469C6.23933 10.6725 6.08369 10.7354 5.89801 10.7354ZM3.27667 10.7354C3.09099 10.7354 2.93535 10.6725 2.80975 10.5469C2.68414 10.4213 2.62134 10.2657 2.62134 10.08C2.62134 9.89434 2.68414 9.7387 2.80975 9.61309C2.93535 9.48748 3.09099 9.42468 3.27667 9.42468C3.46235 9.42468 3.61799 9.48748 3.7436 9.61309C3.8692 9.7387 3.93201 9.89434 3.93201 10.08C3.93201 10.2657 3.8692 10.4213 3.7436 10.5469C3.61799 10.6725 3.46235 10.7354 3.27667 10.7354ZM8.51935 10.7354C8.33367 10.7354 8.17803 10.6725 8.05242 10.5469C7.92682 10.4213 7.86401 10.2657 7.86401 10.08C7.86401 9.89434 7.92682 9.7387 8.05242 9.61309C8.17803 9.48748 8.33367 9.42468 8.51935 9.42468C8.70503 9.42468 8.86067 9.48748 8.98627 9.61309C9.11188 9.7387 9.17468 9.89434 9.17468 10.08C9.17468 10.2657 9.11188 10.4213 8.98627 10.5469C8.86067 10.6725 8.70503 10.7354 8.51935 10.7354Z" fill="#101014"/>
</svg>
