<svg width="12" height="15" viewBox="0 0 12 15" fill="none" xmlns="http://www.w3.org/2000/svg">
<path d="M6.8 7.49967L8.66667 10.1663H7.06667L6 8.64234L4.93333 10.1663H3.33333L5.2 7.49967L3.33333 4.83301H4.93333L6 6.35701L7.06667 4.83301H8V2.16634H1.33333V12.833H10.6667V4.83301H8.66667L6.8 7.49967ZM0 1.49434C0 1.12901 0.298 0.833008 0.666 0.833008H8.66667L12 4.16634V13.495C12.0006 13.5826 11.984 13.6694 11.951 13.7505C11.9181 13.8316 11.8695 13.9054 11.808 13.9678C11.7466 14.0301 11.6734 14.0797 11.5928 14.1138C11.5121 14.1479 11.4255 14.1657 11.338 14.1663H0.662C0.486919 14.1651 0.319345 14.0951 0.195478 13.9713C0.0716119 13.8476 0.00139643 13.6801 0 13.505V1.49434Z" fill="#09121F"/>
</svg>
