<svg width="25" height="25" viewBox="0 0 25 25" fill="none" xmlns="http://www.w3.org/2000/svg">
<g clip-path="url(#clip0_37_8405)">
<path d="M5.6875 16.9678V22.9678H3.6875V3.96777H13.0695C13.2552 3.96787 13.4371 4.01966 13.595 4.11733C13.7529 4.21499 13.8805 4.35469 13.9635 4.52077L14.6875 5.96777H20.6875C20.9527 5.96777 21.2071 6.07313 21.3946 6.26067C21.5821 6.4482 21.6875 6.70256 21.6875 6.96777V17.9678C21.6875 18.233 21.5821 18.4873 21.3946 18.6749C21.2071 18.8624 20.9527 18.9678 20.6875 18.9678H14.3055C14.1198 18.9677 13.9379 18.9159 13.78 18.8182C13.6221 18.7206 13.4945 18.5809 13.4115 18.4148L12.6875 16.9678H5.6875ZM5.6875 5.96777V14.9678H13.9235L14.9235 16.9678H19.6875V7.96777H13.4515L12.4515 5.96777H5.6875Z" fill="#09121F"/>
</g>
<defs>
<clipPath id="clip0_37_8405">
<rect width="24" height="24" fill="white" transform="translate(0.6875 0.967773)"/>
</clipPath>
</defs>
</svg>
