<svg width="24" height="25" viewBox="0 0 24 25" fill="none" xmlns="http://www.w3.org/2000/svg">
<path d="M8.41014 5.62192H9.78335V8.32257H8.41014V5.62192ZM8.41014 12.0989H9.78335V16.5847H8.41014V12.0989ZM6.37321 21.3681C5.99192 21.3681 5.66738 21.2344 5.40052 20.9675C5.13366 20.7007 5 20.3761 5 19.9948V4.4318C5 4.05051 5.13366 3.72597 5.40052 3.45911C5.66738 3.19225 5.99192 3.05859 6.37321 3.05859H18.2744C18.6557 3.05859 18.9802 3.19225 19.2471 3.45911C19.5139 3.72597 19.6476 4.05051 19.6476 4.4318V19.9948C19.6476 20.3761 19.5139 20.7007 19.2471 20.9675C18.9802 21.2344 18.6557 21.3681 18.2744 21.3681H6.37321ZM6.37321 19.9948H18.2744V10.8859H6.37321V19.9948ZM6.37321 9.51268H18.2744V4.4318H6.37321V9.51268Z" fill="#101014"/>
</svg>
