<svg width="12" height="17" viewBox="0 0 12 17" fill="none" xmlns="http://www.w3.org/2000/svg">
<path d="M1.5 16.2051C1.0875 16.2051 0.7345 16.0583 0.441 15.7648C0.147 15.4708 0 15.1176 0 14.7051V7.20508C0 6.79258 0.147 6.43933 0.441 6.14533C0.7345 5.85183 1.0875 5.70508 1.5 5.70508H2.25V4.20508C2.25 3.16758 2.61575 2.28308 3.34725 1.55158C4.07825 0.820578 4.9625 0.455078 6 0.455078C7.0375 0.455078 7.922 0.820578 8.6535 1.55158C9.3845 2.28308 9.75 3.16758 9.75 4.20508V5.70508H10.5C10.9125 5.70508 11.2657 5.85183 11.5597 6.14533C11.8533 6.43933 12 6.79258 12 7.20508V14.7051C12 15.1176 11.8533 15.4708 11.5597 15.7648C11.2657 16.0583 10.9125 16.2051 10.5 16.2051H1.5ZM1.5 14.7051H10.5V7.20508H1.5V14.7051ZM6 12.4551C6.4125 12.4551 6.76575 12.3083 7.05975 12.0148C7.35325 11.7208 7.5 11.3676 7.5 10.9551C7.5 10.5426 7.35325 10.1893 7.05975 9.89533C6.76575 9.60183 6.4125 9.45508 6 9.45508C5.5875 9.45508 5.2345 9.60183 4.941 9.89533C4.647 10.1893 4.5 10.5426 4.5 10.9551C4.5 11.3676 4.647 11.7208 4.941 12.0148C5.2345 12.3083 5.5875 12.4551 6 12.4551ZM3.75 5.70508H8.25V4.20508C8.25 3.58008 8.03125 3.04883 7.59375 2.61133C7.15625 2.17383 6.625 1.95508 6 1.95508C5.375 1.95508 4.84375 2.17383 4.40625 2.61133C3.96875 3.04883 3.75 3.58008 3.75 4.20508V5.70508Z" fill="#101014"/>
</svg>
