<svg width="17" height="20" viewBox="0 0 17 20" fill="none" xmlns="http://www.w3.org/2000/svg">
<path d="M0.416016 17V15H2.41602V8C2.41602 6.61667 2.83268 5.38733 3.66602 4.312C4.49935 3.23733 5.58268 2.53333 6.91602 2.2V1.5C6.91602 1.08333 7.06202 0.729333 7.35402 0.438C7.64535 0.146 7.99935 0 8.41602 0C8.83268 0 9.18668 0.146 9.47802 0.438C9.77002 0.729333 9.91602 1.08333 9.91602 1.5V2.2C11.2493 2.53333 12.3327 3.23733 13.166 4.312C13.9993 5.38733 14.416 6.61667 14.416 8V15H16.416V17H0.416016ZM8.41602 20C7.86602 20 7.39535 19.8043 7.00402 19.413C6.61202 19.021 6.41602 18.55 6.41602 18H10.416C10.416 18.55 10.2203 19.021 9.82902 19.413C9.43702 19.8043 8.96602 20 8.41602 20ZM4.41602 15H12.416V8C12.416 6.9 12.0243 5.95833 11.241 5.175C10.4577 4.39167 9.51602 4 8.41602 4C7.31602 4 6.37435 4.39167 5.59102 5.175C4.80768 5.95833 4.41602 6.9 4.41602 8V15Z" fill="#101014"/>
</svg>
