<svg width="24" height="25" viewBox="0 0 24 25" fill="none" xmlns="http://www.w3.org/2000/svg">
<mask id="mask0_2657_7528" style="mask-type:alpha" maskUnits="userSpaceOnUse" x="0" y="0" width="24" height="25">
<rect y="0.705078" width="24" height="24" fill="#D9D9D9"/>
</mask>
<g mask="url(#mask0_2657_7528)">
<path d="M12 22.7051C10.6167 22.7051 9.31667 22.4424 8.1 21.9171C6.88333 21.3924 5.825 20.6801 4.925 19.7801C4.025 18.8801 3.31267 17.8217 2.788 16.6051C2.26267 15.3884 2 14.0884 2 12.7051C2 11.3217 2.26267 10.0217 2.788 8.80508C3.31267 7.58841 4.025 6.53008 4.925 5.63008C5.825 4.73008 6.88333 4.01741 8.1 3.49208C9.31667 2.96741 10.6167 2.70508 12 2.70508C13.3833 2.70508 14.6833 2.96741 15.9 3.49208C17.1167 4.01741 18.175 4.73008 19.075 5.63008C19.975 6.53008 20.6873 7.58841 21.212 8.80508C21.7373 10.0217 22 11.3217 22 12.7051C22 14.0884 21.7373 15.3884 21.212 16.6051C20.6873 17.8217 19.975 18.8801 19.075 19.7801C18.175 20.6801 17.1167 21.3924 15.9 21.9171C14.6833 22.4424 13.3833 22.7051 12 22.7051ZM9.1 20.1551L10.3 17.4051C9.6 17.1551 8.996 16.7674 8.488 16.2421C7.97933 15.7174 7.58333 15.1051 7.3 14.4051L4.55 15.5551C4.93333 16.6217 5.525 17.5551 6.325 18.3551C7.125 19.1551 8.05 19.7551 9.1 20.1551ZM7.3 11.0051C7.58333 10.3051 7.97933 9.69275 8.488 9.16808C8.996 8.64275 9.6 8.25508 10.3 8.00508L9.15 5.25508C8.08333 5.65508 7.15 6.25508 6.35 7.05508C5.55 7.85508 4.95 8.78841 4.55 9.85508L7.3 11.0051ZM12 15.7051C12.8333 15.7051 13.5417 15.4134 14.125 14.8301C14.7083 14.2467 15 13.5384 15 12.7051C15 11.8717 14.7083 11.1634 14.125 10.5801C13.5417 9.99674 12.8333 9.70508 12 9.70508C11.1667 9.70508 10.4583 9.99674 9.875 10.5801C9.29167 11.1634 9 11.8717 9 12.7051C9 13.5384 9.29167 14.2467 9.875 14.8301C10.4583 15.4134 11.1667 15.7051 12 15.7051ZM14.9 20.1551C15.95 19.7551 16.871 19.1594 17.663 18.3681C18.4543 17.5761 19.05 16.6551 19.45 15.6051L16.7 14.4051C16.45 15.1051 16.0667 15.7091 15.55 16.2171C15.0333 16.7257 14.4333 17.1217 13.75 17.4051L14.9 20.1551ZM16.7 10.9551L19.45 9.80508C19.05 8.75508 18.4543 7.83408 17.663 7.04208C16.871 6.25074 15.95 5.65508 14.9 5.25508L13.75 8.05508C14.4333 8.30508 15.025 8.68408 15.525 9.19208C16.025 9.70075 16.4167 10.2884 16.7 10.9551Z" fill="#FEF9EA"/>
</g>
</svg>
