<svg width="35" height="35" viewBox="0 0 35 35" fill="none" xmlns="http://www.w3.org/2000/svg">
<path d="M34.845 1.467V25.425C34.8441 26.2378 34.5203 27.0169 33.945 27.591L27.426 34.148C27.4139 34.1641 27.4002 34.1788 27.385 34.192L27.321 34.253C27.1498 34.411 26.9479 34.5322 26.7279 34.609C26.5079 34.6857 26.2744 34.7164 26.042 34.6992C25.8097 34.6819 25.5833 34.6171 25.3771 34.5087C25.1708 34.4003 24.989 34.2506 24.843 34.069C24.6109 33.7618 24.49 33.3849 24.5 33L24.465 24.222V24.207C24.4656 23.8697 24.3481 23.5428 24.133 23.283C24.1035 23.2384 24.07 23.1966 24.033 23.158C19.654 18.758 16.946 16.033 12.718 11.779C12.581 11.6419 12.4184 11.5331 12.2393 11.4589C12.0603 11.3847 11.8683 11.3465 11.6745 11.3465C11.4807 11.3465 11.2888 11.3847 11.1097 11.4589C10.9307 11.5331 10.768 11.6419 10.631 11.779C7.52301 14.907 5.22301 17.205 2.48801 19.951C2.28505 20.1563 2.02556 20.2965 1.74262 20.3538C1.45967 20.4111 1.16607 20.3829 0.899222 20.2728C0.632372 20.1626 0.404352 19.9755 0.244211 19.7353C0.084071 19.4951 -0.000940244 19.2127 7.84451e-06 18.924V10.737C0.000146793 10.1456 0.235006 9.57839 0.653008 9.16L9.16001 0.653C9.57852 0.235185 10.1456 0.000358343 10.737 3.41328e-07H33.378C33.5707 -0.00013114 33.7615 0.0377242 33.9396 0.111401C34.1176 0.185078 34.2794 0.293132 34.4156 0.429381C34.5519 0.565631 34.6599 0.727404 34.7336 0.905448C34.8073 1.08349 34.8451 1.27431 34.845 1.467Z" fill="#0E0E0B"/>
</svg>
