<svg width="24" height="24" viewBox="0 0 24 24" fill="none" xmlns="http://www.w3.org/2000/svg">
<g id="Amenities">
<g id="Group 171">
<g id="Group 170">
<path id="Path 244" d="M11.2662 20.2084V16.5163L8.40161 19.3809C8.14424 19.6382 7.7278 19.6405 7.46775 19.3862L7.45748 19.3764C7.19296 19.1177 7.19028 18.6932 7.45212 18.4314L11.2662 14.6173V12.6066H9.25548L5.50889 16.3532C5.25599 16.6061 4.84805 16.6133 4.58621 16.3693L4.57593 16.3599C4.30069 16.1034 4.2931 15.67 4.55896 15.4042L7.3565 12.6066H3.66442C3.29758 12.6066 3 12.309 3 11.9422V11.9306C3 11.5633 3.29758 11.2662 3.66442 11.2662H7.3565L4.47495 8.38463C4.2158 8.12547 4.2158 7.70457 4.47495 7.44497L4.49506 7.42531C4.75511 7.16526 5.17646 7.1657 5.43562 7.42665L9.25548 11.2662H11.2662V9.23314L7.52495 5.49192C7.26981 5.23678 7.2649 4.82437 7.51422 4.56342L7.53344 4.54332C7.79125 4.27299 8.22154 4.26897 8.48516 4.53393L11.2662 7.33415V3.66442C11.2662 3.29714 11.5638 3 11.9306 3H11.9422C12.309 3 12.6066 3.29714 12.6066 3.66442V7.33415L15.4824 4.45842C15.7442 4.19658 16.1691 4.19927 16.4274 4.46378L16.4372 4.47406C16.6915 4.73411 16.6892 5.15055 16.4319 5.40791L12.6066 9.23314V11.2662H14.6397L18.3979 7.50797C18.6552 7.2506 19.0717 7.24837 19.3317 7.50261L19.342 7.51244C19.6065 7.7707 19.6092 8.19562 19.3474 8.45746L16.5386 11.2662H20.2084C20.5752 11.2662 20.8728 11.5633 20.8728 11.9306V11.9422C20.8728 12.309 20.5752 12.6066 20.2084 12.6066H16.5386L19.3894 15.4766C19.6432 15.7321 19.6472 16.1428 19.3992 16.4033L19.3987 16.4037C19.1414 16.6736 18.712 16.679 18.4479 16.4149L14.6397 12.6066H12.6066V14.6173L16.4399 18.4703C16.6937 18.7258 16.6982 19.1369 16.4497 19.3974C16.1924 19.6673 15.763 19.6726 15.4989 19.4086L12.6066 16.5163V20.2084C12.6066 20.5752 12.309 20.8728 11.9422 20.8728H11.9306C11.5638 20.8728 11.2662 20.5752 11.2662 20.2084Z" fill="#101014"/>
</g>
</g>
</g>
</svg>
