<svg width="64" height="75" viewBox="0 0 64 75" fill="none" xmlns="http://www.w3.org/2000/svg">
<g id="Arsenal_FC">
<g id="Path 29">
<path d="M31.913 1.12537C24.5331 1.12537 10.925 3.03468 3.99486 7.06452C-5.12931 39.4129 7.27952 61.4105 31.913 73.896C56.5468 61.4105 68.9556 39.304 59.8312 7.06472C52.8942 3.03468 39.2928 1.12537 31.913 1.12537Z" fill="#9C824A"/>
<path d="M31.913 1.12537C24.5331 1.12537 10.925 3.03468 3.99486 7.06452C-5.12931 39.4129 7.27952 61.4105 31.913 73.896C56.5468 61.4105 68.9556 39.304 59.8312 7.06472C52.8942 3.03468 39.2928 1.12537 31.913 1.12537ZM31.913 1.12537V1.12537Z" stroke="#9C824A" stroke-width="0.793"/>
</g>
<g id="Path 30">
<path d="M31.9131 3.2052C24.6627 3.2052 16.4992 4.13259 5.80745 8.49653C-2.15162 36.7332 7.0818 59.3651 31.9131 71.7002C56.7444 59.3651 65.9709 36.7331 58.0118 8.49653C47.3201 4.13259 39.1634 3.2052 31.9131 3.2052Z" fill="#023474"/>
<path d="M31.9131 3.2052C24.6627 3.2052 16.4992 4.13259 5.80745 8.49653C-2.15162 36.7332 7.0818 59.3651 31.9131 71.7002C56.7444 59.3651 65.9709 36.7331 58.0118 8.49653C47.3201 4.13259 39.1634 3.2052 31.9131 3.2052ZM31.9131 3.2052V3.2052Z" stroke="#023474" stroke-width="0.793"/>
</g>
<g id="Path 31">
<path d="M31.8788 3.17792C24.6624 3.17792 16.9146 4.24836 9.92302 6.89421C2.67265 35.806 8.02196 56.917 31.9197 71.6798L31.8788 3.17792ZM31.9197 71.6798C55.8173 56.917 61.1599 35.806 53.9093 6.89421C46.9179 4.24836 39.1768 3.17792 31.9606 3.17792L31.9197 71.6798Z" fill="white"/>
<path d="M31.8788 3.17792C24.6624 3.17792 16.9146 4.24836 9.92302 6.89421C2.67265 35.806 8.02196 56.917 31.9197 71.6798M31.8788 3.17792L31.9197 71.6798M31.8788 3.17792V3.17792ZM31.9197 71.6798C55.8173 56.917 61.1599 35.806 53.9093 6.89421C46.9179 4.24836 39.1768 3.17792 31.9606 3.17792L31.9197 71.6798ZM31.9197 71.6798V71.6798Z" stroke="white" stroke-width="0.793"/>
</g>
<g id="Path 32">
<path d="M31.9202 3.1712C24.663 3.1712 17.3172 4.26891 11.3479 6.34853C3.83847 36.6514 9.86903 57.1146 31.927 71.1L31.9202 3.1712Z" fill="#EF0107"/>
<path d="M31.9202 3.1712C24.663 3.1712 17.3172 4.26891 11.3479 6.34853C3.83847 36.6514 9.86903 57.1146 31.927 71.1L31.9202 3.1712ZM31.9202 3.1712V3.1712Z" stroke="#EF0107" stroke-width="0.793"/>
</g>
<g id="Path 33">
<path d="M31.9335 3.1712C39.1906 3.1712 46.5366 4.26891 52.5126 6.34853C60.022 36.6514 53.9912 57.1146 31.9268 71.1L31.9335 3.1712Z" fill="#DB0007"/>
<path d="M31.9335 3.1712C39.1906 3.1712 46.5366 4.26891 52.5126 6.34853C60.022 36.6514 53.9912 57.1146 31.9268 71.1L31.9335 3.1712ZM31.9335 3.1712V3.1712Z" stroke="#DB0007" stroke-width="0.793"/>
</g>
<path id="Path 34" d="M22.5438 48.898C19.3411 51.094 16.7926 51.8849 13.8351 52.669L12.0498 49.8938C14.7688 48.5165 17.5831 46.6003 20.4179 43.8252C20.6563 46.5183 21.9099 48.4274 22.5438 48.898Z" fill="white"/>
<path id="Path 35" d="M22.1073 48.7822C19.0682 50.8686 14.8364 52.3211 9.99149 53.0302L9.00342 51.5302C13.1533 49.9752 17.1601 47.6571 20.2675 44.3978C20.7377 46.4841 21.4531 47.8685 22.1073 48.7822Z" fill="#9C824A"/>
<path id="Path 36" d="M14.0119 36.0378C14.0119 37.2039 13.0717 38.1449 11.9064 38.1449C10.7411 38.1449 9.79395 37.2039 9.79395 36.0378C9.79395 34.8717 10.7411 33.9309 11.9064 33.9309C13.0717 33.9309 14.0119 34.8717 14.0119 36.0378Z" fill="white"/>
<path id="Path 37" d="M13.7871 31.8851V39.8359H20.0494C20.4582 37.1697 21.971 34.3399 25.3985 31.8851H13.7871Z" fill="white"/>
<path id="Path 38" d="M14.0394 39.8359C12.6423 39.8562 11.4909 38.1038 11.4703 35.9082C11.4567 33.7124 12.5744 31.9123 13.9781 31.8851C13.9918 31.8851 14.0054 31.8851 14.0259 31.8851" fill="white"/>
<path id="Path 39" d="M13.1261 36.0378C13.1261 36.9379 12.4719 37.6608 11.6678 37.6608C10.8636 37.6608 10.2095 36.9381 10.2095 36.0378C10.2095 35.1376 10.8636 34.4149 11.6678 34.4149C12.4719 34.4147 13.1261 35.1376 13.1261 36.0378Z" fill="#9C824A"/>
<path id="Path 40" d="M13.9575 32.3011V39.447H20.1722C20.6628 37.0742 21.869 34.5513 24.8808 32.3011H13.9575Z" fill="#9C824A"/>
<path id="Path 41" d="M14.1892 39.447C12.8739 39.4745 11.7973 37.8926 11.777 35.9218C11.7634 33.9512 12.8196 32.3282 14.1346 32.3011C14.1483 32.3011 14.1619 32.3011 14.1755 32.3011" fill="#9C824A"/>
<path id="Path 42" d="M43.8039 41.6974C43.8039 48.3323 38.4344 53.7053 31.804 53.7053C25.1806 53.7053 19.8042 48.3323 19.8042 41.6974C19.8042 35.0628 25.1806 29.6895 31.804 29.6895C38.4344 29.6895 43.8039 35.0628 43.8039 41.6974Z" fill="white"/>
<path id="Path 43" d="M43.1774 41.6974C43.1774 47.9845 38.0869 53.0778 31.8042 53.0778C25.5283 53.0778 20.438 47.9845 20.438 41.6974C20.438 35.4174 25.5283 30.317 31.8042 30.317C38.0869 30.3167 43.1774 35.4105 43.1774 41.6974Z" fill="#9C824A"/>
<path id="Path 44" d="M41.2893 41.6974C41.2893 46.9411 37.0439 51.1894 31.8038 51.1894C26.5705 51.1894 22.3252 46.9411 22.3252 41.6974C22.3252 36.4537 26.5705 32.2055 31.8038 32.2055C37.0439 32.2055 41.2893 36.4537 41.2893 41.6974Z" fill="white"/>
<path id="Path 45" d="M40.6627 41.6974C40.6627 46.5931 36.6966 50.555 31.8039 50.555C26.9181 50.555 22.9521 46.5931 22.9521 41.6974C22.9521 36.8016 26.9181 32.8399 31.8039 32.8399C36.6966 32.8397 40.6627 36.8016 40.6627 41.6974Z" fill="#9C824A"/>
<path id="Path 46" d="M35.4971 41.6974C35.504 43.7364 33.8481 45.3934 31.8105 45.4001C29.7664 45.4001 28.1104 43.7433 28.1104 41.7043V41.6974C28.1104 39.6585 29.7595 38.0017 31.8036 38.0017C33.841 37.995 35.4969 39.652 35.4969 41.6907C35.4971 41.6974 35.4971 41.6974 35.4971 41.6974Z" fill="white"/>
<path id="Path 47" d="M35.0615 41.6974C35.0615 43.4978 33.6097 44.9569 31.811 44.9569C30.0121 44.9569 28.5538 43.5047 28.5469 41.7045V41.6976C28.5469 39.8975 30.0052 38.438 31.8041 38.438C33.603 38.438 35.0615 39.8906 35.0615 41.6907V41.6974Z" fill="#9C824A"/>
<path id="Path 48" d="M33.4805 41.6974C33.4805 42.6179 32.7309 43.3678 31.8043 43.3746C30.8844 43.3746 30.1348 42.6248 30.1348 41.6974C30.1348 40.7702 30.8844 40.0269 31.8043 40.0202C32.7307 40.02 33.4805 40.7702 33.4805 41.6974Z" fill="white"/>
<path id="Path 49" d="M33.0171 41.6974C33.0171 42.3656 32.4787 42.9111 31.8042 42.9111C31.1364 42.9111 30.5913 42.3723 30.5913 41.6974C30.5913 41.0294 31.1364 40.4839 31.8042 40.4839C32.4718 40.4837 33.0171 41.0223 33.0171 41.6974Z" fill="#9C824A"/>
<rect id="Rectangle 19" x="30.5298" y="32.6353" width="2.52124" height="5.88443" fill="white"/>
<rect id="Rectangle 20" x="30.9248" y="31.7896" width="1.73747" height="7.4802" fill="#9C824A"/>
<path id="Path 50" d="M38.8298 35.9558L40.2063 38.0696L35.2729 41.2748L33.9033 39.1608L38.8298 35.9558Z" fill="white"/>
<path id="Path 51" d="M39.7497 35.8264L40.6969 37.2857L34.4276 41.3633L33.4805 39.8973L39.7497 35.8264Z" fill="#9C824A"/>
<path id="Path 52" d="M28.2674 42.1747L29.6166 44.3021L24.649 47.4526L23.2998 45.3182L28.2674 42.1747Z" fill="white"/>
<path id="Path 53" d="M29.1124 42.052L30.0459 43.5249L23.736 47.5275L22.8022 46.0546L29.1124 42.052Z" fill="#9C824A"/>
<rect id="Rectangle 21" x="30.5298" y="45.0729" width="2.52124" height="5.88424" fill="white"/>
<rect id="Rectangle 22" x="30.9248" y="44.2341" width="1.73747" height="7.47329" fill="#9C824A"/>
<g id="Path 54">
<path d="M29.3445 44.4454C29.6853 44.7317 30.06 44.9909 30.5302 45.1886L30.5165 50.4391C28.1383 50.1322 26.3394 48.9595 24.9766 47.289L29.3514 44.4454" fill="#EF0107"/>
<path d="M29.3445 44.4454C29.6853 44.7317 30.06 44.9909 30.5302 45.1886L30.5165 50.4391C28.1383 50.1322 26.3394 48.9595 24.9766 47.289L29.3514 44.4454" stroke="#EF0107" stroke-width="0.3115"/>
</g>
<g id="Path 55">
<path d="M34.2569 44.4659C33.9094 44.7455 33.5413 45.0114 33.0713 45.2023L33.078 50.4529C35.4562 50.1461 37.2553 48.9733 38.6182 47.3027L34.2502 44.4661" fill="#DB0007"/>
<path d="M34.2569 44.4659C33.9094 44.7455 33.5413 45.0114 33.0713 45.2023L33.078 50.4529C35.4562 50.1461 37.2553 48.9733 38.6182 47.3027L34.2502 44.4661" stroke="#DB0007" stroke-width="0.3115"/>
</g>
<path id="Path 56" d="M35.4494 42.2634L40.6555 41.6359C40.6964 42.9381 40.3828 44.0838 39.9398 45.1817L35.4355 42.2634" fill="#DB0007"/>
<g id="Path 57">
<path d="M35.4565 42.2428C35.4769 42.161 35.4702 42.0862 35.5043 41.8475L40.6425 41.1793C40.6628 41.418 40.6492 41.5065 40.6425 41.6155L35.4565 42.2428Z" fill="white"/>
<path d="M35.4565 42.2428C35.4769 42.161 35.4702 42.0862 35.5043 41.8475L40.6425 41.1793C40.6628 41.418 40.6492 41.5065 40.6425 41.6155L35.4565 42.2428ZM35.4565 42.2428V42.2428Z" stroke="white" stroke-width="0.3115"/>
</g>
<path id="Path 58" d="M43.0615 37.9131H49.8009C49.5896 38.7107 49.3851 39.5221 48.4174 39.8836C46.8705 40.4635 43.6612 41.0224 43.6612 41.0224C43.5997 40.1426 43.4022 38.9492 43.0615 37.9131Z" fill="white"/>
<path id="Path 59" d="M38.3662 31.7693L55.9742 31.7896L55.3542 38.2265L43.3268 38.8539C42.6794 35.9763 40.4919 33.2285 38.3662 31.7693Z" fill="white"/>
<path id="Path 60" d="M38.9932 32.2261L61.4735 32.2464L60.6149 37.4903L43.1703 38.3496C42.4819 35.7446 40.908 33.8422 38.9932 32.2261Z" fill="#9C824A"/>
<path id="Path 61" d="M43.0615 37.9131H49.2691C49.0648 38.622 48.9216 39.2698 48.0086 39.5903C46.5572 40.1085 43.6339 40.5176 43.6339 40.5176C43.5112 39.6655 43.334 38.7994 43.0615 37.9131Z" fill="#9C824A"/>
<path id="Path 62" d="M36.2471 22.4206C36.2471 22.7071 36.1858 23.4913 36.1519 23.7094H39.6408C39.4292 22.7818 39.3338 21.4933 39.3067 20.4977C39.3067 20.5659 39.2455 18.4997 39.2455 18.4997C39.2455 18.3564 39.3067 18.1383 39.3952 18.0702C39.5181 17.9269 39.6408 17.9269 39.7908 17.9269C39.9405 17.8587 40.2132 17.8587 40.2472 18.4248L40.3359 20.5659C40.3699 21.5681 40.3699 22.9252 40.2472 23.7094H43.6067C43.5793 23.4229 43.484 22.7069 43.4568 22.4955C43.8792 23.4229 44.7924 23.9206 46.0053 23.9206C46.7276 23.9206 47.2794 23.6409 47.702 23.3546C47.702 23.4227 47.8793 23.7094 47.8793 23.7094H54.1212C53.8486 22.7818 53.6713 21.4933 53.5761 20.4977L52.6969 13.5015L49.4873 12.9288C49.7602 13.8562 49.9441 15.2131 50.0597 16.1405L50.5503 20.6409C50.639 21.4251 50.7004 22.2843 50.7004 23.2115V23.2797L50.5775 22.9932C50.3323 22.4204 50.2164 21.7114 50.1209 20.6407L50.0052 19.2088C49.8212 16.9244 48.581 15.9287 45.8484 15.9287C45.3987 15.9287 44.2471 15.9969 43.5453 16.2152L43.7292 18.779L44.4585 18.3562C45.065 17.9949 45.5147 17.8517 46.0596 17.8517C46.4891 17.8517 46.7616 17.9951 46.8843 18.2814C46.3666 18.3562 45.7939 18.4995 45.1535 18.779C44.1858 19.2086 43.5793 19.8562 43.3068 20.5655V20.4973L43.2114 18.1379C43.157 16.6378 42.1826 15.6422 40.6969 15.6422C40.036 15.6422 39.4292 15.8536 38.8843 16.215C38.8503 16.1399 38.8231 16.0715 38.7889 15.9967L38.6662 15.7102L35.879 15.567C36.0017 16.0715 36.1859 17.4968 36.2131 17.9947C36.063 17.2854 35.6678 16.5013 34.9386 15.9285C34.3664 15.5672 33.6371 15.3557 32.8808 15.3557C31.8517 15.3557 30.7887 15.7853 30.0937 16.5013C29.3646 17.2103 29.0033 18.2128 28.9693 19.3516C28.6968 19.0651 28.3357 18.7856 27.913 18.6425L26.6387 17.9947H26.5774C26.2777 17.8513 26.2435 17.7831 26.2435 17.7149C26.2777 17.5717 26.5774 17.4285 26.9728 17.4285C27.5179 17.4285 28.2744 17.7149 28.8808 18.0696L28.942 15.7853C28.4854 15.567 27.8518 15.4306 26.9386 15.4306C26.4548 15.4306 25.5485 15.4988 24.758 15.9283C24.5466 16.0715 24.3626 16.2148 24.1856 16.358L24.2129 15.71C23.4838 15.5737 22.7001 15.5737 21.7323 16.5011C21.6984 16.426 21.6369 16.0714 21.5757 15.9283L18.5775 16.0715C18.7887 16.9241 18.8227 18.1378 18.7614 19.2084L18.7002 20.3539V20.4971C18.666 21.0699 18.6389 21.7108 18.5775 22.2836C18.3321 21.4925 18.0664 20.4221 17.8482 19.5697L16.3629 12.86L12.1243 13.501C12.1516 13.5691 12.2128 13.7874 12.247 13.9986C12.2745 14.2851 12.2745 14.8579 11.8791 16.0715C11.1841 17.9947 10.2163 20.9266 9.27609 22.9926C9.1534 23.2791 8.9082 23.7086 8.9082 23.7086H12.213C12.2745 23.2108 12.4857 22.3517 12.6969 21.7106C13.1535 21.7106 14.3324 21.7106 14.8773 21.6355C15 22.1401 15.1227 22.781 15.1569 23.2106L15.2114 23.7084H21.8212C21.6713 22.6378 21.7325 21.2126 21.7873 20.4217C21.8485 19.4943 22.0324 18.8534 22.4278 18.4987C22.7275 18.1374 23.0614 18.0692 23.3068 18.0692C23.2728 19.351 24.0906 19.924 24.8196 20.2784L26.121 20.9261C26.5776 21.2126 26.5776 21.2807 26.5776 21.4239C26.5504 21.6353 26.1823 21.7104 25.8486 21.7104C25.1535 21.7104 24.2131 21.2807 23.1841 20.1421L23.1229 23.1355C23.9406 23.565 24.9696 23.7764 25.8828 23.7764C27.3956 23.7764 29.0036 23.0671 29.4263 21.7102C30.1826 23.1353 31.6681 23.7764 33.1264 23.7764C34.4276 23.7776 35.3952 23.3546 36.2471 22.4206ZM13.4874 19.4952C13.6713 18.9976 13.8211 18.5678 14.0937 17.7837C14.2777 18.5678 14.3662 19.0657 14.4549 19.4271C14.0937 19.4952 13.9098 19.4952 13.4874 19.4952ZM32.0358 18.7111C32.0358 17.7155 32.397 17.286 32.7583 17.286C32.881 17.286 33.1535 17.2109 33.276 17.7155C33.3372 17.9269 33.3645 18.0702 33.3645 18.1383C33.3645 18.4248 33.2147 18.4997 33.0308 18.4997V18.5678C33.0308 18.5678 32.5197 18.7111 32.0358 18.9292C32.0358 18.8543 32.0358 18.7861 32.0358 18.7111ZM35.4906 20.784C34.8499 21.35 34.3935 21.7114 33.6371 21.7114C33.0308 21.6363 32.6694 21.2817 32.4582 20.784C33.092 20.5659 35.5451 19.6385 36.2469 19.352C36.2469 19.9247 36.2744 20.5657 36.2744 20.5657V21.7795L35.4906 20.784ZM46.7886 21.7797C46.2165 21.7797 46.0936 21.35 46.0663 21.0705C46.0936 20.784 46.1821 20.3545 47.0951 20.0682C47.1226 20.4228 47.1564 20.7091 47.1564 20.7091V20.9954C47.1838 21.2135 47.1838 21.4249 47.2109 21.6363C47.0953 21.7114 46.9455 21.7114 46.7886 21.7797Z" fill="#9C824A"/>
<path id="Path 63" d="M28.4243 16.1405C28.1246 16.0723 27.668 15.9291 26.9389 15.9291C26.3666 15.9291 25.61 16.0723 25.0308 16.3588C24.3629 16.7883 23.8791 17.3543 23.8518 18.0022C23.7906 18.9977 24.3084 19.4272 25.0647 19.7819C25.5759 20.0684 26.0664 20.3546 26.3664 20.4979C26.7615 20.7093 27.1227 20.9274 27.0954 21.4253C27.0614 21.9231 26.6048 22.2845 25.8485 22.2845C25.2147 22.2845 24.3084 21.855 23.6679 21.282L23.6406 22.7822C24.1857 23.0687 25.0647 23.2117 25.8825 23.2117C27.2726 23.2117 29.0034 22.5708 29.0306 20.9956C29.0646 19.7819 28.2131 19.3522 27.702 19.0726C27.1841 18.8545 26.6661 18.5682 26.4278 18.4999C26.1824 18.3566 25.6986 18.2136 25.7327 17.6406C25.7873 17.1429 26.3666 16.9246 26.9729 16.9246C27.484 16.9246 28.0019 17.0679 28.397 17.286" fill="white"/>
<path id="Path 64" d="M15.9745 13.5015L12.7581 13.9311C12.8196 14.3608 12.6969 15.2131 12.363 16.2153C11.7021 18.1383 10.6117 21.3498 9.75977 23.2113H11.7634C11.8791 22.5637 12.0291 21.9976 12.3357 21.2135L15.3068 21.1384C15.4226 21.7112 15.6407 22.6386 15.668 23.2113H18.3665C18.0326 22.4204 17.6102 20.7838 17.3377 19.6383L15.9745 13.5015ZM12.7581 19.9931L14.2164 15.7858L15.0956 19.9249" fill="white"/>
<path id="Path 65" d="M23.6678 16.1405L23.6065 17.5725C23.1227 17.4976 22.5163 17.6407 22.0325 18.1385C21.6099 18.568 21.3374 19.2092 21.2762 20.3547C21.2147 21.2821 21.1875 22.3527 21.242 23.2117H18.9727C19.1226 22.3527 19.1841 21.3569 19.2111 20.423L19.2724 19.2842C19.3336 18.3568 19.3336 17.4294 19.1839 16.5704L21.1873 16.5022C21.276 16.7887 21.3372 17.2864 21.3032 17.7841C22.1822 16.4268 23.034 16.1405 23.6678 16.1405Z" fill="white"/>
<path id="Path 66" d="M52.247 13.9311L50.1821 13.5697C50.3935 14.504 50.4548 15.1449 50.5775 16.0721L51.0615 20.5659C51.1567 21.4932 51.2455 22.3525 51.218 23.2115H53.46C53.2419 22.3525 53.1534 21.4932 53.0648 20.5659" fill="white"/>
<path id="Path 67" d="M43 23.2115C42.884 22.3525 42.8225 21.4933 42.7884 20.5659L42.6998 18.2134C42.6386 16.9247 41.9095 16.2156 40.6964 16.2156C40.0356 16.2156 39.2449 16.427 38.5773 17.286C38.55 17.0679 38.4546 16.5019 38.3321 16.2156L36.5195 16.1405C36.6693 16.9997 36.7307 17.8521 36.7578 18.7794L36.792 20.5659C36.8192 21.4933 36.792 22.3525 36.7307 23.2115H38.9999C38.8839 22.3525 38.8226 21.4933 38.7885 20.5659L38.7272 18.568C38.7 17.8521 39.2451 17.3542 39.7904 17.3542C40.424 17.3542 40.7306 17.7837 40.7581 18.4248L40.8533 20.5659C40.8808 21.4933 40.8808 22.3525 40.8193 23.2115" fill="white"/>
<path id="Path 68" d="M50.0935 23.2115C49.821 22.4955 49.671 21.6365 49.6096 20.7091L49.4867 19.2838C49.364 17.5723 48.6421 16.4268 45.848 16.4268C45.3641 16.4268 44.6691 16.5018 44.0969 16.6382L44.1854 17.9269C44.7576 17.5723 45.3371 17.286 46.0661 17.286C46.8224 17.286 47.4562 17.6406 47.5177 18.7111C46.7884 18.7861 46.1207 18.9225 45.3643 19.2838C44.5195 19.6385 43.6403 20.3544 43.7288 21.493C43.8173 22.7818 44.7918 23.3545 46.0049 23.3545C46.9451 23.3545 47.5789 22.925 47.9401 22.4955C48.0014 22.7818 48.0968 22.9932 48.1853 23.2115H50.0935ZM46.7884 22.2841C46.1205 22.2841 45.5757 21.9228 45.5483 21.1386C45.5483 20.3544 46.0321 19.7135 47.5789 19.4952L47.6676 20.7091C47.7016 21.1386 47.7016 21.4251 47.7629 21.7797C47.5451 22.066 47.1838 22.2092 46.7884 22.2841Z" fill="white"/>
<path id="Path 69" d="M34.6388 16.3586C34.1211 15.9972 33.5146 15.854 32.881 15.854C31.3954 15.854 29.426 16.9246 29.4872 19.6385C29.5145 22.4206 31.6406 23.2797 33.1262 23.2797C34.4276 23.2797 35.2183 22.7818 35.8517 22.1409L35.3951 21.4931C35.0614 21.7795 34.5161 22.209 33.6371 22.209C32.6966 22.1409 32.097 21.493 31.7631 20.4975L35.8789 18.9973C35.7563 17.6406 35.2726 16.8565 34.6388 16.3586ZM33.2147 18.9975L31.5791 19.6385C31.5452 19.3522 31.5179 19.0657 31.5179 18.7111C31.5179 17.0677 32.4241 16.7814 32.7306 16.7814C33.2147 16.7132 33.6371 16.9995 33.7936 17.5723C33.971 18.2134 33.9097 18.7861 33.2147 18.9975Z" fill="white"/>
<path id="Path 70" d="M23.5176 37.5857L24.9008 35.4786L29.8208 38.697L28.4374 40.8108L23.5176 37.5857Z" fill="white"/>
<path id="Path 71" d="M23.0615 36.8628L24.0156 35.4036L30.2643 39.5015L29.3102 40.961L23.0615 36.8628Z" fill="#9C824A"/>
<path id="Path 72" d="M34.0186 44.2954L35.4018 42.1814L40.3215 45.4067L38.9383 47.5207L34.0186 44.2954Z" fill="white"/>
<path id="Path 73" d="M33.562 43.5725L34.5161 42.1135L40.765 46.2115L39.8109 47.664L33.562 43.5725Z" fill="#9C824A"/>
</g>
</svg>
