<svg width="24" height="24" viewBox="0 0 24 24" fill="none" xmlns="http://www.w3.org/2000/svg">
<g id="Amenities">
<mask id="mask0_3015_7851" style="mask-type:alpha" maskUnits="userSpaceOnUse" x="0" y="0" width="24" height="24">
<rect id="Bounding box" width="24" height="24" fill="#D9D9D9"/>
</mask>
<g mask="url(#mask0_3015_7851)">
<path id="desktop_windows" d="M8.5 20.5V19H10.5V17H4.3C3.8 17 3.375 16.825 3.025 16.475C2.675 16.125 2.5 15.7 2.5 15.2V5.3C2.5 4.8 2.675 4.375 3.025 4.025C3.375 3.675 3.8 3.5 4.3 3.5H19.7C20.2 3.5 20.625 3.675 20.975 4.025C21.325 4.375 21.5 4.8 21.5 5.3V15.2C21.5 15.7 21.325 16.125 20.975 16.475C20.625 16.825 20.2 17 19.7 17H13.5V19H15.5V20.5H8.5ZM4.3 15.5H19.7C19.7667 15.5 19.8333 15.4667 19.9 15.4C19.9667 15.3333 20 15.2667 20 15.2V5.3C20 5.23333 19.9667 5.16667 19.9 5.1C19.8333 5.03333 19.7667 5 19.7 5H4.3C4.23333 5 4.16667 5.03333 4.1 5.1C4.03333 5.16667 4 5.23333 4 5.3V15.2C4 15.2667 4.03333 15.3333 4.1 15.4C4.16667 15.4667 4.23333 15.5 4.3 15.5Z" fill="#101014"/>
</g>
</g>
</svg>
