<svg width="15" height="15" viewBox="0 0 15 15" fill="none" xmlns="http://www.w3.org/2000/svg">
<path d="M0.25 10.7508V4.98856C0.274896 4.88031 0.294192 4.77084 0.307812 4.66059C0.321462 3.79385 0.641566 2.95995 1.21138 2.3067C1.78119 1.65345 2.5639 1.22306 3.42075 1.09183C3.70314 1.0329 3.99443 0.999549 4.28348 0.955078H10.0458C10.154 0.979974 10.2635 0.99927 10.3737 1.01289C11.2405 1.02654 12.0744 1.34664 12.7276 1.91646C13.3809 2.48627 13.8113 3.26898 13.9425 4.12583C14.0014 4.41156 14.0348 4.70284 14.0792 4.9919V10.7508C14.0547 10.8584 14.0357 10.9671 14.0225 11.0766C14.0094 11.9437 13.6896 12.7782 13.1197 13.4319C12.5498 14.0856 11.7668 14.5163 10.9096 14.6476C10.6239 14.7065 10.3315 14.7399 10.0424 14.7843H4.28348C4.17523 14.7594 4.06576 14.7401 3.95551 14.7265C3.08878 14.7129 2.25487 14.3928 1.60162 13.8229C0.948369 13.2531 0.51798 12.4704 0.386747 11.6136C0.327824 11.3312 0.294471 11.0399 0.25 10.7508ZM12.7618 7.87359H12.8485C12.8174 6.81853 12.8174 5.76124 12.7474 4.70951C12.7538 4.38859 12.695 4.06969 12.5747 3.77211C12.4544 3.47454 12.2749 3.20446 12.0472 2.97821C11.8195 2.75197 11.5483 2.57426 11.25 2.45583C10.9516 2.3374 10.6324 2.28071 10.3115 2.2892C8.21246 2.23064 6.1116 2.23064 4.00888 2.2892C3.68696 2.27651 3.36591 2.33059 3.06591 2.44803C2.76591 2.56547 2.49346 2.74373 2.26571 2.97159C2.03795 3.19944 1.85982 3.47197 1.74252 3.77202C1.62522 4.07208 1.57129 4.39316 1.58412 4.71507C1.52482 6.81408 1.52482 8.91458 1.58412 11.0166C1.57215 11.3403 1.62734 11.6629 1.74623 11.9642C1.86512 12.2655 2.04512 12.539 2.2749 12.7673C2.50467 12.9956 2.77924 13.1739 3.08131 13.2908C3.38337 13.4078 3.70639 13.4609 4.03 13.4469C6.09122 13.5069 8.15576 13.5125 10.217 13.4469C10.5519 13.4667 10.8873 13.4159 11.2014 13.2977C11.5154 13.1795 11.8011 12.9965 12.0398 12.7607C12.2786 12.5249 12.465 12.2416 12.5871 11.929C12.7092 11.6164 12.7642 11.2817 12.7485 10.9465C12.8063 9.92369 12.7596 8.89419 12.7596 7.86804" fill="#F7F6F5"/>
<path d="M7.16764 4.30615C7.87141 4.30792 8.55886 4.51837 9.143 4.9109C9.72714 5.30344 10.1817 5.8604 10.4493 6.51134C10.7168 7.16228 10.7853 7.87795 10.646 8.56781C10.5068 9.25767 10.166 9.89072 9.66688 10.3869C9.16776 10.8831 8.53269 11.22 7.84202 11.3552C7.15134 11.4904 6.43609 11.4177 5.78675 11.1463C5.13741 10.8748 4.58316 10.417 4.1941 9.83049C3.80505 9.24402 3.59868 8.55534 3.6011 7.85157C3.60755 6.9096 3.98605 6.00836 4.65411 5.34425C5.32218 4.68015 6.22565 4.30701 7.16764 4.30615ZM7.15763 5.57356C6.70446 5.5751 6.26188 5.7108 5.88571 5.96353C5.50955 6.21626 5.21664 6.57472 5.04393 6.9937C4.87122 7.41268 4.82643 7.87342 4.91522 8.31782C5.00401 8.76221 5.22239 9.17037 5.54284 9.49082C5.86329 9.81127 6.27145 10.0297 6.71585 10.1184C7.16025 10.2072 7.62099 10.1624 8.03997 9.98973C8.45895 9.81702 8.8174 9.52411 9.07014 9.14795C9.32287 8.77179 9.45856 8.32921 9.4601 7.87603C9.46039 7.57358 9.40104 7.27405 9.28543 6.99457C9.16983 6.71509 9.00024 6.46115 8.78638 6.24729C8.57251 6.03343 8.31858 5.86384 8.0391 5.74823C7.75962 5.63263 7.46008 5.57327 7.15763 5.57356Z" fill="#F7F6F5"/>
<path d="M10.854 4.99744C10.7438 5.00176 10.634 4.98337 10.5312 4.94343C10.4285 4.90349 10.3351 4.84285 10.2568 4.76528C10.1785 4.6877 10.1169 4.59485 10.0761 4.49249C10.0352 4.39014 10.0157 4.28046 10.019 4.17028C10.0301 3.95658 10.1227 3.75528 10.2779 3.60793C10.4331 3.46058 10.6389 3.37842 10.8529 3.37842C11.0668 3.37842 11.2726 3.46058 11.4278 3.60793C11.583 3.75528 11.6756 3.95658 11.6867 4.17028C11.6913 4.28066 11.6729 4.39079 11.6325 4.49363C11.5921 4.59647 11.5307 4.68975 11.4522 4.7675C11.3738 4.84525 11.2799 4.90576 11.1767 4.94516C11.0735 4.98457 10.9632 5.00199 10.8529 4.99632" fill="#F7F6F5"/>
</svg>
