<svg width="24" height="24" viewBox="0 0 24 24" fill="none" xmlns="http://www.w3.org/2000/svg">
<g id="Amenities">
<g id="Group 165">
<g id="Group 164">
<path id="Path 236" d="M8.41014 5.56333H9.78335V8.26397H8.41014V5.56333ZM8.41014 12.0403H9.78335V16.5261H8.41014V12.0403ZM6.37321 21.3095C5.99192 21.3095 5.66738 21.1758 5.40052 20.9089C5.13366 20.6421 5 20.3176 5 19.9363V4.37321C5 3.99192 5.13366 3.66738 5.40052 3.40052C5.66738 3.13366 5.99192 3 6.37321 3H18.2744C18.6557 3 18.9802 3.13366 19.2471 3.40052C19.5139 3.66738 19.6476 3.99192 19.6476 4.37321V19.9363C19.6476 20.3176 19.5139 20.6421 19.2471 20.9089C18.9802 21.1758 18.6557 21.3095 18.2744 21.3095H6.37321ZM6.37321 19.9363H18.2744V10.8273H6.37321V19.9363ZM6.37321 9.45409H18.2744V4.37321H6.37321V9.45409Z" fill="#101014"/>
</g>
</g>
</g>
</svg>
