<svg width="18" height="11" viewBox="0 0 18 11" fill="none" xmlns="http://www.w3.org/2000/svg">
<mask id="mask0_2889_7933" style="mask-type:luminance" maskUnits="userSpaceOnUse" x="0" y="0" width="18" height="11">
<path d="M18 0.415039H0.434265V10.9583H18V0.415039Z" fill="white"/>
</mask>
<g mask="url(#mask0_2889_7933)">
<path d="M16.8473 1.22019H15.4614C15.4613 1.19919 15.4635 1.17824 15.4678 1.15768C15.5462 0.934119 15.6267 0.71268 15.7051 0.489122C15.7221 0.444622 15.7432 0.416015 15.7973 0.416015C16.5107 0.416015 17.2241 0.416015 17.9375 0.416015C17.9568 0.417846 17.9759 0.421032 17.9947 0.425551C17.9746 0.487003 17.9576 0.544217 17.9375 0.599311L16.4542 4.70918L14.9793 8.77773L14.2207 10.8735C14.19 10.9582 14.1889 10.9582 14.0787 10.9582H0.434265C0.448039 10.9116 0.456515 10.8777 0.469229 10.8449L2.09771 6.42772L3.58103 2.40155C3.81483 1.76584 4.04828 1.13013 4.28138 0.494419C4.30468 0.429789 4.33753 0.401182 4.40534 0.409658C4.42355 0.412915 4.44196 0.415038 4.46043 0.416015H13.4865C13.4847 0.43495 13.4816 0.453724 13.4769 0.472169C13.3985 0.695728 13.318 0.917167 13.2417 1.14178C13.2226 1.199 13.193 1.22443 13.1358 1.21807C13.1058 1.2164 13.0757 1.2164 13.0457 1.21807H5.05694C5.02694 1.2196 4.99688 1.2196 4.96688 1.21807C4.90755 1.21171 4.87788 1.2382 4.86093 1.29436C4.67234 1.80716 4.48162 2.32315 4.29197 2.83278L3.1371 5.96365L2.02354 8.99811L1.6241 10.0576C1.61457 10.0852 1.60715 10.1127 1.59444 10.1562H13.4949C13.6157 10.1562 13.6147 10.1562 13.656 10.0428C14.084 8.86249 14.5121 7.68184 14.9401 6.50083C15.2898 5.53596 15.6387 4.57074 15.9869 3.60516L16.8134 1.32084C16.8239 1.29012 16.8324 1.25939 16.8462 1.21489" fill="#F7F6F5"/>
<path d="M10.4732 2.19727C10.7445 2.20346 11.0137 2.24514 11.2742 2.32123C11.4039 2.36319 11.5264 2.42464 11.6376 2.50347C11.7208 2.56848 11.7884 2.65136 11.8354 2.74598C11.8823 2.84061 11.9074 2.94456 11.9088 3.05018C11.9188 3.29409 11.8788 3.53747 11.7912 3.76535C11.6936 4.06697 11.5476 4.35073 11.3589 4.60555C11.0582 5.00369 10.6173 5.27261 10.1257 5.35781C9.85724 5.41133 9.5831 5.43056 9.30983 5.41502C9.03248 5.40987 8.75899 5.34898 8.50566 5.23596C8.37611 5.17564 8.26633 5.07981 8.18906 4.95959C8.11179 4.83938 8.07021 4.69971 8.06913 4.55681C8.06429 4.34959 8.09696 4.14319 8.16555 3.94759C8.26014 3.61677 8.41338 3.30563 8.61797 3.02899C8.9102 2.63718 9.33977 2.37035 9.82052 2.28203C10.0324 2.23965 10.2549 2.22481 10.4732 2.19727ZM9.74954 4.55046C9.88948 4.55385 10.0278 4.51967 10.15 4.45147C10.2722 4.38326 10.374 4.28354 10.4446 4.16267C10.5741 3.96 10.6589 3.73211 10.6936 3.49412C10.7034 3.45249 10.7044 3.40926 10.6966 3.36721C10.6887 3.32516 10.6721 3.28523 10.6478 3.24999C10.6236 3.21476 10.5922 3.18499 10.5557 3.16262C10.5193 3.14025 10.4785 3.12577 10.4361 3.12011C10.4103 3.114 10.3841 3.1094 10.3577 3.10633C10.2012 3.07517 10.039 3.09281 9.89291 3.15686C9.74681 3.2209 9.6239 3.32828 9.54081 3.46445C9.43703 3.63152 9.36016 3.81386 9.31302 4.0048C9.296 4.07916 9.2878 4.15527 9.28864 4.23154C9.28541 4.29215 9.30344 4.35199 9.33961 4.40073C9.37578 4.44948 9.42784 4.48407 9.48678 4.49854C9.57343 4.52003 9.66114 4.53807 9.74954 4.55046Z" fill="#F7F6F5"/>
<path d="M9.17429 5.93855C9.50048 5.94286 9.82331 6.00492 10.1279 6.12185C10.2571 6.1738 10.3693 6.26086 10.4516 6.3732C10.534 6.48554 10.5833 6.61868 10.594 6.75757C10.6114 6.92363 10.5974 7.09147 10.5527 7.25236C10.4573 7.66606 10.2729 8.054 10.0124 8.38922C9.71581 8.76042 9.29446 9.0112 8.82677 9.09486C8.56207 9.14956 8.29143 9.16986 8.02154 9.15526C7.75137 9.14817 7.48455 9.09365 7.23325 8.9942C7.07374 8.92637 6.94091 8.80805 6.85516 8.65741C6.76941 8.50678 6.73549 8.33215 6.75859 8.16036C6.81175 7.64317 7.00968 7.15146 7.32967 6.74168C7.62441 6.35551 8.05589 6.09692 8.5354 6.01908C8.74731 5.982 8.9592 5.96399 9.17746 5.9375M8.4358 8.28751C8.5769 8.29264 8.71673 8.25925 8.8403 8.19093C8.96386 8.12262 9.06651 8.02194 9.1372 7.89972C9.25009 7.71867 9.32941 7.51877 9.37135 7.30957C9.38081 7.26743 9.38649 7.22452 9.38831 7.18137C9.39666 7.11227 9.37875 7.04256 9.33813 6.98604C9.29751 6.92953 9.23714 6.89034 9.16899 6.87623C9.06286 6.84874 8.95326 6.83695 8.84371 6.84127C8.72987 6.84178 8.61786 6.8699 8.51728 6.92323C8.4167 6.97657 8.33057 7.05352 8.26627 7.14747C8.14834 7.31728 8.06153 7.5067 8.00988 7.70689C7.98799 7.78678 7.97518 7.86889 7.97173 7.95164C7.96483 8.02075 7.98441 8.0899 8.02648 8.14515C8.06856 8.2004 8.13002 8.23764 8.19847 8.24936C8.27617 8.26609 8.35468 8.27883 8.43368 8.28751" fill="#F7F6F5"/>
<path d="M8.18375 2.3265L7.88497 3.14551C7.81822 3.1222 7.76312 3.09888 7.70591 3.08405C7.40641 2.98834 7.08937 2.96047 6.77777 3.00247C6.70895 3.0135 6.64194 3.03381 6.57858 3.06286C6.55191 3.0738 6.52943 3.09294 6.51438 3.11751C6.49933 3.14209 6.4925 3.17082 6.49488 3.19954C6.50124 3.25781 6.55209 3.279 6.60083 3.29384C6.71844 3.32986 6.83816 3.35953 6.95471 3.39979C7.08923 3.43771 7.22064 3.48588 7.34779 3.54388C7.47505 3.58918 7.57911 3.68314 7.63712 3.80513C7.69513 3.92711 7.70234 4.06713 7.65717 4.19443C7.61699 4.42401 7.51881 4.63951 7.37195 4.82049C7.22509 5.00147 7.03442 5.14192 6.81803 5.22852C6.55146 5.34307 6.26657 5.40908 5.97678 5.42347C5.70756 5.44389 5.43693 5.43572 5.16943 5.3991C4.96256 5.37232 4.76205 5.30919 4.57715 5.21263L4.87594 4.39786C4.94587 4.42752 5.00732 4.45295 5.06665 4.47944C5.29845 4.58336 5.5481 4.64164 5.80196 4.65108C5.95143 4.65067 6.1005 4.63541 6.24695 4.60552C6.2987 4.59358 6.34561 4.56625 6.38151 4.52712C6.40098 4.51199 6.41575 4.49164 6.42412 4.46845C6.43248 4.44525 6.4341 4.42016 6.42877 4.39608C6.42345 4.37201 6.4114 4.34993 6.39403 4.33243C6.37666 4.31493 6.35469 4.30271 6.33066 4.2972C6.20669 4.24846 6.07955 4.20926 5.95452 4.16158C5.8295 4.11391 5.69071 4.06517 5.56674 4.00371C5.44764 3.95776 5.35107 3.86728 5.29748 3.7514C5.2439 3.63553 5.23749 3.50335 5.27961 3.38284C5.33003 3.1188 5.45662 2.87528 5.64376 2.68231C5.83089 2.48933 6.07041 2.35533 6.33278 2.29683C6.5576 2.23392 6.78918 2.19834 7.02252 2.19088C7.35896 2.1843 7.69519 2.21235 8.02588 2.27458C8.05843 2.28054 8.09062 2.28833 8.1223 2.29789C8.1432 2.30532 8.16371 2.31381 8.18375 2.32332" fill="#F7F6F5"/>
<path d="M7.02849 6.12387C6.90135 6.2934 6.78056 6.45232 6.66296 6.61231C6.61952 6.67164 6.58349 6.73522 6.54429 6.79773C6.48814 6.88779 6.48814 6.88143 6.3843 6.86765C6.19465 6.83293 6.00272 6.81205 5.81004 6.80515C5.54847 6.79578 5.29181 6.87779 5.08415 7.03711C4.87649 7.19644 4.7308 7.42311 4.67212 7.67818C4.64469 7.74122 4.63394 7.81026 4.64091 7.87865C4.64789 7.94705 4.67235 8.0125 4.71194 8.0687C4.75154 8.1249 4.80494 8.16995 4.86699 8.19953C4.92905 8.22912 4.99767 8.24223 5.06627 8.23761C5.44648 8.28824 5.83285 8.21387 6.1671 8.02571C6.19174 8.0136 6.21724 8.00334 6.24339 7.99499C6.24339 8.0681 6.24339 8.12955 6.24339 8.191C6.24339 8.3976 6.23173 8.60421 6.22749 8.80976C6.22749 8.91041 6.22749 8.91571 6.13214 8.9422C5.84208 9.0419 5.53983 9.10177 5.23367 9.12019C4.92137 9.14029 4.6078 9.1243 4.29917 9.07252C4.17469 9.04888 4.05367 9.00973 3.93894 8.95597C3.77767 8.88705 3.64407 8.76617 3.55941 8.61258C3.47474 8.459 3.44387 8.28151 3.47169 8.10835C3.50401 7.74131 3.62234 7.38705 3.81709 7.07427C3.99453 6.78444 4.23388 6.53744 4.51798 6.35097C4.80208 6.1645 5.1239 6.04316 5.4604 5.99567C5.96227 5.91444 6.47604 5.94851 6.9628 6.09528C6.98505 6.10163 7.00624 6.11116 7.02955 6.11964" fill="#F7F6F5"/>
<path d="M10.4976 8.99297C10.5103 8.95059 10.5167 8.92198 10.5273 8.89443L11.5381 6.09414C11.5709 6.00302 11.6038 5.91295 11.6345 5.82077C11.6383 5.80132 11.6492 5.78398 11.665 5.77206C11.6809 5.76013 11.7005 5.75447 11.7203 5.75615C12.0138 5.75615 12.3073 5.75615 12.5997 5.75615C12.618 5.75887 12.6361 5.76312 12.6537 5.76886L11.8167 8.09979C11.8929 8.12913 11.9756 8.13754 12.0562 8.12416L13.1453 8.13053C13.1568 8.13282 13.1679 8.13674 13.1782 8.14218C13.1755 8.16436 13.1713 8.18631 13.1655 8.20787C13.085 8.43743 13.0041 8.66664 12.9229 8.8955C12.8879 8.99297 12.8868 8.99298 12.7894 8.99404H10.5898C10.5633 8.99404 10.5379 8.99403 10.4976 8.98873" fill="#F7F6F5"/>
<path d="M14.7568 3.42329C14.7451 3.46037 14.7356 3.49215 14.725 3.52182C14.6519 3.72525 14.5766 3.92868 14.5078 4.13316C14.5053 4.14687 14.5002 4.15997 14.4927 4.1717C14.4852 4.18343 14.4755 4.19357 14.4641 4.20154C14.4527 4.20951 14.4398 4.21515 14.4262 4.21815C14.4126 4.22114 14.3986 4.22143 14.3848 4.21899C13.7057 4.21899 13.0255 4.21899 12.3464 4.21899C12.3167 4.21899 12.2881 4.21898 12.2478 4.21263C12.2573 4.1766 12.2616 4.148 12.2711 4.12151C12.3453 3.9096 12.4226 3.70936 12.4947 3.50169C12.4998 3.47607 12.5142 3.45324 12.5351 3.4376C12.556 3.42195 12.582 3.41459 12.608 3.41693C13.301 3.41693 13.9939 3.41693 14.6868 3.41693C14.7059 3.41693 14.726 3.41693 14.7568 3.42329Z" fill="#F7F6F5"/>
</g>
</svg>
