<svg width="151" height="35" viewBox="0 0 151 35" fill="none" xmlns="http://www.w3.org/2000/svg">
<g clip-path="url(#clip0_293_10248)">
<path d="M47.6074 4.58643V5.88872H43.5922V8.16758H47.1733V9.46974H43.5922V12.7253H42.0729V4.69492H47.6074V4.58643Z" fill="#0E0E0B"/>
<path d="M49.6691 12.2911C49.235 11.9655 48.9096 11.64 48.6926 11.2059C48.4755 10.7718 48.3669 10.2293 48.3669 9.68675C48.3669 9.14416 48.4755 8.71006 48.6926 8.16747C48.9096 7.7334 49.235 7.29933 49.6691 7.08229C50.1032 6.75674 50.6458 6.64819 51.2969 6.64819C51.948 6.64819 52.3821 6.75674 52.9247 7.08229C53.3587 7.40785 53.6843 7.7334 53.9013 8.16747C54.1184 8.60155 54.2269 9.14416 54.2269 9.68675C54.2269 10.2293 54.1184 10.6633 53.9013 11.2059C53.6843 11.64 53.3587 12.074 52.9247 12.2911C52.4906 12.6166 51.948 12.7252 51.2969 12.7252C50.6458 12.7252 50.1032 12.6166 49.6691 12.2911ZM52.2736 10.9889C52.4906 10.6634 52.7077 10.2293 52.7077 9.68675C52.7077 9.14416 52.5991 8.81853 52.2736 8.38446C52.0565 8.0589 51.6225 7.84187 51.1884 7.84187C50.7543 7.84187 50.3202 8.0589 50.1032 8.38446C49.8862 8.71001 49.6691 9.14416 49.6691 9.68675C49.6691 10.2293 49.7777 10.5548 50.1032 10.9889C50.3202 11.3145 50.7543 11.5315 51.1884 11.5315C51.6225 11.5315 52.0565 11.3145 52.2736 10.9889Z" fill="#0E0E0B"/>
<path d="M56.94 12.6167H55.5292V4.36938H56.94V12.6167Z" fill="#0E0E0B"/>
<path d="M59.9784 12.6167H58.5677V4.36938H59.9784V12.6167Z" fill="#0E0E0B"/>
<path d="M62.5828 12.2911C62.1487 11.9655 61.8232 11.64 61.6061 11.2059C61.3891 10.7718 61.2806 10.2293 61.2806 9.68675C61.2806 9.14416 61.3891 8.71006 61.6061 8.16747C61.8232 7.7334 62.1487 7.29933 62.5828 7.08229C63.0169 6.75674 63.5595 6.64819 64.2106 6.64819C64.8617 6.64819 65.2958 6.75674 65.8383 7.08229C66.2724 7.40785 66.598 7.7334 66.815 8.16747C67.0321 8.60155 67.1406 9.14416 67.1406 9.68675C67.1406 10.2293 67.0321 10.6633 66.815 11.2059C66.598 11.64 66.2724 12.074 65.8383 12.2911C65.4043 12.6166 64.8617 12.7252 64.2106 12.7252C63.5595 12.7252 63.1254 12.6166 62.5828 12.2911ZM65.2958 10.9889C65.5128 10.6634 65.7299 10.2293 65.7299 9.68675C65.7299 9.14416 65.6213 8.81853 65.2958 8.38446C65.0787 8.0589 64.6446 7.84187 64.2106 7.84187C63.7765 7.84187 63.3424 8.0589 63.1254 8.38446C62.9084 8.71001 62.6913 9.14416 62.6913 9.68675C62.6913 10.2293 62.7998 10.5548 63.1254 10.9889C63.3424 11.3145 63.7765 11.5315 64.2106 11.5315C64.6446 11.5315 65.0787 11.3145 65.2958 10.9889Z" fill="#0E0E0B"/>
<path d="M74.1944 10.772L75.388 6.86523H76.7987L74.9539 12.6167H73.4347L72.3495 8.92711L71.2643 12.6167H69.745L67.9003 6.86523H69.3111L70.5047 10.772L71.6984 6.86523H73.0006L74.1944 10.772Z" fill="#0E0E0B"/>
<path d="M80.7055 12.1827C80.3799 11.8571 80.2714 11.3146 80.2714 10.772V6.86523H81.682V10.5549C81.682 10.8804 81.7906 11.0975 81.8991 11.3146C82.0077 11.5316 82.3332 11.5316 82.5502 11.5316C82.8758 11.5316 83.2014 11.423 83.4184 11.0975C83.6355 10.7719 83.7439 10.4463 83.7439 10.1208V6.86523H85.1547V12.6167H83.7439V11.7486H83.6354C83.5269 11.9656 83.3099 12.1827 82.9843 12.3998C82.7673 12.6168 82.3332 12.7252 82.0076 12.7252C81.465 12.7252 81.031 12.5082 80.7055 12.1827Z" fill="#0E0E0B"/>
<path d="M87.108 12.1826C86.6739 11.8571 86.4569 11.3145 86.3484 10.8805H87.7592C87.7592 11.0975 87.9761 11.3145 88.0847 11.423C88.1932 11.5316 88.5188 11.64 88.8444 11.64C89.1699 11.64 89.3869 11.5316 89.4954 11.423C89.604 11.3145 89.7124 11.0975 89.7124 10.9889C89.7124 10.6634 89.4954 10.4464 89.0613 10.3379L88.3018 10.1207C87.7592 10.0122 87.325 9.7952 86.9995 9.57816C86.6739 9.36112 86.4569 8.92705 86.4569 8.49298C86.4569 8.16742 86.5655 7.84195 86.674 7.62491C86.891 7.40788 87.108 7.19087 87.4336 6.97383C87.7591 6.86531 88.1932 6.75671 88.6272 6.75671C89.2784 6.75671 89.8209 6.97375 90.255 7.2993C90.6891 7.62486 90.9061 8.05891 90.9061 8.49298H89.6039C89.6039 8.27594 89.4954 8.16753 89.2783 8.05901C89.0613 7.95049 88.8443 7.8419 88.6272 7.8419C88.3017 7.8419 88.1932 7.95049 87.9762 8.05901C87.7591 8.16753 87.7592 8.27594 87.7592 8.49298C87.7592 8.81853 87.9762 8.92705 88.5188 9.03557L89.2783 9.25268C90.472 9.46972 91.1232 10.1208 91.1232 10.9889C91.1232 11.3145 91.0146 11.6401 90.9061 11.9656C90.6891 12.2912 90.4721 12.5082 90.1465 12.6167C89.821 12.7252 89.3869 12.8337 88.9529 12.8337C88.0847 12.7252 87.4335 12.5082 87.108 12.1826Z" fill="#0E0E0B"/>
<path d="M45.5455 30.6307C44.3518 29.871 43.4837 29.0029 42.8326 27.9177C42.1814 26.8325 41.9644 25.5303 41.9644 24.2281C41.9644 22.9259 42.29 21.6236 42.8326 20.4299C43.3751 19.2362 44.3518 18.2596 45.5455 17.6085C46.7392 16.8489 48.15 16.5233 49.7777 16.5233C51.1885 16.5233 52.3822 16.8489 53.5759 17.3915C54.7696 17.9341 55.6377 18.8022 56.2888 19.8874C56.9399 20.9725 57.374 22.1662 57.374 23.6855C57.374 24.9877 57.0484 25.9644 56.5058 26.724C55.9632 27.4837 55.095 27.9177 54.0098 27.9177C53.4673 27.9177 53.0332 27.8093 52.7077 27.7007C52.3821 27.4837 52.0565 27.3752 51.8395 27.1581C51.6224 26.9411 51.514 26.8326 51.514 26.6156H51.4055C51.297 26.8326 50.9714 27.1581 50.6458 27.4836C50.3203 27.8092 49.7777 27.9177 49.018 27.9177C48.3669 27.9177 47.8244 27.7007 47.2818 27.3751C46.8477 27.0496 46.4136 26.6156 46.1966 26.073C45.9796 25.5304 45.871 24.9878 45.871 24.3367C45.871 23.6856 45.9796 23.1429 46.1966 22.6003C46.4136 22.0577 46.7392 21.6237 47.2818 21.2981C47.8244 20.9726 48.2584 20.7555 49.018 20.7555C49.5606 20.7555 49.9948 20.8641 50.3203 21.0812C50.6459 21.2982 50.8629 21.5152 50.9714 21.7322H51.0799V20.9725H53.2503V23.7941C53.2503 25.4219 53.5758 26.1815 54.3355 26.1815C55.0951 26.1815 55.4206 25.4219 55.4206 23.9026C55.4206 22.7089 55.2036 21.6237 54.6611 20.864C54.1185 19.9959 53.4673 19.4534 52.5992 19.0193C51.731 18.5852 50.8629 18.4767 49.8862 18.4767C48.6925 18.4767 47.6073 18.8022 46.7392 19.3448C45.871 19.8874 45.2199 20.647 44.7858 21.5151C44.3517 22.3833 44.1347 23.36 44.1347 24.3367C44.1347 25.3134 44.3517 26.1815 44.7858 27.0497C45.2199 27.9178 45.871 28.5688 46.7392 29.1114C47.6073 29.654 48.6925 29.8711 49.8862 29.8711C50.5373 29.8711 51.297 29.7625 51.9481 29.654C52.5992 29.4369 53.1418 29.3285 53.6844 29.0029L54.3355 30.7392C53.7929 31.0647 53.2502 31.2818 52.3821 31.4989C51.5139 31.7159 50.7544 31.8243 49.8862 31.8243C48.1499 31.7158 46.7392 31.3903 45.5455 30.6307ZM50.6458 25.6389C50.8628 25.3133 51.0799 24.8793 51.0799 24.3367C51.0799 23.7941 50.9714 23.4685 50.6458 23.0344C50.4288 22.7088 49.9947 22.4918 49.5606 22.4918C49.1266 22.4918 48.6925 22.7088 48.4754 23.0344C48.2584 23.36 48.0413 23.7941 48.0413 24.3367C48.0413 24.8793 48.1499 25.2048 48.4754 25.6389C48.801 26.0729 49.1266 26.1815 49.5606 26.1815C49.9947 26.0729 50.4288 25.9644 50.6458 25.6389Z" fill="#0E0E0B"/>
<path d="M58.3506 26.7242L60.1955 26.3986C60.4125 27.3752 61.1721 27.7008 62.0402 27.7008C62.9084 27.7008 63.451 27.2667 63.451 26.7242C63.451 26.1816 63.0169 25.856 62.1487 25.7475L61.2807 25.5305C59.6529 25.0964 58.6762 24.4453 58.6762 23.0345C58.6762 21.5153 59.9784 20.4301 61.9317 20.4301C63.8851 20.4301 65.1872 21.4068 65.4043 22.926L63.5595 23.2516C63.3425 22.3835 62.7999 21.8408 61.9317 21.8408C61.1721 21.8408 60.6296 22.2749 60.6296 22.8175C60.6296 23.2516 60.9551 23.5772 61.7148 23.7942L62.5828 24.0112C64.5361 24.4453 65.4043 25.2049 65.4043 26.6157C65.4043 28.1349 63.9936 29.1115 62.0402 29.1115C60.3039 29.1115 58.6761 28.4604 58.3506 26.7242Z" fill="#0E0E0B"/>
<path d="M70.2876 28.8945C68.9854 28.8945 68.2259 28.1348 68.2259 26.8326V22.3834H66.381V20.7556H68.2259V18.3683H70.1791V20.7556H72.458V22.3834H70.1791V26.5071C70.1791 26.8327 70.3962 27.0497 70.7217 27.0497H72.3495V28.786H70.2876V28.8945Z" fill="#0E0E0B"/>
<path d="M73.6517 26.6156C73.6517 25.0963 74.9539 24.1196 76.6902 24.1196C77.9924 24.1196 78.7521 24.6623 79.0776 24.9878V23.9026C79.0776 22.926 78.4265 22.2749 77.4499 22.2749C76.5817 22.2749 75.9305 22.8174 75.7135 23.4685L73.6517 23.1429C73.8688 21.9492 75.2795 20.6471 77.4499 20.6471C79.6202 20.6471 81.0309 21.8408 81.0309 23.7941V29.0029H78.969V27.9178C78.5349 28.5689 77.6669 29.2201 76.3647 29.2201C74.8454 29.1115 73.6517 28.1348 73.6517 26.6156ZM79.1861 26.3985C79.1861 25.7474 78.4264 25.3133 77.3412 25.3133C76.2561 25.3133 75.7135 25.856 75.7135 26.5071C75.7135 27.0497 76.2561 27.5923 77.3412 27.5923C78.4264 27.5923 79.1861 27.0496 79.1861 26.3985Z" fill="#0E0E0B"/>
<path d="M84.0695 31.933L85.5887 28.4604L82.1161 20.7556H84.2865L86.5653 26.073L88.7357 20.7556H90.906L86.2398 31.933H84.0695Z" fill="#0E0E0B"/>
<path d="M92.0999 28.8945V20.7557H94.1616V22.275C94.4871 21.4068 95.4638 20.5387 96.7661 20.5387C98.7194 20.5387 99.6961 21.8409 99.6961 24.0112V28.8945H97.6343V24.2282C97.6343 22.8175 96.9831 22.1665 96.0065 22.1665C94.9213 22.1665 94.1616 23.1431 94.1616 24.4453V28.786H92.0999V28.8945Z" fill="#0E0E0B"/>
<path d="M101.215 24.8794C101.215 22.3835 103.06 20.5387 105.339 20.5387C107.509 20.5387 109.246 22.2749 109.246 24.6623C109.246 24.9879 109.246 25.205 109.137 25.422H103.06C103.169 26.7242 104.037 27.7009 105.23 27.7009C106.316 27.7009 106.967 26.9412 107.184 26.2901L109.137 26.7242C108.703 28.1349 107.509 29.3286 105.339 29.3286C102.843 29.1116 101.215 27.2668 101.215 24.8794ZM107.292 24.0112C107.292 22.926 106.424 22.0578 105.339 22.0578C104.254 22.0578 103.277 22.926 103.277 24.0112H107.292Z" fill="#0E0E0B"/>
<path d="M109.788 28.8945L112.827 24.8794L109.788 20.7556H112.067L113.912 23.3601L115.757 20.7556H118.036L114.997 24.8794L118.036 28.8945H115.757L113.912 26.29L112.067 28.8945H109.788Z" fill="#0E0E0B"/>
<path d="M118.578 24.7708C118.578 22.3834 120.314 20.4301 122.702 20.4301C124.872 20.4301 126.391 21.7323 126.717 23.4686L124.764 23.9027C124.547 22.9261 123.787 22.2749 122.702 22.2749C121.508 22.2749 120.532 23.2515 120.532 24.7708C120.532 26.29 121.4 27.2667 122.702 27.2667C123.787 27.2667 124.438 26.5071 124.764 25.639L126.717 26.0731C126.391 27.7008 124.872 29.1115 122.702 29.1115C120.314 29.1115 118.578 27.2667 118.578 24.7708Z" fill="#0E0E0B"/>
<path d="M128.019 24.7708C128.019 22.3834 129.647 20.4301 132.252 20.4301C134.747 20.4301 136.484 22.3834 136.484 24.7708C136.484 27.1582 134.856 29.1115 132.252 29.1115C129.647 29.1115 128.019 27.2667 128.019 24.7708ZM134.313 24.7708C134.313 23.143 133.337 22.2749 132.143 22.2749C130.949 22.2749 129.973 23.143 129.973 24.7708C129.973 26.3986 130.949 27.2667 132.143 27.2667C133.445 27.3753 134.313 26.3986 134.313 24.7708Z" fill="#0E0E0B"/>
<path d="M138.111 28.8945V20.7557H140.173V22.275C140.499 21.4068 141.476 20.5387 142.561 20.5387C143.863 20.5387 144.623 21.2983 144.948 22.275C145.382 21.2983 146.25 20.5387 147.444 20.5387C149.289 20.5387 150.157 21.9494 150.157 24.0112V28.8945H148.095V24.3368C148.095 23.0346 147.77 22.275 146.793 22.275C145.816 22.275 145.165 23.2516 145.165 24.4453V28.8945H143.103V24.3368C143.103 23.0346 142.669 22.275 141.801 22.275C140.824 22.275 140.173 23.2516 140.173 24.4453V28.8945H138.111Z" fill="#0E0E0B"/>
<path d="M2.24678 0.679688H31.5467C32.7404 0.679688 33.717 1.65635 33.717 2.85005V32.15C33.717 33.3437 32.7404 34.3203 31.5467 34.3203H2.24678C1.05308 34.3203 0.076416 33.3437 0.076416 32.15V2.85005C0.076416 1.65635 1.05308 0.679688 2.24678 0.679688Z" fill="white"/>
<path d="M26.0122 13.3762C26.0122 13.5933 26.0122 13.7018 26.0122 13.9188C26.0122 20.4299 20.8033 25.7473 14.2922 25.7473H14.1837C11.9048 25.7473 9.73445 25.0963 7.78113 23.9026C8.10668 23.9026 8.43226 24.0111 8.75782 24.0111C10.6026 24.0111 12.4475 23.36 13.9667 22.2748C12.2305 22.2748 10.6026 21.081 10.06 19.3447C10.7111 19.4532 11.3623 19.4533 11.9049 19.2362C9.95154 18.8022 8.54083 17.1745 8.54083 15.1126V15.004C9.08343 15.3296 9.73448 15.5466 10.3856 15.5466C8.54078 14.3529 7.99824 11.857 9.08343 10.0122C11.1453 12.6166 14.2922 14.2444 17.6563 14.3529C17.1137 12.074 18.5244 9.9037 20.8033 9.36111C22.214 9.03556 23.7334 9.4696 24.8186 10.5548C25.7952 10.3377 26.6633 10.0122 27.4229 9.57809C27.0973 10.5548 26.4463 11.3145 25.5781 11.8571C26.4463 11.7486 27.2059 11.5314 27.9655 11.2059C27.5314 12.074 26.8804 12.7251 26.0122 13.3762Z" fill="#0F100F"/>
</g>
<defs>
<clipPath id="clip0_293_10248">
<rect width="149.972" height="33.6406" fill="white" transform="translate(0.076416 0.679688)"/>
</clipPath>
</defs>
</svg>
