<svg width="17" height="17" viewBox="0 0 17 17" fill="none" xmlns="http://www.w3.org/2000/svg">
<g clip-path="url(#clip0_3022_4220)">
<path d="M3.96908 21.6713V21.6713C3.96906 21.6869 3.96951 21.7043 3.96998 21.723C3.97161 21.787 3.97362 21.8664 3.95907 21.9381L3.95906 21.9381C3.93431 22.0599 3.88138 22.1667 3.79441 22.2425C3.70642 22.3191 3.59269 22.356 3.46239 22.3532C3.33309 22.3505 3.22096 22.3097 3.13583 22.2302C3.05149 22.1514 3.00239 22.0427 2.98264 21.9191L2.98263 21.919C2.97178 21.8509 2.97385 21.776 2.97557 21.7137C2.97615 21.6928 2.97669 21.6733 2.97669 21.656L2.97655 12.4646V12.2375C2.91302 12.2375 2.84996 12.2377 2.78728 12.2378C2.53828 12.2383 2.29525 12.2387 2.05259 12.2359C2.05258 12.2359 2.05258 12.2359 2.05257 12.2359L2.05374 12.1359C1.9558 12.1348 1.85263 12.1321 1.76151 12.1015C1.57522 12.0389 1.48198 11.8914 1.50289 11.699L3.96908 21.6713ZM3.96908 21.6713C3.9693 19.9157 3.96929 18.1602 3.96928 16.4047L3.96927 15.3537V15.153M3.96908 21.6713L3.96927 15.153M23.1931 12.2364C23.3614 12.2346 23.5093 12.1885 23.6165 12.099C23.7256 12.0078 23.7847 11.8777 23.7815 11.7281C23.7815 11.7281 23.7815 11.7281 23.7815 11.7281L23.6816 11.7302L23.192 12.1364M23.1931 12.2364L23.192 12.1364M23.1931 12.2364C23.1931 12.2364 23.1931 12.2364 23.1931 12.2364L23.192 12.1364M23.1931 12.2364C22.9473 12.2391 22.7011 12.2385 22.4458 12.2379C22.3656 12.2377 22.2845 12.2375 22.2023 12.2374M23.192 12.1364C22.9469 12.1391 22.7018 12.1385 22.4468 12.1379C22.3664 12.1377 22.285 12.1375 22.2023 12.1374V12.2374M22.2023 12.2374C22.1691 12.2374 22.1358 12.2373 22.1023 12.2373V12.1373L21.2183 21.9319C21.2411 22.0539 21.2922 22.1614 21.3779 22.2385C21.4646 22.3164 21.5777 22.3549 21.708 22.3544H21.7081C21.8382 22.3538 21.9509 22.3147 22.0372 22.2363C22.1224 22.1587 22.1728 22.0508 22.1946 21.9283C22.207 21.8588 22.2049 21.782 22.2032 21.7191C22.2026 21.6989 22.2021 21.6802 22.2021 21.6636V21.6635C22.2023 19.2094 22.2023 16.7552 22.2023 14.3011L22.2023 12.4473V12.2374ZM3.96927 15.153H21.2095V15.3736L21.2095 16.4071C21.2095 18.1602 21.2095 19.9132 21.2097 21.6663C21.2097 21.6824 21.2093 21.7004 21.2088 21.7197C21.2071 21.7833 21.205 21.8612 21.2183 21.9318L3.96927 15.153ZM8.95677 9.88326C8.95254 9.87926 8.94582 9.87394 8.93675 9.8683C8.92627 9.86179 8.91503 9.85634 8.90496 9.85268C8.89423 9.84879 8.889 9.84844 8.88936 9.84844M8.95677 9.88326L8.88938 9.84844C8.88937 9.84844 8.88937 9.84844 8.88936 9.84844M8.95677 9.88326C9.03296 10.2551 9.10111 10.6287 9.17215 11.0181C9.1852 11.0896 9.19835 11.1617 9.21167 11.2344H7.45953L7.71977 9.84365C7.79573 9.84358 7.871 9.84341 7.94571 9.84324C8.26704 9.84253 8.57809 9.84183 8.88936 9.84844M8.95677 9.88326L8.88936 9.84844M1.52887 11.3969C1.45573 11.4751 1.41561 11.5765 1.40348 11.6882L4.09116 8.91074C4.09487 9.4205 4.42985 9.73364 4.9445 9.74118L4.94302 9.84117C4.94303 9.84117 4.94303 9.84117 4.94304 9.84117C5.31217 9.84663 5.68195 9.84541 6.05067 9.8442C6.21056 9.84368 6.37025 9.84315 6.5296 9.84317C6.52962 9.84317 6.52965 9.84317 6.52967 9.84317H6.70595L6.44512 11.2446H6.21859C5.94467 11.2446 5.67076 11.2446 5.39684 11.2446C4.30017 11.2445 3.20345 11.2445 2.10678 11.2448H2.10674C2.09192 11.2448 2.07663 11.2447 2.06096 11.2446C1.98611 11.2442 1.90264 11.2437 1.82163 11.2544L1.82162 11.2544C1.70267 11.2703 1.60244 11.3182 1.52887 11.3969ZM1.40347 11.6882C1.39096 11.8034 1.41214 11.9119 1.47026 12.0028C1.52839 12.0937 1.61841 12.1589 1.72963 12.1963L1.40347 11.6882ZM11.6716 4.72956V8.82934H5.00552V4.72956H11.6716ZM12.0804 12.2519V14.1278H3.98086V12.2519H12.0804ZM13.098 14.1333V12.2561H21.1974V14.1333H13.098ZM17.4087 11.2322V7.10865H18.4451V11.2322H17.4087ZM19.4541 7.98719V7.10322H20.5075V11.2434C20.43 11.2435 20.353 11.2435 20.2763 11.2435C20.0109 11.2437 19.7497 11.2438 19.4885 11.2432C19.4685 11.2431 19.4577 11.2407 19.4528 11.2391C19.4509 11.2306 19.4502 11.2164 19.4515 11.1918C19.4518 11.1865 19.4523 11.1799 19.4528 11.1725C19.4542 11.1533 19.456 11.1288 19.4559 11.1088C19.4538 10.2998 19.4539 9.49075 19.4541 8.68156C19.4541 8.45011 19.4541 8.21866 19.4541 7.98719Z" fill="#101014" stroke="#101014" stroke-width="0.2"/>
<path d="M8.02896 13.5956C7.80316 13.5948 7.62859 13.4136 7.63289 13.1844C7.63699 12.9652 7.80442 12.7944 8.02022 12.7892C8.24641 12.7838 8.42674 12.9597 8.42906 13.188C8.43144 13.4171 8.25541 13.5964 8.02896 13.5956Z" fill="#101014" stroke="#101014" stroke-width="0.2"/>
</g>
<defs>
<clipPath id="clip0_3022_4220">
<rect width="16" height="16" fill="white" transform="translate(0.5 0.820068)"/>
</clipPath>
</defs>
</svg>
