<svg width="23" height="23" viewBox="0 0 23 23" fill="none" xmlns="http://www.w3.org/2000/svg">
<circle cx="11.5" cy="11.7051" r="11" fill="#18181D"/>
<path d="M11.4994 14.6423C12.1581 14.6423 12.7117 14.4181 13.16 13.9698C13.6083 13.5215 13.8325 12.9679 13.8325 12.3092C13.8325 11.6413 13.6083 11.0854 13.16 10.6417C12.7117 10.198 12.1581 9.97608 11.4994 9.97608C10.8315 9.97608 10.2757 10.198 9.83192 10.6417C9.38817 11.0854 9.1663 11.6413 9.1663 12.3092C9.1663 12.9679 9.38817 13.5215 9.83192 13.9698C10.2757 14.4181 10.8315 14.6423 11.4994 14.6423ZM6.83321 16.646C6.61362 16.646 6.42149 16.5636 6.2568 16.3989C6.09211 16.2342 6.00977 16.0421 6.00977 15.8225V8.78209C6.00977 8.57165 6.09211 8.3818 6.2568 8.21254C6.42149 8.04327 6.61362 7.95864 6.83321 7.95864H8.85065L9.8525 6.76465H13.1463L14.1481 7.95864H16.1656C16.376 7.95864 16.5659 8.04327 16.7351 8.21254C16.9044 8.3818 16.989 8.57165 16.989 8.78209V15.8225C16.989 16.0421 16.9044 16.2342 16.7351 16.3989C16.5659 16.5636 16.376 16.646 16.1656 16.646H6.83321Z" fill="white"/>
</svg>
