<svg width="118" height="35" viewBox="0 0 118 35" fill="none" xmlns="http://www.w3.org/2000/svg">
<g clip-path="url(#clip0_2889_7892)">
<mask id="mask0_2889_7892" style="mask-type:luminance" maskUnits="userSpaceOnUse" x="0" y="0" width="118" height="35">
<path d="M117.308 0H0.692505V34.705H117.308V0Z" fill="white"/>
</mask>
<g mask="url(#mask0_2889_7892)">
<path d="M35.5375 1.467V25.425C35.5366 26.2378 35.2128 27.0169 34.6375 27.591L28.1185 34.148C28.1064 34.1641 28.0927 34.1788 28.0775 34.192L28.0135 34.253C27.8423 34.411 27.6404 34.5322 27.4204 34.609C27.2004 34.6857 26.9669 34.7164 26.7346 34.6992C26.5022 34.6819 26.2758 34.6171 26.0696 34.5087C25.8633 34.4003 25.6815 34.2506 25.5355 34.069C25.3034 33.7618 25.1825 33.3849 25.1925 33L25.1575 24.222V24.207C25.1581 23.8697 25.0406 23.5428 24.8255 23.283C24.796 23.2384 24.7625 23.1966 24.7255 23.158C20.3465 18.758 17.6385 16.033 13.4105 11.779C13.2735 11.6419 13.1109 11.5331 12.9318 11.4589C12.7528 11.3847 12.5608 11.3465 12.367 11.3465C12.1732 11.3465 11.9813 11.3847 11.8022 11.4589C11.6232 11.5331 11.4605 11.6419 11.3235 11.779C8.21551 14.907 5.91551 17.205 3.18051 19.951C2.97755 20.1563 2.71807 20.2965 2.43512 20.3538C2.15218 20.4111 1.85858 20.3829 1.59173 20.2728C1.32488 20.1626 1.09686 19.9755 0.936716 19.7353C0.776576 19.4951 0.691565 19.2127 0.692513 18.924V10.737C0.692652 10.1456 0.927511 9.57839 1.34551 9.16L9.85251 0.653C10.271 0.235185 10.8381 0.000358343 11.4295 3.41328e-07H34.0705C34.2632 -0.00013114 34.454 0.0377242 34.6321 0.111401C34.8101 0.185078 34.9719 0.293132 35.1081 0.429381C35.2444 0.565631 35.3524 0.727404 35.4261 0.905448C35.4998 1.08349 35.5376 1.27431 35.5375 1.467Z" fill="#FEF9EA"/>
<path d="M61.3855 14.4019V11.9529H58.6255V8.88892H55.6655V11.9529H53.3185V14.4019H55.6655V19.6909C55.6227 20.0344 55.6585 20.3831 55.7703 20.7107C55.882 21.0383 56.0668 21.3362 56.3106 21.582C56.5544 21.8277 56.8508 22.0148 57.1775 22.1291C57.5042 22.2434 57.8527 22.282 58.1965 22.2419H61.3855V19.7319H59.2045C59.1247 19.7421 59.0437 19.7335 58.9678 19.7069C58.8919 19.6803 58.8232 19.6364 58.7672 19.5787C58.7112 19.5209 58.6695 19.451 58.6452 19.3743C58.6209 19.2976 58.6149 19.2163 58.6275 19.1369V14.4019H61.3855Z" fill="#FEF9EA"/>
<path d="M81.4685 11.9529L79.0195 18.2529L76.5295 11.9529H73.3605L77.5385 21.7689L75.6025 26.1509H78.7105L84.6375 11.9509L81.4685 11.9529Z" fill="#FEF9EA"/>
<path d="M69.6895 11.97V13.405H69.5675C69.4155 13.1823 69.2384 12.978 69.0395 12.796C68.7266 12.5061 68.3681 12.2696 67.9785 12.096C67.4385 11.8654 66.8543 11.7568 66.2675 11.778C65.5413 11.7611 64.8215 11.917 64.1675 12.233C63.5833 12.524 63.071 12.9411 62.6675 13.454C62.2648 13.9652 61.9597 14.5462 61.7675 15.168C61.3749 16.4295 61.3749 17.7805 61.7675 19.042C61.9597 19.6637 62.2648 20.2448 62.6675 20.756C63.0711 21.2688 63.5834 21.6858 64.1675 21.977C64.8215 22.293 65.5413 22.4489 66.2675 22.432C66.8533 22.4513 67.4365 22.3459 67.9785 22.123C68.3704 21.9536 68.7296 21.7167 69.0395 21.423C69.2376 21.2369 69.4146 21.0297 69.5675 20.805H69.6895V22.239H72.4005V11.97H69.6895ZM69.1205 18.521C68.9416 18.9626 68.649 19.349 68.2725 19.641C67.8652 19.9447 67.3662 20.1 66.8585 20.081C66.3481 20.0992 65.8465 19.9441 65.4355 19.641C65.0532 19.3526 64.7569 18.9654 64.5785 18.521C64.3918 18.0724 64.2956 17.5914 64.2956 17.1055C64.2956 16.6196 64.3918 16.1385 64.5785 15.69C64.7577 15.2455 65.0539 14.8579 65.4355 14.568C65.8475 14.2671 66.3486 14.1132 66.8585 14.131C67.3657 14.1123 67.8642 14.2664 68.2725 14.568C68.6483 14.8615 68.9407 15.2483 69.1205 15.69C69.3072 16.1385 69.4034 16.6196 69.4034 17.1055C69.4034 17.5914 69.3072 18.0724 69.1205 18.521Z" fill="#FEF9EA"/>
<path d="M49.1205 15.988L48.1526 15.801C47.2666 15.617 46.9366 15.288 46.9366 14.813C46.9366 14.218 47.4366 13.702 48.3766 13.702C48.8178 13.6843 49.2484 13.8405 49.5756 14.1372C49.9027 14.4339 50.1002 14.8471 50.1255 15.288L52.8426 14.874C52.5946 12.755 50.8046 11.623 48.3766 11.623C45.8056 11.623 44.0356 13.023 44.0356 15.06C44.0356 16.768 45.3535 17.736 47.4525 18.168L48.4206 18.368C49.4706 18.575 49.8606 18.925 49.8606 19.438C49.8606 20.038 49.3446 20.488 48.3766 20.488C47.8997 20.53 47.4236 20.3994 47.0347 20.1201C46.6459 19.8408 46.3701 19.4314 46.2576 18.966L43.5026 19.377C43.9346 21.765 46.0946 22.566 48.4206 22.566C50.8696 22.566 52.8436 21.312 52.8436 19.356C52.8436 17.464 51.5695 16.476 49.1205 15.983" fill="#FEF9EA"/>
<path d="M91.6995 11.6411C91.0325 11.6562 90.3834 11.859 89.8264 12.2262C89.2694 12.5934 88.8272 13.1101 88.5505 13.7171L88.5945 11.9561H85.5945V22.4341H88.5945V16.7341C88.5945 15.2241 89.2595 14.1771 90.5505 14.1771C91.6995 14.1771 92.3635 14.9521 92.3635 16.4601V22.4341H95.3635V16.1251C95.3635 13.2771 94.2145 11.6411 91.6955 11.6411" fill="#FEF9EA"/>
<path d="M106.682 16.7961C106.705 16.1195 106.591 15.4451 106.347 14.8138C106.102 14.1825 105.732 13.6075 105.258 13.1236C104.785 12.6397 104.218 12.257 103.592 11.9987C102.966 11.7405 102.295 11.612 101.618 11.6211C100.898 11.6282 100.187 11.7799 99.5268 12.0672C98.8667 12.3544 98.2712 12.7714 97.7754 13.2932C97.2797 13.8151 96.8938 14.4313 96.6408 15.1051C96.3878 15.779 96.2728 16.4969 96.3026 17.2161C96.3026 20.4231 98.2815 22.7701 101.597 22.7701C104.533 22.7701 106.097 21.1581 106.556 19.3771L103.763 18.8521C103.63 19.3264 103.342 19.7428 102.946 20.0349C102.549 20.327 102.066 20.478 101.574 20.4641C100.915 20.4312 100.296 20.1443 99.8447 19.6636C99.3939 19.1829 99.1472 18.546 99.1566 17.8871H106.577C106.652 17.5289 106.686 17.163 106.677 16.7971M99.2566 16.0861C99.2821 15.4887 99.5373 14.9243 99.9691 14.5106C100.401 14.0969 100.976 13.866 101.574 13.8661C101.866 13.8586 102.157 13.9112 102.428 14.0206C102.699 14.1301 102.945 14.294 103.15 14.5023C103.355 14.7106 103.515 14.9589 103.621 15.2316C103.726 15.5044 103.774 15.7959 103.763 16.0881L99.2566 16.0861Z" fill="#FEF9EA"/>
<path d="M117.308 11.9561H113.993L111.847 14.9731L109.742 11.9561H106.389L110.223 17.2361L106.389 22.4361H109.721L111.846 19.4361L113.992 22.4361H117.307L113.473 17.2361L117.308 11.9561Z" fill="#FEF9EA"/>
</g>
</g>
<defs>
<clipPath id="clip0_2889_7892">
<rect width="116.615" height="34.705" fill="white" transform="translate(0.692505)"/>
</clipPath>
</defs>
</svg>
