<svg width="24" height="24" viewBox="0 0 24 24" fill="none" xmlns="http://www.w3.org/2000/svg">
<g id="Amenities">
<mask id="mask0_3015_7862" style="mask-type:alpha" maskUnits="userSpaceOnUse" x="0" y="0" width="24" height="24">
<rect id="Bounding box" width="24" height="24" fill="#D9D9D9"/>
</mask>
<g mask="url(#mask0_3015_7862)">
<path id="wifi" d="M6.35019 15.35L5.3252 14.325C6.19186 13.4584 7.19186 12.779 8.3252 12.287C9.45853 11.7957 10.6835 11.55 12.0002 11.55C13.3169 11.55 14.5419 11.7957 15.6752 12.287C16.8085 12.779 17.8085 13.4584 18.6752 14.325L17.6502 15.35C16.9169 14.6167 16.0669 14.0417 15.1002 13.625C14.1335 13.2084 13.1002 13 12.0002 13C10.9002 13 9.86686 13.2084 8.9002 13.625C7.93353 14.0417 7.08353 14.6167 6.35019 15.35ZM2.1002 11.1L1.0752 10.075C2.4752 8.67505 4.10453 7.57072 5.96319 6.76205C7.82119 5.95405 9.83353 5.55005 12.0002 5.55005C14.1669 5.55005 16.1795 5.95405 18.0382 6.76205C19.8962 7.57072 21.5252 8.67505 22.9252 10.075L21.9002 11.1C20.6169 9.81672 19.1295 8.81238 17.4382 8.08705C15.7462 7.36238 13.9335 7.00005 12.0002 7.00005C10.0669 7.00005 8.25419 7.36238 6.56219 8.08705C4.87086 8.81238 3.38353 9.81672 2.1002 11.1ZM12.0002 21L14.4502 18.55C14.1335 18.2334 13.7669 17.9874 13.3502 17.812C12.9335 17.6374 12.4835 17.55 12.0002 17.55C11.5169 17.55 11.0669 17.6374 10.6502 17.812C10.2335 17.9874 9.86686 18.2334 9.5502 18.55L12.0002 21Z" fill="#101014"/>
</g>
</g>
</svg>
