<svg width="24" height="24" viewBox="0 0 24 24" fill="none" xmlns="http://www.w3.org/2000/svg">
<g id="Amenities">
<g id="Group 167">
<g id="Group 166">
<path id="Path 237" d="M3.46908 20.8512V20.8513C3.46906 20.8668 3.46951 20.8842 3.46998 20.9029C3.47161 20.967 3.47362 21.0463 3.45907 21.118L3.45906 21.1181C3.43431 21.2398 3.38138 21.3466 3.29441 21.4224C3.20642 21.4991 3.09269 21.536 2.96239 21.5332C2.83309 21.5304 2.72096 21.4897 2.63583 21.4101C2.55149 21.3313 2.50239 21.2226 2.48264 21.099L2.48263 21.099C2.47178 21.0308 2.47385 20.956 2.47557 20.8936C2.47615 20.8727 2.47669 20.8532 2.47669 20.8359L2.47655 11.6445V11.4174C2.41302 11.4175 2.34996 11.4176 2.28728 11.4177C2.03828 11.4182 1.79525 11.4186 1.55259 11.4158C1.55258 11.4158 1.55258 11.4158 1.55257 11.4158L1.55374 11.3158C1.4558 11.3147 1.35263 11.3121 1.26151 11.2814C1.07522 11.2188 0.981978 11.0713 1.00289 10.8789L3.46908 20.8512ZM3.46908 20.8512C3.4693 19.0957 3.46929 17.3402 3.46928 15.5847L3.46927 14.5336V14.3329M3.46908 20.8512L3.46927 14.3329M22.6931 11.4163C22.8614 11.4145 23.0093 11.3684 23.1165 11.2789C23.2256 11.1878 23.2847 11.0577 23.2815 10.908C23.2815 10.908 23.2815 10.908 23.2815 10.908L23.1816 10.9101L22.692 11.3164M22.6931 11.4163L22.692 11.3164M22.6931 11.4163C22.6931 11.4163 22.6931 11.4163 22.6931 11.4163L22.692 11.3164M22.6931 11.4163C22.4473 11.419 22.2011 11.4184 21.9458 11.4178C21.8656 11.4176 21.7845 11.4174 21.7023 11.4173M22.692 11.3164C22.4469 11.319 22.2018 11.3184 21.9468 11.3178C21.8664 11.3176 21.785 11.3174 21.7023 11.3173V11.4173M21.7023 11.4173C21.6691 11.4173 21.6358 11.4173 21.6023 11.4173V11.3173L20.7183 21.1118C20.7411 21.2339 20.7922 21.3413 20.8779 21.4184C20.9646 21.4963 21.0777 21.5348 21.208 21.5343H21.2081C21.3382 21.5338 21.4509 21.4946 21.5372 21.4162C21.6224 21.3386 21.6728 21.2307 21.6946 21.1082C21.707 21.0387 21.7049 20.962 21.7032 20.899C21.7026 20.8789 21.7021 20.8601 21.7021 20.8435V20.8434C21.7023 18.3893 21.7023 15.9352 21.7023 13.481L21.7023 11.6272V11.4173ZM3.46927 14.3329H20.7095V14.5535L20.7095 15.5871C20.7095 17.3401 20.7095 19.0932 20.7097 20.8462C20.7097 20.8623 20.7093 20.8803 20.7088 20.8997C20.7071 20.9632 20.705 21.0411 20.7183 21.1118L3.46927 14.3329ZM8.45677 9.06319C8.45254 9.05919 8.44582 9.05387 8.43675 9.04824C8.42627 9.04172 8.41503 9.03627 8.40496 9.03262C8.39423 9.02872 8.389 9.02837 8.38936 9.02837M8.45677 9.06319L8.38938 9.02837C8.38937 9.02837 8.38937 9.02837 8.38936 9.02837M8.45677 9.06319C8.53296 9.43508 8.60111 9.80859 8.67215 10.198C8.6852 10.2695 8.69835 10.3416 8.71167 10.4143H6.95953L7.21977 9.02359C7.29573 9.02351 7.371 9.02334 7.44571 9.02317C7.76704 9.02246 8.07809 9.02176 8.38936 9.02837M8.45677 9.06319L8.38936 9.02837M1.02887 10.5768C0.955728 10.655 0.915612 10.7564 0.903475 10.8681L3.59116 8.09067C3.59487 8.60043 3.92985 8.91357 4.4445 8.92112L4.44302 9.0211C4.44303 9.0211 4.44303 9.02111 4.44304 9.02111C4.81217 9.02656 5.18195 9.02535 5.55067 9.02413C5.71056 9.02361 5.87025 9.02308 6.0296 9.0231C6.02962 9.0231 6.02965 9.0231 6.02967 9.0231H6.20595L5.94512 10.4245H5.71859C5.44467 10.4245 5.17076 10.4245 4.89684 10.4245C3.80017 10.4245 2.70345 10.4244 1.60678 10.4248H1.60674C1.59192 10.4248 1.57663 10.4247 1.56096 10.4246C1.48611 10.4241 1.40264 10.4236 1.32163 10.4344L1.32162 10.4344C1.20267 10.4502 1.10244 10.4982 1.02887 10.5768ZM0.903475 10.8681C0.890956 10.9833 0.91214 11.0919 0.970262 11.1827C1.02839 11.2736 1.11841 11.3388 1.22963 11.3762L0.903475 10.8681ZM11.1716 3.90949V8.00927H4.50552V3.90949H11.1716ZM11.5804 11.4318V13.3077H3.48086V11.4318H11.5804ZM12.598 13.3133V11.436H20.6974V13.3133H12.598ZM16.9087 10.4121V6.28858H17.9451V10.4121H16.9087ZM18.9541 7.16712V6.28315H20.0075V10.4234C19.93 10.4234 19.853 10.4234 19.7763 10.4235C19.5109 10.4236 19.2497 10.4237 18.9885 10.4231C18.9685 10.4231 18.9577 10.4206 18.9528 10.419C18.9509 10.4105 18.9502 10.3964 18.9515 10.3717C18.9518 10.3664 18.9523 10.3598 18.9528 10.3524C18.9542 10.3332 18.956 10.3087 18.9559 10.2888C18.9538 9.47973 18.9539 8.67068 18.9541 7.86149C18.9541 7.63005 18.9541 7.39859 18.9541 7.16712Z" fill="#101014" stroke="#101014" stroke-width="0.2"/>
<path id="Path 238" d="M7.52896 12.7755C7.30316 12.7747 7.12859 12.5935 7.13289 12.3644C7.13699 12.1451 7.30442 11.9744 7.52022 11.9691C7.74641 11.9637 7.92674 12.1396 7.92906 12.368C7.93144 12.597 7.75541 12.7763 7.52896 12.7755Z" fill="#101014" stroke="#101014" stroke-width="0.2"/>
<path id="Path 239" d="M17.0455 12.3757C17.0438 12.6044 16.8642 12.7804 16.6378 12.7755C16.413 12.7706 16.2411 12.5853 16.2493 12.3566C16.2571 12.1385 16.4285 11.9704 16.6446 11.9691C16.871 11.9677 17.0472 12.1463 17.0455 12.3757Z" fill="#101014" stroke="#101014" stroke-width="0.2"/>
</g>
</g>
</g>
</svg>
