<svg width="14" height="10" viewBox="0 0 14 10" fill="none" xmlns="http://www.w3.org/2000/svg">
<path d="M13.4672 1.73137C13.311 1.13479 12.8551 0.664483 12.2767 0.503368C11.2214 0.205078 6.99577 0.205078 6.99577 0.205078C6.99577 0.205078 2.77228 0.205078 1.71482 0.492478C1.14704 0.653608 0.68058 1.13479 0.524389 1.73137C0.25 2.82003 0.25 5.08008 0.25 5.08008C0.25 5.08008 0.25 7.35102 0.528612 8.42878C0.684802 9.02536 1.14071 9.49566 1.71904 9.65679C2.78705 9.95508 6.99999 9.95508 6.99999 9.95508C6.99999 9.95508 11.2235 9.95508 12.2809 9.66768C12.8593 9.50655 13.3152 9.03625 13.4714 8.43967C13.75 7.35102 13.75 5.09095 13.75 5.09095C13.75 5.09095 13.7563 2.82003 13.4672 1.73137ZM5.65126 7.16595V2.99203L9.16556 5.08008L5.65126 7.16595Z" fill="#F7F6F5"/>
</svg>
